<svg width="500" height="194" viewBox="0 0 500 194" fill="none" xmlns="http://www.w3.org/2000/svg">
<g filter="url(#filter0_d_1101_10)">
<path fill-rule="evenodd" clip-rule="evenodd" d="M13 110.864V142.88H90.9521V173.04H130.624V142.88H149.648V108.544H130.624V6H86.312L13 110.864ZM54.76 108.544L93.7361 49.6162V108.544H54.76ZM192.536 131.368C185.781 119.463 182.99 105.717 184.564 92.1201L185.14 92.187C183.58 105.662 186.347 119.284 193.04 131.082C199.734 142.88 210.008 152.243 222.375 157.816C234.742 163.389 248.561 164.884 261.834 162.083C275.106 159.282 287.144 152.332 296.205 142.236C305.266 132.142 310.88 119.426 312.236 105.929C313.592 92.4321 310.619 78.8535 303.747 67.1582C296.875 55.4629 286.46 46.2568 274.01 40.8721C261.56 35.4873 247.719 34.2026 234.491 37.2046L234.362 36.6392C247.711 33.6104 261.677 34.9062 274.24 40.3398C286.803 45.7734 297.312 55.063 304.247 66.8643C311.181 78.666 314.181 92.3677 312.813 105.987C311.445 119.606 305.78 132.438 296.636 142.624C287.493 152.81 275.347 159.824 261.954 162.65C248.561 165.477 234.616 163.969 222.136 158.345C209.657 152.721 199.29 143.273 192.536 131.368ZM350 142.88V110.864L423.312 6H467.624V108.544H486.648V142.88H467.624V173.04H427.952V142.88H350ZM430.736 49.6162L391.76 108.544H430.736V49.6162ZM224.232 147.011C213.784 141.631 205.398 133.016 200.351 122.477L222.796 111.924C225.521 117.614 230.049 122.266 235.69 125.17C241.331 128.075 247.775 129.073 254.041 128.014C260.308 126.954 266.053 123.894 270.402 119.3C274.75 114.707 277.465 108.831 278.131 102.567C278.797 96.3037 277.379 89.9961 274.092 84.605C270.805 79.2139 265.83 75.0352 259.924 72.7046C254.018 70.3745 247.505 70.02 241.377 71.6963C235.25 73.3726 229.843 76.9868 225.98 81.9888L206.248 67.0327C213.402 57.7681 223.416 51.0732 234.766 47.9692C246.115 44.8647 258.178 45.521 269.116 49.8369C280.055 54.1533 289.27 61.8931 295.358 71.8779C301.446 81.8628 304.073 93.5454 302.839 105.146C301.605 116.748 296.578 127.631 288.523 136.139C280.468 144.648 269.827 150.315 258.221 152.277C246.615 154.24 234.679 152.391 224.232 147.011Z" fill="white"/>
</g>
<defs>
<filter id="filter0_d_1101_10" x="0" y="0" width="499.648" height="193.04" filterUnits="userSpaceOnUse" color-interpolation-filters="sRGB">
<feFlood flood-opacity="0" result="BackgroundImageFix"/>
<feColorMatrix in="SourceAlpha" type="matrix" values="0 0 0 0 0 0 0 0 0 0 0 0 0 0 0 0 0 0 127 0" result="hardAlpha"/>
<feOffset dy="7"/>
<feGaussianBlur stdDeviation="6.5"/>
<feComposite in2="hardAlpha" operator="out"/>
<feColorMatrix type="matrix" values="0 0 0 0 0 0 0 0 0 0 0 0 0 0 0 0 0 0 0.04 0"/>
<feBlend mode="normal" in2="BackgroundImageFix" result="effect1_dropShadow_1101_10"/>
<feBlend mode="normal" in="SourceGraphic" in2="effect1_dropShadow_1101_10" result="shape"/>
</filter>
</defs>
</svg>
