<svg width="130" height="125" viewBox="0 0 130 125" fill="none" xmlns="http://www.w3.org/2000/svg">
<path fill-rule="evenodd" clip-rule="evenodd" d="M8.39718 73.5929C16.79 65.6484 22.692 63.5937 27.4549 64.7212C32.2198 65.8456 35.6616 70.033 39.1013 74.2234C41.4635 77.1331 43.874 80.1021 46.5603 82.1238C49.3624 84.235 52.5439 85.3746 56.4745 84.585C57.3961 84.3809 58.4894 83.7844 59.6019 82.7616C61.1853 81.4227 62.9819 79.3638 64.8545 76.7926C72.1049 67.1359 81.3413 50.5002 89.1688 41.823C90.9368 39.8075 92.6645 38.2493 94.2472 37.3086C95.6505 36.5073 96.9178 36.1764 98.0284 36.6127C98.9313 36.9664 99.6884 37.8059 100.421 39.2116C101.645 41.594 102.483 45.3569 103.01 50.9123C103.471 55.7747 103.241 60.7576 103.593 65.6529C104.133 73.3088 104.81 81.1536 106.682 88.2468C106.817 88.7057 107.259 88.961 107.694 88.8328C108.19 88.744 108.422 88.2597 108.288 87.8009C106.438 80.8056 105.778 73.0679 105.252 65.5236C104.967 60.6603 105.142 55.6284 104.687 50.7576C104.163 44.9317 103.205 40.9538 101.897 38.4332C101.002 36.6113 99.8771 35.5341 98.6321 35.0364C97.3827 34.5457 95.9322 34.6245 94.4373 35.2999C92.4518 36.1887 90.233 38.0921 87.9053 40.6905C80.0552 49.4019 70.7817 66.0951 63.5077 75.7875C61.7154 78.237 59.9859 80.1938 58.5136 81.4968C57.6499 82.2754 56.8672 82.7985 56.0934 82.9113C52.7395 83.6218 50.001 82.6066 47.5477 80.7616C44.9791 78.8264 42.6773 75.9576 40.3529 73.123C36.7329 68.676 32.9136 64.2656 27.8389 63.0808C22.7627 61.8982 16.2478 63.8213 7.26772 72.3906C6.89635 72.6882 6.89013 73.227 7.19763 73.5556C7.50513 73.8843 8.08669 73.9308 8.39718 73.5929Z" fill="#E9CA62"/>
<path fill-rule="evenodd" clip-rule="evenodd" d="M6.73504 71.7094C6.73895 71.5711 6.79326 71.2236 6.87803 70.9628C7.22094 69.6491 7.95494 67.7439 8.15563 67.1752C9.6686 61.9712 11.7656 56.4123 14.8207 51.7853C15.0769 51.3974 14.9796 50.882 14.6138 50.6416C14.1872 50.361 13.6748 50.4748 13.4186 50.8628C10.2751 55.6236 8.14603 61.3634 6.48932 66.6527C6.34498 67.2685 5.59475 69.199 5.24079 70.5295C5.10389 71.0016 5.01205 71.4062 4.9992 71.6905C5.01046 71.9382 5.05613 72.1333 5.13017 72.2859C5.25013 72.6338 5.55547 72.9665 5.92876 73.1956C6.36394 73.4632 6.94375 73.644 7.58846 73.7267C8.93174 73.943 10.7132 73.8927 12.1332 73.8604C12.9372 73.8342 13.6428 73.825 14.014 73.9248C17.2048 74.7854 19.455 77.5994 19.6637 82.0495C19.7013 82.5221 20.0831 82.8714 20.5391 82.8427C20.9952 82.8139 21.3467 82.4137 21.3705 81.9805C21.0701 76.6102 18.3223 73.3574 14.4687 72.3092C13.5116 72.0377 10.8922 72.2982 8.78564 72.1787C8.13138 72.1104 7.56727 72.0372 7.13471 71.898C6.99337 71.8472 6.91893 71.8276 6.79517 71.7502C6.79417 71.7518 6.73202 71.714 6.73504 71.7094Z" fill="#E9CA62"/>
</svg>
