<svg xmlns="http://www.w3.org/2000/svg" width="131" height="143" viewBox="0 0 131 143" fill="none">
  <path fill-rule="evenodd" clip-rule="evenodd" d="M21.1897 60.4635C21.1762 60.1687 21.1444 59.8996 21.0881 59.6845C20.4277 57.2091 19.3301 54.9628 18.4553 52.5889C15.9792 45.8702 11.2256 40.3001 4.79523 36.9407C4.17535 36.6172 3.30138 36.8911 2.84449 37.5499C2.38759 38.2087 2.51981 39.0032 3.13969 39.3268C9.10587 42.4429 13.5089 47.6164 15.8047 53.8472C16.6566 56.1604 17.7294 58.3436 18.3747 60.7562C18.4714 61.1164 18.409 61.7118 18.4024 62.2449C18.3996 62.826 18.4399 63.3586 18.5619 63.715C18.7632 64.3042 19.1625 64.6166 19.6405 64.7241C19.9812 64.7998 20.4007 64.7877 20.9167 64.557C21.1271 64.4625 21.4586 64.2556 21.8231 63.8515C22.3801 63.2373 23.3944 61.7372 24.726 59.7712C26.9038 56.5472 30.0014 52.0011 33.3859 48.2915C35.506 45.9645 37.7234 43.962 39.898 42.9312C40.6317 42.5847 41.0317 41.7778 40.7948 41.1298C40.5598 40.4842 39.7698 40.24 39.0361 40.5865C36.5124 41.7829 33.8898 44.0564 31.4235 46.7619C27.926 50.601 24.7102 55.3002 22.4559 58.6336C22.0228 59.2742 21.584 59.9074 21.1897 60.4635Z" fill="#F56B40"/>
  <path fill-rule="evenodd" clip-rule="evenodd" d="M23.385 57.4402C18.542 46.0784 20.4819 36.5975 26.1837 30.2339C34.7644 20.6574 51.4496 18.3694 64.9631 27.1782C98.7799 49.2219 96.7393 100.427 80.651 138.259C80.3474 138.977 80.6752 139.688 81.3824 139.855C82.0896 140.022 82.9102 139.574 83.2156 138.859C99.7329 100.017 101.522 47.5296 66.8029 24.8976C51.9728 15.2306 33.6177 18.2178 24.2012 28.7275C17.9061 35.7564 15.4216 46.249 20.771 58.7956C21.0414 59.4258 21.8469 59.6347 22.5646 59.2613C23.2872 58.8881 23.6553 58.0704 23.385 57.4402Z" fill="#F56B40"/>
</svg>