<svg width="86" height="101" viewBox="0 0 86 101" fill="none" xmlns="http://www.w3.org/2000/svg">
<path fill-rule="evenodd" clip-rule="evenodd" d="M82.1084 7.35144C70.8946 10.1453 65.985 14.0122 64.3703 18.6326C62.7519 23.2532 64.4269 28.4082 66.1056 33.5631C67.2854 37.1205 68.4891 40.7504 68.7461 44.1026C69.0162 47.6006 68.2632 50.8951 65.4812 53.782C64.813 54.4486 63.7216 55.0487 62.2607 55.4353C60.2798 56.0485 57.5775 56.4537 54.4025 56.647C42.3612 57.5563 23.3697 56.381 11.843 58.3041C9.19269 58.7084 6.94934 59.3252 5.30441 60.1523C3.87348 60.9032 2.91226 61.7929 2.68179 62.9637C2.49362 63.915 2.79338 65.005 3.58329 66.3794C4.93145 68.6939 7.65142 71.4256 12.0483 74.8619C15.8973 77.8687 20.2199 80.3583 24.1552 83.2908C30.3158 87.8681 36.5616 92.6628 41.5301 98.0605C41.8445 98.4206 41.8212 98.9313 41.4792 99.2283C41.1374 99.5982 40.6041 99.5335 40.2897 99.1734C35.3915 93.8476 29.2269 89.1245 23.1532 84.6189C19.2088 81.7594 14.8743 79.1978 11.0152 76.1912C6.38834 72.6123 3.55211 69.6634 2.13251 67.204C1.07923 65.4688 0.777453 63.9406 1.02853 62.6236C1.28782 61.3065 2.13532 60.1268 3.50939 59.2308C5.32751 58.0363 8.12626 57.1917 11.5692 56.6296C23.1368 54.7059 42.1967 55.8809 54.2809 54.9709C57.31 54.7798 59.8902 54.3762 61.781 53.8372C62.9022 53.5287 63.7644 53.1509 64.2761 52.5596C66.6809 50.116 67.3001 47.2619 67.0666 44.2011C66.8191 40.9946 65.6412 37.5102 64.5044 34.0252C62.7066 28.5802 61.0469 22.9869 62.7812 18.0728C64.5183 13.1587 69.647 8.70467 81.7034 5.75226C82.1542 5.59961 82.6115 5.88448 82.7229 6.32056C82.8342 6.75665 82.5602 7.27173 82.1084 7.35144Z" fill="#FEDC65"/>
<path fill-rule="evenodd" clip-rule="evenodd" d="M82.0081 5.93595C81.8894 5.86476 81.5673 5.72337 81.302 5.65437C80.0104 5.23591 78.0097 4.82845 77.4224 4.69131C72.2227 3.16386 66.4094 1.93741 60.8654 2.02018C60.4005 2.02712 60.0187 1.6676 60.0131 1.22994C60.0064 0.71933 60.3782 0.348845 60.843 0.341906C66.5474 0.25674 72.5304 1.55362 77.8795 3.00588C78.4761 3.21584 80.5068 3.62327 81.8185 4.04144C82.29 4.18032 82.6804 4.32083 82.9269 4.46307C83.1295 4.60596 83.2693 4.7495 83.3581 4.89409C83.5867 5.18251 83.7026 5.61896 83.6945 6.05683C83.6857 6.56766 83.5258 7.15357 83.2484 7.74138C82.7073 8.98975 81.7056 10.4637 80.9137 11.6429C80.4587 12.3063 80.0709 12.8959 79.9552 13.2624C78.9621 16.4144 80.1215 19.8259 83.7589 22.398C84.1369 22.6842 84.2257 23.194 83.9559 23.5629C83.6861 23.9317 83.1595 24.0124 82.7816 23.7991C78.4183 20.6541 77.157 16.5871 78.349 12.7755C78.6356 11.8228 80.2656 9.75592 81.2993 7.91654C81.5941 7.32847 81.8362 6.81372 81.9517 6.37425C81.9851 6.22784 82.0086 6.15453 82.0101 6.00859C82.0119 6.00856 82.0136 5.93586 82.0081 5.93595Z" fill="#FEDC65"/>
</svg>
