<svg width="102" height="86" viewBox="0 0 102 86" fill="none" xmlns="http://www.w3.org/2000/svg">
<path fill-rule="evenodd" clip-rule="evenodd" d="M8.36148 82.1756C11.2682 70.9905 15.1843 66.1202 19.8208 64.5521C24.4574 62.9803 29.5953 64.7071 34.7331 66.4376C38.2783 67.6532 41.8959 68.8934 45.2454 69.1842C48.7405 69.4895 52.0424 68.7697 54.9572 66.017C55.6305 65.3555 56.2415 64.2702 56.6428 62.8132C57.276 60.8387 57.7083 58.1406 57.9336 54.9677C58.9642 42.9362 57.9803 23.9338 60.0194 12.4271C60.4504 9.78094 61.0897 7.54392 61.9333 5.9074C62.6986 4.4841 63.598 3.5319 64.771 3.31323C65.7241 3.13465 66.8111 3.44538 68.1775 4.24909C70.4783 5.6205 73.1824 8.36785 76.5743 12.7991C79.5422 16.6782 81.988 21.0256 84.8808 24.9904C89.3958 31.1967 94.1273 37.4905 99.4747 42.5132C99.8316 42.8312 100.343 42.813 100.643 42.474C101.016 42.136 100.957 41.602 100.6 41.284C95.3239 36.3324 90.6631 30.1206 86.2189 24.0017C83.3993 20.0288 80.8815 15.6686 77.9139 11.7795C74.3818 7.11679 71.4616 4.251 69.0167 2.80669C67.2921 1.73599 65.767 1.41883 64.4476 1.65663C63.1279 1.90264 61.9397 2.73821 61.0299 4.10318C59.8172 5.90918 58.9445 8.69928 58.3477 12.1363C56.3076 23.6841 57.2905 42.7548 56.2589 54.8292C56.0372 57.8562 55.6076 60.4322 55.0497 62.3175C54.7298 63.4355 54.3434 64.2939 53.7469 64.7996C51.2793 67.1796 48.419 67.7701 45.3608 67.5058C42.157 67.226 38.6846 66.0131 35.2112 64.8412C29.7846 62.9886 24.2083 61.2727 19.277 62.9574C14.3457 64.6449 9.84017 69.7285 6.76646 81.7545C6.60928 82.2038 6.88952 82.6639 7.32447 82.7796C7.75941 82.8954 8.27722 82.6266 8.36148 82.1756Z" fill="#BCEBE5"/>
<path fill-rule="evenodd" clip-rule="evenodd" d="M5.95371 81.4597C5.88372 81.3403 5.74558 81.0168 5.67926 80.7507C5.27383 79.455 4.88655 77.4503 4.75533 76.8617C3.28034 71.6468 2.11251 65.8215 2.25112 60.2786C2.26274 59.8139 1.90709 59.4284 1.46951 59.4184C0.958994 59.4065 0.584782 59.7746 0.57316 60.2393C0.430535 65.9426 1.66708 71.9384 3.06538 77.3018C3.26933 77.9004 3.65628 79.9352 4.06121 81.251C4.19533 81.7239 4.3319 82.1157 4.47165 82.3636C4.61249 82.5677 4.75462 82.7089 4.89831 82.7991C5.18441 83.0306 5.61967 83.1509 6.05759 83.1473C6.56849 83.1436 7.15598 82.9896 7.74656 82.7181C9.00031 82.1896 10.4843 81.2028 11.6714 80.4228C12.3393 79.9745 12.9328 79.5927 13.3005 79.4807C16.4623 78.5194 19.8619 79.7132 22.3973 83.3763C22.6797 83.7571 23.1886 83.851 23.5601 83.5849C23.9316 83.3189 24.0176 82.7931 23.8082 82.4131C20.7073 78.0183 16.6532 76.7161 12.8298 77.8696C11.8742 78.1466 9.79104 79.7558 7.94134 80.7709C7.35034 81.0597 6.83317 81.2966 6.39256 81.4078C6.24582 81.4396 6.17227 81.4624 6.02633 81.4624C6.02628 81.4643 5.95357 81.4652 5.95371 81.4597Z" fill="#BCEBE5"/>
</svg>
