<svg width="1304" height="381" viewBox="0 0 1304 381" fill="none" xmlns="http://www.w3.org/2000/svg">
<path d="M0 338.5C0 343.194 3.80558 347 8.5 347C13.1944 347 17 343.194 17 338.5C17 333.806 13.1944 330 8.5 330C3.80558 330 0 333.806 0 338.5ZM13.4986 338.5C13.4986 341.261 11.2607 343.499 8.5 343.499C5.73932 343.499 3.50135 341.261 3.50135 338.5C3.50135 335.739 5.73932 333.501 8.5 333.501C11.2607 333.501 13.4986 335.739 13.4986 338.5Z" fill="white" fill-opacity="0.3"/>
<g filter="url(#filter0_d_370_3)">
<path d="M1143 89.2328C1143 120.842 1168.62 146.466 1200.23 146.466C1231.84 146.466 1257.47 120.842 1257.47 89.2328C1257.47 57.624 1231.84 32 1200.23 32C1168.62 32 1143 57.624 1143 89.2328ZM1233.89 89.2328C1233.89 107.821 1218.82 122.89 1200.23 122.89C1181.64 122.89 1166.58 107.821 1166.58 89.2328C1166.58 70.6444 1181.64 55.5756 1200.23 55.5756C1218.82 55.5756 1233.89 70.6444 1233.89 89.2328Z" fill="white" fill-opacity="0.3" shape-rendering="crispEdges"/>
</g>
<path d="M1259.59 141.696C1259.59 146.672 1263.62 150.705 1268.59 150.705C1273.57 150.705 1277.6 146.672 1277.6 141.696C1277.6 136.721 1273.57 132.688 1268.59 132.688C1263.62 132.688 1259.59 136.721 1259.59 141.696ZM1273.89 141.696C1273.89 144.622 1271.52 146.994 1268.59 146.994C1265.67 146.994 1263.3 144.622 1263.3 141.696C1263.3 138.77 1265.67 136.398 1268.59 136.398C1271.52 136.398 1273.89 138.77 1273.89 141.696Z" fill="white" fill-opacity="0.3"/>
<path fill-rule="evenodd" clip-rule="evenodd" d="M208.344 60.4635C208.358 60.1687 208.39 59.8996 208.446 59.6845C209.106 57.2091 210.204 54.9628 211.079 52.5889C213.555 45.8702 218.308 40.3001 224.739 36.9407C225.359 36.6172 226.233 36.8911 226.689 37.5499C227.146 38.2087 227.014 39.0032 226.394 39.3268C220.428 42.4429 216.025 47.6164 213.729 53.8472C212.877 56.1604 211.805 58.3436 211.159 60.7562C211.063 61.1164 211.125 61.7118 211.132 62.2449C211.134 62.826 211.094 63.3586 210.972 63.715C210.771 64.3042 210.371 64.6166 209.893 64.7241C209.553 64.7998 209.133 64.7877 208.617 64.557C208.407 64.4625 208.075 64.2556 207.711 63.8515C207.154 63.2373 206.14 61.7372 204.808 59.7712C202.63 56.5472 199.533 52.0011 196.148 48.2915C194.028 45.9645 191.81 43.962 189.636 42.9312C188.902 42.5847 188.502 41.7778 188.739 41.1298C188.974 40.4842 189.764 40.24 190.498 40.5865C193.022 41.7829 195.644 44.0564 198.11 46.7619C201.608 50.601 204.824 55.3002 207.078 58.6336C207.511 59.2742 207.95 59.9074 208.344 60.4635Z" fill="#F56B40"/>
<path fill-rule="evenodd" clip-rule="evenodd" d="M206.149 57.4402C210.992 46.0784 209.052 36.5975 203.35 30.2339C194.769 20.6574 178.084 18.3694 164.571 27.1782C130.754 49.2219 132.795 100.427 148.883 138.259C149.186 138.977 148.859 139.688 148.151 139.855C147.444 140.022 146.624 139.574 146.318 138.859C129.801 100.017 128.012 47.5296 162.731 24.8976C177.561 15.2306 195.916 18.2178 205.333 28.7275C211.628 35.7564 214.112 46.249 208.763 58.7956C208.492 59.4258 207.687 59.6347 206.969 59.2613C206.247 58.8881 205.878 58.0704 206.149 57.4402Z" fill="#F56B40"/>
<g opacity="0.5">
<path d="M1163.45 325.893C1164.24 325.893 1164.89 325.245 1164.89 324.446C1164.89 323.648 1164.24 323 1163.45 323C1162.65 323 1162 323.648 1162 324.446C1162 325.245 1162.65 325.893 1163.45 325.893Z" fill="white"/>
<path d="M1178.86 325.893C1179.66 325.893 1180.31 325.245 1180.31 324.446C1180.31 323.648 1179.66 323 1178.86 323C1178.06 323 1177.42 323.648 1177.42 324.446C1177.42 325.245 1178.06 325.893 1178.86 325.893Z" fill="white"/>
<path d="M1194.28 325.893C1195.08 325.893 1195.73 325.245 1195.73 324.446C1195.73 323.648 1195.08 323 1194.28 323C1193.48 323 1192.83 323.648 1192.83 324.446C1192.83 325.245 1193.48 325.893 1194.28 325.893Z" fill="white"/>
<path d="M1209.7 325.893C1210.49 325.893 1211.14 325.245 1211.14 324.446C1211.14 323.648 1210.49 323 1209.7 323C1208.9 323 1208.25 323.648 1208.25 324.446C1208.25 325.245 1208.9 325.893 1209.7 325.893Z" fill="white"/>
<path d="M1225.11 325.893C1225.91 325.893 1226.56 325.245 1226.56 324.446C1226.56 323.648 1225.91 323 1225.11 323C1224.31 323 1223.67 323.648 1223.67 324.446C1223.67 325.245 1224.31 325.893 1225.11 325.893Z" fill="white"/>
<path d="M1240.54 325.893C1241.34 325.893 1241.99 325.245 1241.99 324.446C1241.99 323.648 1241.34 323 1240.54 323C1239.74 323 1239.1 323.648 1239.1 324.446C1239.1 325.245 1239.74 325.893 1240.54 325.893Z" fill="white"/>
<path d="M1255.96 325.893C1256.76 325.893 1257.4 325.245 1257.4 324.446C1257.4 323.648 1256.76 323 1255.96 323C1255.16 323 1254.51 323.648 1254.51 324.446C1254.51 325.245 1255.16 325.893 1255.96 325.893Z" fill="white"/>
<path d="M1271.37 325.893C1272.17 325.893 1272.82 325.245 1272.82 324.446C1272.82 323.648 1272.17 323 1271.37 323C1270.58 323 1269.93 323.648 1269.93 324.446C1269.93 325.245 1270.58 325.893 1271.37 325.893Z" fill="white"/>
<path d="M1286.79 325.893C1287.59 325.893 1288.24 325.245 1288.24 324.446C1288.24 323.648 1287.59 323 1286.79 323C1285.99 323 1285.35 323.648 1285.35 324.446C1285.35 325.245 1285.99 325.893 1286.79 325.893Z" fill="white"/>
<path d="M1302.21 325.893C1303.01 325.893 1303.65 325.245 1303.65 324.446C1303.65 323.648 1303.01 323 1302.21 323C1301.41 323 1300.76 323.648 1300.76 324.446C1300.76 325.245 1301.41 325.893 1302.21 325.893Z" fill="white"/>
<path d="M1143.2 344.205C1144 344.205 1144.65 343.558 1144.65 342.759C1144.65 341.96 1144 341.312 1143.2 341.312C1142.4 341.312 1141.75 341.96 1141.75 342.759C1141.75 343.558 1142.4 344.205 1143.2 344.205Z" fill="white"/>
<path d="M1158.62 344.205C1159.42 344.205 1160.06 343.558 1160.06 342.759C1160.06 341.96 1159.42 341.312 1158.62 341.312C1157.82 341.312 1157.17 341.96 1157.17 342.759C1157.17 343.558 1157.82 344.205 1158.62 344.205Z" fill="white"/>
<path d="M1174.05 344.205C1174.85 344.205 1175.49 343.558 1175.49 342.759C1175.49 341.96 1174.85 341.312 1174.05 341.312C1173.25 341.312 1172.6 341.96 1172.6 342.759C1172.6 343.558 1173.25 344.205 1174.05 344.205Z" fill="white"/>
<path d="M1189.46 344.205C1190.26 344.205 1190.91 343.558 1190.91 342.759C1190.91 341.96 1190.26 341.312 1189.46 341.312C1188.67 341.312 1188.02 341.96 1188.02 342.759C1188.02 343.558 1188.67 344.205 1189.46 344.205Z" fill="white"/>
<path d="M1204.88 344.205C1205.68 344.205 1206.33 343.558 1206.33 342.759C1206.33 341.96 1205.68 341.312 1204.88 341.312C1204.08 341.312 1203.43 341.96 1203.43 342.759C1203.43 343.558 1204.08 344.205 1204.88 344.205Z" fill="white"/>
<path d="M1220.3 344.205C1221.1 344.205 1221.74 343.558 1221.74 342.759C1221.74 341.96 1221.1 341.312 1220.3 341.312C1219.5 341.312 1218.85 341.96 1218.85 342.759C1218.85 343.558 1219.5 344.205 1220.3 344.205Z" fill="white"/>
<path d="M1235.71 344.205C1236.51 344.205 1237.16 343.558 1237.16 342.759C1237.16 341.96 1236.51 341.312 1235.71 341.312C1234.92 341.312 1234.27 341.96 1234.27 342.759C1234.27 343.558 1234.92 344.205 1235.71 344.205Z" fill="white"/>
<path d="M1251.14 344.205C1251.94 344.205 1252.59 343.558 1252.59 342.759C1252.59 341.96 1251.94 341.312 1251.14 341.312C1250.34 341.312 1249.7 341.96 1249.7 342.759C1249.7 343.558 1250.34 344.205 1251.14 344.205Z" fill="white"/>
<path d="M1266.56 344.205C1267.36 344.205 1268.01 343.558 1268.01 342.759C1268.01 341.96 1267.36 341.312 1266.56 341.312C1265.76 341.312 1265.11 341.96 1265.11 342.759C1265.11 343.558 1265.76 344.205 1266.56 344.205Z" fill="white"/>
<path d="M1281.98 344.205C1282.77 344.205 1283.42 343.558 1283.42 342.759C1283.42 341.96 1282.77 341.312 1281.98 341.312C1281.18 341.312 1280.53 341.96 1280.53 342.759C1280.53 343.558 1281.18 344.205 1281.98 344.205Z" fill="white"/>
<path d="M1123.45 362.518C1124.24 362.518 1124.89 361.87 1124.89 361.071C1124.89 360.273 1124.24 359.625 1123.45 359.625C1122.65 359.625 1122 360.273 1122 361.071C1122 361.87 1122.65 362.518 1123.45 362.518Z" fill="white"/>
<path d="M1138.86 362.518C1139.66 362.518 1140.31 361.87 1140.31 361.071C1140.31 360.273 1139.66 359.625 1138.86 359.625C1138.06 359.625 1137.42 360.273 1137.42 361.071C1137.42 361.87 1138.06 362.518 1138.86 362.518Z" fill="white"/>
<path d="M1154.28 362.518C1155.08 362.518 1155.73 361.87 1155.73 361.071C1155.73 360.273 1155.08 359.625 1154.28 359.625C1153.48 359.625 1152.83 360.273 1152.83 361.071C1152.83 361.87 1153.48 362.518 1154.28 362.518Z" fill="white"/>
<path d="M1169.7 362.518C1170.49 362.518 1171.14 361.87 1171.14 361.071C1171.14 360.273 1170.49 359.625 1169.7 359.625C1168.9 359.625 1168.25 360.273 1168.25 361.071C1168.25 361.87 1168.9 362.518 1169.7 362.518Z" fill="white"/>
<path d="M1185.11 362.518C1185.91 362.518 1186.56 361.87 1186.56 361.071C1186.56 360.273 1185.91 359.625 1185.11 359.625C1184.31 359.625 1183.67 360.273 1183.67 361.071C1183.67 361.87 1184.31 362.518 1185.11 362.518Z" fill="white"/>
<path d="M1200.54 362.518C1201.34 362.518 1201.99 361.87 1201.99 361.071C1201.99 360.273 1201.34 359.625 1200.54 359.625C1199.74 359.625 1199.1 360.273 1199.1 361.071C1199.1 361.87 1199.74 362.518 1200.54 362.518Z" fill="white"/>
<path d="M1215.96 362.518C1216.76 362.518 1217.4 361.87 1217.4 361.071C1217.4 360.273 1216.76 359.625 1215.96 359.625C1215.16 359.625 1214.51 360.273 1214.51 361.071C1214.51 361.87 1215.16 362.518 1215.96 362.518Z" fill="white"/>
<path d="M1231.37 362.518C1232.17 362.518 1232.82 361.87 1232.82 361.071C1232.82 360.273 1232.17 359.625 1231.37 359.625C1230.58 359.625 1229.93 360.273 1229.93 361.071C1229.93 361.87 1230.58 362.518 1231.37 362.518Z" fill="white"/>
<path d="M1246.79 362.518C1247.59 362.518 1248.24 361.87 1248.24 361.071C1248.24 360.273 1247.59 359.625 1246.79 359.625C1245.99 359.625 1245.35 360.273 1245.35 361.071C1245.35 361.87 1245.99 362.518 1246.79 362.518Z" fill="white"/>
<path d="M1262.21 362.518C1263.01 362.518 1263.65 361.87 1263.65 361.071C1263.65 360.273 1263.01 359.625 1262.21 359.625C1261.41 359.625 1260.76 360.273 1260.76 361.071C1260.76 361.87 1261.41 362.518 1262.21 362.518Z" fill="white"/>
<path d="M1143.2 380.83C1144 380.83 1144.65 380.183 1144.65 379.384C1144.65 378.585 1144 377.938 1143.2 377.938C1142.4 377.938 1141.75 378.585 1141.75 379.384C1141.75 380.183 1142.4 380.83 1143.2 380.83Z" fill="white"/>
<path d="M1158.62 380.83C1159.42 380.83 1160.06 380.183 1160.06 379.384C1160.06 378.585 1159.42 377.938 1158.62 377.938C1157.82 377.938 1157.17 378.585 1157.17 379.384C1157.17 380.183 1157.82 380.83 1158.62 380.83Z" fill="white"/>
<path d="M1174.05 380.83C1174.85 380.83 1175.49 380.183 1175.49 379.384C1175.49 378.585 1174.85 377.938 1174.05 377.938C1173.25 377.938 1172.6 378.585 1172.6 379.384C1172.6 380.183 1173.25 380.83 1174.05 380.83Z" fill="white"/>
<path d="M1189.46 380.83C1190.26 380.83 1190.91 380.183 1190.91 379.384C1190.91 378.585 1190.26 377.938 1189.46 377.938C1188.67 377.938 1188.02 378.585 1188.02 379.384C1188.02 380.183 1188.67 380.83 1189.46 380.83Z" fill="white"/>
<path d="M1204.88 380.83C1205.68 380.83 1206.33 380.183 1206.33 379.384C1206.33 378.585 1205.68 377.938 1204.88 377.938C1204.08 377.938 1203.43 378.585 1203.43 379.384C1203.43 380.183 1204.08 380.83 1204.88 380.83Z" fill="white"/>
<path d="M1220.3 380.83C1221.1 380.83 1221.74 380.183 1221.74 379.384C1221.74 378.585 1221.1 377.938 1220.3 377.938C1219.5 377.938 1218.85 378.585 1218.85 379.384C1218.85 380.183 1219.5 380.83 1220.3 380.83Z" fill="white"/>
<path d="M1235.71 380.83C1236.51 380.83 1237.16 380.183 1237.16 379.384C1237.16 378.585 1236.51 377.938 1235.71 377.938C1234.92 377.938 1234.27 378.585 1234.27 379.384C1234.27 380.183 1234.92 380.83 1235.71 380.83Z" fill="white"/>
<path d="M1251.14 380.83C1251.94 380.83 1252.59 380.183 1252.59 379.384C1252.59 378.585 1251.94 377.938 1251.14 377.938C1250.34 377.938 1249.7 378.585 1249.7 379.384C1249.7 380.183 1250.34 380.83 1251.14 380.83Z" fill="white"/>
<path d="M1266.56 380.83C1267.36 380.83 1268.01 380.183 1268.01 379.384C1268.01 378.585 1267.36 377.938 1266.56 377.938C1265.76 377.938 1265.11 378.585 1265.11 379.384C1265.11 380.183 1265.76 380.83 1266.56 380.83Z" fill="white"/>
<path d="M1281.98 380.83C1282.77 380.83 1283.42 380.183 1283.42 379.384C1283.42 378.585 1282.77 377.938 1281.98 377.938C1281.18 377.938 1280.53 378.585 1280.53 379.384C1280.53 380.183 1281.18 380.83 1281.98 380.83Z" fill="white"/>
</g>
<defs>
<filter id="filter0_d_370_3" x="1130" y="26" width="140.466" height="140.466" filterUnits="userSpaceOnUse" color-interpolation-filters="sRGB">
<feFlood flood-opacity="0" result="BackgroundImageFix"/>
<feColorMatrix in="SourceAlpha" type="matrix" values="0 0 0 0 0 0 0 0 0 0 0 0 0 0 0 0 0 0 127 0" result="hardAlpha"/>
<feOffset dy="7"/>
<feGaussianBlur stdDeviation="6.5"/>
<feComposite in2="hardAlpha" operator="out"/>
<feColorMatrix type="matrix" values="0 0 0 0 0 0 0 0 0 0 0 0 0 0 0 0 0 0 0.04 0"/>
<feBlend mode="normal" in2="BackgroundImageFix" result="effect1_dropShadow_370_3"/>
<feBlend mode="normal" in="SourceGraphic" in2="effect1_dropShadow_370_3" result="shape"/>
</filter>
</defs>
</svg>
