<svg width="148" height="141" viewBox="0 0 148 141" fill="none" xmlns="http://www.w3.org/2000/svg">
<g filter="url(#filter0_d_370_2)">
<path d="M13 63.2328C13 94.8416 38.624 120.466 70.2328 120.466C101.842 120.466 127.466 94.8416 127.466 63.2328C127.466 31.624 101.842 6 70.2328 6C38.624 6 13 31.624 13 63.2328ZM103.89 63.2328C103.89 81.8212 88.8212 96.8901 70.2328 96.8901C51.6444 96.8901 36.5756 81.8212 36.5756 63.2328C36.5756 44.6444 51.6444 29.5756 70.2328 29.5756C88.8212 29.5756 103.89 44.6444 103.89 63.2328Z" fill="white" fill-opacity="0.3" shape-rendering="crispEdges"/>
</g>
<path d="M129.585 115.696C129.585 120.672 133.619 124.705 138.594 124.705C143.57 124.705 147.603 120.672 147.603 115.696C147.603 110.721 143.57 106.688 138.594 106.688C133.619 106.688 129.585 110.721 129.585 115.696ZM143.892 115.696C143.892 118.622 141.52 120.994 138.594 120.994C135.668 120.994 133.296 118.622 133.296 115.696C133.296 112.77 135.668 110.398 138.594 110.398C141.52 110.398 143.892 112.77 143.892 115.696Z" fill="white" fill-opacity="0.3"/>
<defs>
<filter id="filter0_d_370_2" x="0" y="0" width="140.466" height="140.466" filterUnits="userSpaceOnUse" color-interpolation-filters="sRGB">
<feFlood flood-opacity="0" result="BackgroundImageFix"/>
<feColorMatrix in="SourceAlpha" type="matrix" values="0 0 0 0 0 0 0 0 0 0 0 0 0 0 0 0 0 0 127 0" result="hardAlpha"/>
<feOffset dy="7"/>
<feGaussianBlur stdDeviation="6.5"/>
<feComposite in2="hardAlpha" operator="out"/>
<feColorMatrix type="matrix" values="0 0 0 0 0 0 0 0 0 0 0 0 0 0 0 0 0 0 0.04 0"/>
<feBlend mode="normal" in2="BackgroundImageFix" result="effect1_dropShadow_370_2"/>
<feBlend mode="normal" in="SourceGraphic" in2="effect1_dropShadow_370_2" result="shape"/>
</filter>
</defs>
</svg>
