<svg width="182" height="58" viewBox="0 0 182 58" fill="none" xmlns="http://www.w3.org/2000/svg">
<g opacity="0.6">
<path d="M41.4461 2.8928C42.2448 2.8928 42.8922 2.24523 42.8922 1.4464C42.8922 0.647572 42.2448 0 41.4461 0C40.6475 0 40 0.647572 40 1.4464C40 2.24523 40.6475 2.8928 41.4461 2.8928Z" fill="white"/>
<path d="M56.8631 2.8928C57.6618 2.8928 58.3092 2.24523 58.3092 1.4464C58.3092 0.647572 57.6618 0 56.8631 0C56.0644 0 55.417 0.647572 55.417 1.4464C55.417 2.24523 56.0644 2.8928 56.8631 2.8928Z" fill="white"/>
<path d="M72.2793 2.8928C73.078 2.8928 73.7254 2.24523 73.7254 1.4464C73.7254 0.647572 73.078 0 72.2793 0C71.4806 0 70.8332 0.647572 70.8332 1.4464C70.8332 2.24523 71.4806 2.8928 72.2793 2.8928Z" fill="white"/>
<path d="M87.6959 2.8928C88.4946 2.8928 89.142 2.24523 89.142 1.4464C89.142 0.647572 88.4946 0 87.6959 0C86.8973 0 86.2498 0.647572 86.2498 1.4464C86.2498 2.24523 86.8973 2.8928 87.6959 2.8928Z" fill="white"/>
<path d="M103.112 2.8928C103.911 2.8928 104.558 2.24523 104.558 1.4464C104.558 0.647572 103.911 0 103.112 0C102.313 0 101.666 0.647572 101.666 1.4464C101.666 2.24523 102.313 2.8928 103.112 2.8928Z" fill="white"/>
<path d="M118.542 2.8928C119.341 2.8928 119.988 2.24523 119.988 1.4464C119.988 0.647572 119.341 0 118.542 0C117.743 0 117.096 0.647572 117.096 1.4464C117.096 2.24523 117.743 2.8928 118.542 2.8928Z" fill="white"/>
<path d="M133.959 2.8928C134.757 2.8928 135.405 2.24523 135.405 1.4464C135.405 0.647572 134.757 0 133.959 0C133.16 0 132.512 0.647572 132.512 1.4464C132.512 2.24523 133.16 2.8928 133.959 2.8928Z" fill="white"/>
<path d="M149.375 2.8928C150.173 2.8928 150.821 2.24523 150.821 1.4464C150.821 0.647572 150.173 0 149.375 0C148.576 0 147.929 0.647572 147.929 1.4464C147.929 2.24523 148.576 2.8928 149.375 2.8928Z" fill="white"/>
<path d="M164.792 2.8928C165.59 2.8928 166.238 2.24523 166.238 1.4464C166.238 0.647572 165.59 0 164.792 0C163.993 0 163.346 0.647572 163.346 1.4464C163.346 2.24523 163.993 2.8928 164.792 2.8928Z" fill="white"/>
<path d="M180.209 2.8928C181.007 2.8928 181.655 2.24523 181.655 1.4464C181.655 0.647572 181.007 0 180.209 0C179.41 0 178.763 0.647572 178.763 1.4464C178.763 2.24523 179.41 2.8928 180.209 2.8928Z" fill="white"/>
<path d="M21.201 21.2053C21.9997 21.2053 22.6471 20.5577 22.6471 19.7589C22.6471 18.9601 21.9997 18.3125 21.201 18.3125C20.4023 18.3125 19.7549 18.9601 19.7549 19.7589C19.7549 20.5577 20.4023 21.2053 21.201 21.2053Z" fill="white"/>
<path d="M36.618 21.2053C37.4166 21.2053 38.0641 20.5577 38.0641 19.7589C38.0641 18.9601 37.4166 18.3125 36.618 18.3125C35.8193 18.3125 35.1719 18.9601 35.1719 19.7589C35.1719 20.5577 35.8193 21.2053 36.618 21.2053Z" fill="white"/>
<path d="M52.0467 21.2053C52.8454 21.2053 53.4928 20.5577 53.4928 19.7589C53.4928 18.9601 52.8454 18.3125 52.0467 18.3125C51.248 18.3125 50.6006 18.9601 50.6006 19.7589C50.6006 20.5577 51.248 21.2053 52.0467 21.2053Z" fill="white"/>
<path d="M67.4637 21.2053C68.2624 21.2053 68.9098 20.5577 68.9098 19.7589C68.9098 18.9601 68.2624 18.3125 67.4637 18.3125C66.665 18.3125 66.0176 18.9601 66.0176 19.7589C66.0176 20.5577 66.665 21.2053 67.4637 21.2053Z" fill="white"/>
<path d="M82.8807 21.2053C83.6793 21.2053 84.3268 20.5577 84.3268 19.7589C84.3268 18.9601 83.6793 18.3125 82.8807 18.3125C82.082 18.3125 81.4346 18.9601 81.4346 19.7589C81.4346 20.5577 82.082 21.2053 82.8807 21.2053Z" fill="white"/>
<path d="M98.2968 21.2053C99.0955 21.2053 99.7429 20.5577 99.7429 19.7589C99.7429 18.9601 99.0955 18.3125 98.2968 18.3125C97.4982 18.3125 96.8507 18.9601 96.8507 19.7589C96.8507 20.5577 97.4982 21.2053 98.2968 21.2053Z" fill="white"/>
<path d="M113.714 21.2053C114.512 21.2053 115.16 20.5577 115.16 19.7589C115.16 18.9601 114.512 18.3125 113.714 18.3125C112.915 18.3125 112.268 18.9601 112.268 19.7589C112.268 20.5577 112.915 21.2053 113.714 21.2053Z" fill="white"/>
<path d="M129.143 21.2053C129.942 21.2053 130.589 20.5577 130.589 19.7589C130.589 18.9601 129.942 18.3125 129.143 18.3125C128.345 18.3125 127.697 18.9601 127.697 19.7589C127.697 20.5577 128.345 21.2053 129.143 21.2053Z" fill="white"/>
<path d="M144.56 21.2053C145.358 21.2053 146.006 20.5577 146.006 19.7589C146.006 18.9601 145.358 18.3125 144.56 18.3125C143.761 18.3125 143.113 18.9601 143.113 19.7589C143.113 20.5577 143.761 21.2053 144.56 21.2053Z" fill="white"/>
<path d="M159.976 21.2053C160.775 21.2053 161.422 20.5577 161.422 19.7589C161.422 18.9601 160.775 18.3125 159.976 18.3125C159.177 18.3125 158.53 18.9601 158.53 19.7589C158.53 20.5577 159.177 21.2053 159.976 21.2053Z" fill="white"/>
<path d="M1.44613 39.5178C2.24479 39.5178 2.89223 38.8703 2.89223 38.0714C2.89223 37.2726 2.24479 36.625 1.44613 36.625C0.64746 36.625 0 37.2726 0 38.0714C0 38.8703 0.64746 39.5178 1.44613 39.5178Z" fill="white"/>
<path d="M16.8631 39.5178C17.6618 39.5178 18.3092 38.8703 18.3092 38.0714C18.3092 37.2726 17.6618 36.625 16.8631 36.625C16.0644 36.625 15.417 37.2726 15.417 38.0714C15.417 38.8703 16.0644 39.5178 16.8631 39.5178Z" fill="white"/>
<path d="M32.2793 39.5178C33.078 39.5178 33.7254 38.8703 33.7254 38.0714C33.7254 37.2726 33.078 36.625 32.2793 36.625C31.4806 36.625 30.8332 37.2726 30.8332 38.0714C30.8332 38.8703 31.4806 39.5178 32.2793 39.5178Z" fill="white"/>
<path d="M47.6959 39.5178C48.4946 39.5178 49.142 38.8703 49.142 38.0714C49.142 37.2726 48.4946 36.625 47.6959 36.625C46.8973 36.625 46.2498 37.2726 46.2498 38.0714C46.2498 38.8703 46.8973 39.5178 47.6959 39.5178Z" fill="white"/>
<path d="M63.1121 39.5178C63.9108 39.5178 64.5582 38.8703 64.5582 38.0714C64.5582 37.2726 63.9108 36.625 63.1121 36.625C62.3135 36.625 61.666 37.2726 61.666 38.0714C61.666 38.8703 62.3135 39.5178 63.1121 39.5178Z" fill="white"/>
<path d="M78.5419 39.5178C79.3406 39.5178 79.9881 38.8703 79.9881 38.0714C79.9881 37.2726 79.3406 36.625 78.5419 36.625C77.7433 36.625 77.0958 37.2726 77.0958 38.0714C77.0958 38.8703 77.7433 39.5178 78.5419 39.5178Z" fill="white"/>
<path d="M93.9586 39.5178C94.7572 39.5178 95.4047 38.8703 95.4047 38.0714C95.4047 37.2726 94.7572 36.625 93.9586 36.625C93.1599 36.625 92.5125 37.2726 92.5125 38.0714C92.5125 38.8703 93.1599 39.5178 93.9586 39.5178Z" fill="white"/>
<path d="M109.375 39.5178C110.173 39.5178 110.821 38.8703 110.821 38.0714C110.821 37.2726 110.173 36.625 109.375 36.625C108.576 36.625 107.929 37.2726 107.929 38.0714C107.929 38.8703 108.576 39.5178 109.375 39.5178Z" fill="white"/>
<path d="M124.792 39.5178C125.59 39.5178 126.238 38.8703 126.238 38.0714C126.238 37.2726 125.59 36.625 124.792 36.625C123.993 36.625 123.346 37.2726 123.346 38.0714C123.346 38.8703 123.993 39.5178 124.792 39.5178Z" fill="white"/>
<path d="M140.209 39.5178C141.007 39.5178 141.655 38.8703 141.655 38.0714C141.655 37.2726 141.007 36.625 140.209 36.625C139.41 36.625 138.763 37.2726 138.763 38.0714C138.763 38.8703 139.41 39.5178 140.209 39.5178Z" fill="white"/>
<path d="M21.201 57.8303C21.9997 57.8303 22.6471 57.1827 22.6471 56.3839C22.6471 55.5851 21.9997 54.9375 21.201 54.9375C20.4023 54.9375 19.7549 55.5851 19.7549 56.3839C19.7549 57.1827 20.4023 57.8303 21.201 57.8303Z" fill="white"/>
<path d="M36.618 57.8303C37.4166 57.8303 38.0641 57.1827 38.0641 56.3839C38.0641 55.5851 37.4166 54.9375 36.618 54.9375C35.8193 54.9375 35.1719 55.5851 35.1719 56.3839C35.1719 57.1827 35.8193 57.8303 36.618 57.8303Z" fill="white"/>
<path d="M52.0467 57.8303C52.8454 57.8303 53.4928 57.1827 53.4928 56.3839C53.4928 55.5851 52.8454 54.9375 52.0467 54.9375C51.248 54.9375 50.6006 55.5851 50.6006 56.3839C50.6006 57.1827 51.248 57.8303 52.0467 57.8303Z" fill="white"/>
<path d="M67.4637 57.8303C68.2624 57.8303 68.9098 57.1827 68.9098 56.3839C68.9098 55.5851 68.2624 54.9375 67.4637 54.9375C66.665 54.9375 66.0176 55.5851 66.0176 56.3839C66.0176 57.1827 66.665 57.8303 67.4637 57.8303Z" fill="white"/>
<path d="M82.8807 57.8303C83.6793 57.8303 84.3268 57.1827 84.3268 56.3839C84.3268 55.5851 83.6793 54.9375 82.8807 54.9375C82.082 54.9375 81.4346 55.5851 81.4346 56.3839C81.4346 57.1827 82.082 57.8303 82.8807 57.8303Z" fill="white"/>
<path d="M98.2968 57.8303C99.0955 57.8303 99.7429 57.1827 99.7429 56.3839C99.7429 55.5851 99.0955 54.9375 98.2968 54.9375C97.4982 54.9375 96.8507 55.5851 96.8507 56.3839C96.8507 57.1827 97.4982 57.8303 98.2968 57.8303Z" fill="white"/>
<path d="M113.714 57.8303C114.512 57.8303 115.16 57.1827 115.16 56.3839C115.16 55.5851 114.512 54.9375 113.714 54.9375C112.915 54.9375 112.268 55.5851 112.268 56.3839C112.268 57.1827 112.915 57.8303 113.714 57.8303Z" fill="white"/>
<path d="M129.143 57.8303C129.942 57.8303 130.589 57.1827 130.589 56.3839C130.589 55.5851 129.942 54.9375 129.143 54.9375C128.345 54.9375 127.697 55.5851 127.697 56.3839C127.697 57.1827 128.345 57.8303 129.143 57.8303Z" fill="white"/>
<path d="M144.56 57.8303C145.358 57.8303 146.006 57.1827 146.006 56.3839C146.006 55.5851 145.358 54.9375 144.56 54.9375C143.761 54.9375 143.113 55.5851 143.113 56.3839C143.113 57.1827 143.761 57.8303 144.56 57.8303Z" fill="white"/>
<path d="M159.976 57.8303C160.775 57.8303 161.422 57.1827 161.422 56.3839C161.422 55.5851 160.775 54.9375 159.976 54.9375C159.177 54.9375 158.53 55.5851 158.53 56.3839C158.53 57.1827 159.177 57.8303 159.976 57.8303Z" fill="white"/>
</g>
</svg>
