<svg width="39" height="38" viewBox="0 0 39 38" fill="none" xmlns="http://www.w3.org/2000/svg">
<path d="M12.2196 18.2877H0V18.7642H12.2196V18.2877Z" fill="#FEDC65"/>
<path d="M21.1704 0L19.0503 11.7428L21.441 12.1554L23.5315 13.3332L25.0809 15.136L25.9073 17.3492V19.7027L25.0809 21.918L23.5315 23.7208L21.441 24.8986L19.0503 25.3111L21.1704 37.054L23.578 36.6393L21.5953 25.6659L27.3257 35.3522L29.8643 33.9228L24.8483 25.4431L32.5678 31.7632L34.7682 29.2055L28.1437 23.7827L36.3091 26.6828L37.6472 23.0958L30.8239 20.6742H38.127V16.3797H30.8239L37.6472 13.9561L36.3091 10.3711L28.1437 13.2712L34.7682 7.84851L32.5678 5.29077L24.8483 11.6088L29.8643 3.13321L27.3257 1.70171L21.5953 11.388L23.578 0.414599L21.1704 0Z" fill="#FEDC65"/>
<path d="M12.5036 20.4744L1.02126 24.5526L1.27205 25.2251L12.7544 21.1469L12.5036 20.4744Z" fill="#FEDC65"/>
<path d="M13.5057 22.4534L4.14493 30.1182L4.77264 30.8483L14.1334 23.1834L13.5057 22.4534Z" fill="#FEDC65"/>
<path d="M15.0045 23.9517L8.89472 34.2784L10.1651 34.9942L16.275 24.6674L15.0045 23.9517Z" fill="#FEDC65"/>
<path d="M16.911 24.9353L14.787 36.6781L16.7125 37.0097L18.8365 25.2669L16.911 24.9353Z" fill="#FEDC65"/>
<path d="M16.717 0.042735L14.7914 0.374052L16.9134 12.1173L18.8389 11.7859L16.717 0.042735Z" fill="#FEDC65"/>
<path d="M10.1651 2.05858L8.89472 2.77433L15.0045 13.1011L16.275 12.3854L10.1651 2.05858Z" fill="#FEDC65"/>
<path d="M4.77119 6.20534L4.14347 6.93534L13.5042 14.6001L14.132 13.8701L4.77119 6.20534Z" fill="#FEDC65"/>
<path d="M1.27205 11.8288L1.02126 12.5012L12.5036 16.5794L12.7544 15.9071L1.27205 11.8288Z" fill="#FEDC65"/>
</svg>
