<svg width="287" height="50" viewBox="0 0 287 50" fill="none" xmlns="http://www.w3.org/2000/svg">
<path d="M66.1533 12.6542C66.1533 11.2012 66.4881 9.89767 67.1576 8.74376C67.8414 7.58986 68.7603 6.69237 69.9142 6.05132C71.0823 5.39601 72.3573 5.06836 73.7392 5.06836C75.3205 5.06836 76.7237 5.46012 77.9488 6.24363C79.1882 7.0129 80.0857 8.10983 80.6412 9.5344H77.7137C77.3291 8.75089 76.7949 8.16681 76.1111 7.78217C75.4273 7.39754 74.6367 7.20522 73.7392 7.20522C72.7562 7.20522 71.8801 7.42603 71.1108 7.86765C70.3416 8.30927 69.7361 8.9432 69.2945 9.76946C68.8671 10.5957 68.6534 11.5573 68.6534 12.6542C68.6534 13.7511 68.8671 14.7127 69.2945 15.539C69.7361 16.3652 70.3416 17.0063 71.1108 17.4622C71.8801 17.9038 72.7562 18.1246 73.7392 18.1246C74.6367 18.1246 75.4273 17.9323 76.1111 17.5476C76.7949 17.163 77.3291 16.5789 77.7137 15.7954H80.6412C80.0857 17.22 79.1882 18.3169 77.9488 19.0862C76.7237 19.8554 75.3205 20.2401 73.7392 20.2401C72.3431 20.2401 71.0681 19.9195 69.9142 19.2785C68.7603 18.6232 67.8414 17.7186 67.1576 16.5647C66.4881 15.4108 66.1533 14.1073 66.1533 12.6542Z" fill="white"/>
<path d="M85.9286 18.146H90.9503V20.1119H83.4926V5.26068H85.9286V18.146Z" fill="white"/>
<path d="M95.4235 5.26068V20.1119H92.9875V5.26068H95.4235Z" fill="white"/>
<path d="M114.264 5.26068V20.1119H111.828V9.9404L107.297 20.1119H105.609L101.058 9.9404V20.1119H98.6218V5.26068H101.25L106.464 16.9066L111.657 5.26068H114.264Z" fill="white"/>
<path d="M126.419 17.0775H120.201L119.132 20.1119H116.589L121.91 5.23931H124.731L130.051 20.1119H127.487L126.419 17.0775ZM125.735 15.0902L123.32 8.18818L120.884 15.0902H125.735Z" fill="white"/>
<path d="M141.959 5.26068V7.24796H138.006V20.1119H135.57V7.24796H131.596V5.26068H141.959Z" fill="white"/>
<path d="M146.863 7.22659V11.5858H151.991V13.5731H146.863V18.1246H152.632V20.1119H144.427V5.23931H152.632V7.22659H146.863Z" fill="white"/>
<path d="M166.034 5.26068C167.615 5.26068 168.997 5.56696 170.18 6.17953C171.376 6.77785 172.295 7.64684 172.936 8.7865C173.591 9.91191 173.919 11.2296 173.919 12.7397C173.919 14.2497 173.591 15.5604 172.936 16.6715C172.295 17.7827 171.376 18.6374 170.18 19.2358C168.997 19.8198 167.615 20.1119 166.034 20.1119H161.183V5.26068H166.034ZM166.034 18.1246C167.772 18.1246 169.104 17.6545 170.03 16.7143C170.956 15.774 171.419 14.4492 171.419 12.7397C171.419 11.016 170.956 9.66974 170.03 8.70102C169.104 7.73231 167.772 7.24796 166.034 7.24796H163.619V18.1246H166.034Z" fill="white"/>
<path d="M178.769 5.26068V20.1119H176.333V5.26068H178.769Z" fill="white"/>
<path d="M186.861 20.2614C185.864 20.2614 184.966 20.0905 184.169 19.7486C183.371 19.3925 182.744 18.8939 182.288 18.2528C181.832 17.6117 181.604 16.8638 181.604 16.0091H184.211C184.268 16.6502 184.518 17.1772 184.959 17.5904C185.415 18.0035 186.049 18.2101 186.861 18.2101C187.702 18.2101 188.357 18.0106 188.827 17.6117C189.297 17.1986 189.532 16.6715 189.532 16.0305C189.532 15.5319 189.383 15.1259 189.083 14.8124C188.799 14.499 188.435 14.2569 187.994 14.0859C187.566 13.915 186.968 13.7298 186.199 13.5303C185.23 13.2739 184.439 13.0175 183.827 12.7611C183.228 12.4904 182.716 12.0773 182.288 11.5217C181.861 10.9661 181.647 10.2253 181.647 9.29935C181.647 8.4446 181.861 7.6967 182.288 7.05564C182.716 6.41458 183.314 5.9231 184.083 5.58121C184.852 5.23931 185.743 5.06836 186.754 5.06836C188.193 5.06836 189.368 5.43163 190.28 6.15816C191.206 6.87045 191.719 7.8534 191.819 9.10703H189.126C189.083 8.56569 188.827 8.1027 188.357 7.71807C187.887 7.33343 187.267 7.14112 186.498 7.14112C185.8 7.14112 185.23 7.31919 184.788 7.67533C184.347 8.03147 184.126 8.54432 184.126 9.21387C184.126 9.66974 184.261 10.0472 184.532 10.3464C184.817 10.6313 185.173 10.8593 185.6 11.0302C186.028 11.2012 186.612 11.3863 187.353 11.5858C188.336 11.8565 189.133 12.1271 189.746 12.3978C190.373 12.6685 190.9 13.0887 191.327 13.6585C191.769 14.2141 191.99 14.962 191.99 15.9022C191.99 16.6573 191.783 17.3696 191.37 18.0391C190.971 18.7087 190.38 19.25 189.596 19.6631C188.827 20.062 187.915 20.2614 186.861 20.2614Z" fill="white"/>
<path d="M194.052 12.6542C194.052 11.2012 194.387 9.89767 195.056 8.74376C195.74 7.58986 196.659 6.69237 197.813 6.05132C198.981 5.39601 200.256 5.06836 201.638 5.06836C203.219 5.06836 204.622 5.46012 205.847 6.24363C207.087 7.0129 207.984 8.10983 208.54 9.5344H205.612C205.228 8.75089 204.694 8.16681 204.01 7.78217C203.326 7.39754 202.535 7.20522 201.638 7.20522C200.655 7.20522 199.779 7.42603 199.01 7.86765C198.24 8.30927 197.635 8.9432 197.193 9.76946C196.766 10.5957 196.552 11.5573 196.552 12.6542C196.552 13.7511 196.766 14.7127 197.193 15.539C197.635 16.3652 198.24 17.0063 199.01 17.4622C199.779 17.9038 200.655 18.1246 201.638 18.1246C202.535 18.1246 203.326 17.9323 204.01 17.5476C204.694 17.163 205.228 16.5789 205.612 15.7954H208.54C207.984 17.22 207.087 18.3169 205.847 19.0862C204.622 19.8554 203.219 20.2401 201.638 20.2401C200.242 20.2401 198.967 19.9195 197.813 19.2785C196.659 18.6232 195.74 17.7186 195.056 16.5647C194.387 15.4108 194.052 14.1073 194.052 12.6542Z" fill="white"/>
<path d="M213.827 18.146H218.849V20.1119H211.391V5.26068H213.827V18.146Z" fill="white"/>
<path d="M227.66 20.2614C226.278 20.2614 225.003 19.9409 223.835 19.2999C222.681 18.6446 221.762 17.74 221.078 16.586C220.409 15.4179 220.074 14.1073 220.074 12.6542C220.074 11.2012 220.409 9.89767 221.078 8.74376C221.762 7.58986 222.681 6.69237 223.835 6.05132C225.003 5.39601 226.278 5.06836 227.66 5.06836C229.056 5.06836 230.331 5.39601 231.485 6.05132C232.653 6.69237 233.572 7.58986 234.242 8.74376C234.911 9.89767 235.246 11.2012 235.246 12.6542C235.246 14.1073 234.911 15.4179 234.242 16.586C233.572 17.74 232.653 18.6446 231.485 19.2999C230.331 19.9409 229.056 20.2614 227.66 20.2614ZM227.66 18.146C228.643 18.146 229.519 17.9251 230.288 17.4835C231.058 17.0277 231.656 16.3866 232.083 15.5604C232.525 14.7199 232.746 13.7511 232.746 12.6542C232.746 11.5573 232.525 10.5957 232.083 9.76946C231.656 8.9432 231.058 8.30927 230.288 7.86765C229.519 7.42603 228.643 7.20522 227.66 7.20522C226.677 7.20522 225.801 7.42603 225.032 7.86765C224.262 8.30927 223.657 8.9432 223.215 9.76946C222.788 10.5957 222.574 11.5573 222.574 12.6542C222.574 13.7511 222.788 14.7199 223.215 15.5604C223.657 16.3866 224.262 17.0277 225.032 17.4835C225.801 17.9251 226.677 18.146 227.66 18.146Z" fill="white"/>
<path d="M242.536 20.2614C241.539 20.2614 240.642 20.0905 239.844 19.7486C239.046 19.3925 238.419 18.8939 237.964 18.2528C237.508 17.6117 237.28 16.8638 237.28 16.0091H239.887C239.944 16.6502 240.193 17.1772 240.635 17.5904C241.09 18.0035 241.724 18.2101 242.536 18.2101C243.377 18.2101 244.032 18.0106 244.502 17.6117C244.972 17.1986 245.207 16.6715 245.207 16.0305C245.207 15.5319 245.058 15.1259 244.759 14.8124C244.474 14.499 244.111 14.2569 243.669 14.0859C243.242 13.915 242.643 13.7298 241.874 13.5303C240.905 13.2739 240.115 13.0175 239.502 12.7611C238.904 12.4904 238.391 12.0773 237.964 11.5217C237.536 10.9661 237.322 10.2253 237.322 9.29935C237.322 8.4446 237.536 7.6967 237.964 7.05564C238.391 6.41458 238.989 5.9231 239.758 5.58121C240.528 5.23931 241.418 5.06836 242.43 5.06836C243.868 5.06836 245.044 5.43163 245.955 6.15816C246.881 6.87045 247.394 7.8534 247.494 9.10703H244.801C244.759 8.56569 244.502 8.1027 244.032 7.71807C243.562 7.33343 242.942 7.14112 242.173 7.14112C241.475 7.14112 240.905 7.31919 240.464 7.67533C240.022 8.03147 239.801 8.54432 239.801 9.21387C239.801 9.66974 239.937 10.0472 240.207 10.3464C240.492 10.6313 240.848 10.8593 241.276 11.0302C241.703 11.2012 242.287 11.3863 243.028 11.5858C244.011 11.8565 244.809 12.1271 245.421 12.3978C246.048 12.6685 246.575 13.0887 247.002 13.6585C247.444 14.2141 247.665 14.962 247.665 15.9022C247.665 16.6573 247.458 17.3696 247.045 18.0391C246.646 18.7087 246.055 19.25 245.272 19.6631C244.502 20.062 243.591 20.2614 242.536 20.2614Z" fill="white"/>
<path d="M252.954 5.26068V14.727C252.954 15.8524 253.246 16.7 253.83 17.2698C254.428 17.8397 255.255 18.1246 256.309 18.1246C257.377 18.1246 258.203 17.8397 258.788 17.2698C259.386 16.7 259.685 15.8524 259.685 14.727V5.26068H262.121V14.6842C262.121 15.8951 261.858 16.9208 261.33 17.7613C260.803 18.6018 260.098 19.2286 259.215 19.6418C258.332 20.0549 257.356 20.2614 256.287 20.2614C255.219 20.2614 254.243 20.0549 253.36 19.6418C252.491 19.2286 251.8 18.6018 251.287 17.7613C250.774 16.9208 250.518 15.8951 250.518 14.6842V5.26068H252.954Z" fill="white"/>
<path d="M273.007 20.1119L269.588 14.1714H267.729V20.1119H265.293V5.26068H270.421C271.561 5.26068 272.523 5.46012 273.306 5.859C274.104 6.25788 274.695 6.79209 275.08 7.46165C275.479 8.1312 275.678 8.8791 275.678 9.70535C275.678 10.6741 275.393 11.5573 274.823 12.3551C274.268 13.1386 273.406 13.6728 272.238 13.9577L275.913 20.1119H273.007ZM267.729 12.2268H270.421C271.333 12.2268 272.017 11.9989 272.473 11.5431C272.943 11.0872 273.178 10.4746 273.178 9.70535C273.178 8.93608 272.95 8.33776 272.494 7.91039C272.038 7.46877 271.347 7.24796 270.421 7.24796H267.729V12.2268Z" fill="white"/>
<path d="M281.23 7.22659V11.5858H286.359V13.5731H281.23V18.1246H287V20.1119H278.794V5.23931H287V7.22659H281.23Z" fill="white"/>
<path d="M72.8708 34.6629C72.8708 35.4648 72.5942 36.1331 72.0412 36.6678C71.4973 37.1932 70.6631 37.4559 69.5385 37.4559H67.6857V41.4795H66.4275V31.8422H69.5385C70.6262 31.8422 71.4512 32.1049 72.0135 32.6303C72.585 33.1558 72.8708 33.8333 72.8708 34.6629ZM69.5385 36.4189C70.2391 36.4189 70.7553 36.2668 71.0871 35.9626C71.4189 35.6584 71.5849 35.2252 71.5849 34.6629C71.5849 33.4738 70.9027 32.8792 69.5385 32.8792H67.6857V36.4189H69.5385Z" fill="white"/>
<path d="M79.0804 41.5762C78.1862 41.5762 77.3705 41.3688 76.633 40.954C75.8956 40.53 75.3103 39.9447 74.877 39.198C74.453 38.4422 74.241 37.5941 74.241 36.6539C74.241 35.7137 74.453 34.8703 74.877 34.1236C75.3103 33.3678 75.8956 32.7824 76.633 32.3676C77.3705 31.9436 78.1862 31.7316 79.0804 31.7316C79.9837 31.7316 80.8041 31.9436 81.5415 32.3676C82.279 32.7824 82.8597 33.3632 83.2837 34.1098C83.7077 34.8564 83.9197 35.7045 83.9197 36.6539C83.9197 37.6034 83.7077 38.4514 83.2837 39.198C82.8597 39.9447 82.279 40.53 81.5415 40.954C80.8041 41.3688 79.9837 41.5762 79.0804 41.5762ZM79.0804 40.4839C79.7533 40.4839 80.357 40.3272 80.8917 40.0138C81.4355 39.7004 81.8595 39.2534 82.1637 38.6726C82.4771 38.0919 82.6338 37.419 82.6338 36.6539C82.6338 35.8796 82.4771 35.2067 82.1637 34.6352C81.8595 34.0545 81.4401 33.6074 80.9055 33.294C80.3709 32.9806 79.7625 32.8239 79.0804 32.8239C78.3983 32.8239 77.7899 32.9806 77.2552 33.294C76.7206 33.6074 76.2966 34.0545 75.9832 34.6352C75.679 35.2067 75.5269 35.8796 75.5269 36.6539C75.5269 37.419 75.679 38.0919 75.9832 38.6726C76.2966 39.2534 76.7206 39.7004 77.2552 40.0138C77.7991 40.3272 78.4075 40.4839 79.0804 40.4839Z" fill="white"/>
<path d="M97.9696 31.8422L95.1765 41.4795H93.7662L91.5263 33.7227L89.2034 41.4795L87.8069 41.4933L85.1107 31.8422H86.4519L88.5535 40.0138L90.8764 31.8422H92.2868L94.499 39.9862L96.6145 31.8422H97.9696Z" fill="white"/>
<path d="M100.881 32.8654V36.087H104.393V37.124H100.881V40.4425H104.808V41.4795H99.623V31.8284H104.808V32.8654H100.881Z" fill="white"/>
<path d="M112.063 41.4795L109.768 37.5388H108.247V41.4795H106.988V31.8422H110.1C110.828 31.8422 111.441 31.9667 111.938 32.2155C112.445 32.4644 112.823 32.8009 113.072 33.2249C113.321 33.6489 113.446 34.1328 113.446 34.6767C113.446 35.3404 113.252 35.9257 112.865 36.4327C112.487 36.9397 111.915 37.2761 111.15 37.442L113.57 41.4795H112.063ZM108.247 36.5295H110.1C110.782 36.5295 111.293 36.3636 111.634 36.0317C111.975 35.6907 112.146 35.239 112.146 34.6767C112.146 34.1052 111.975 33.6627 111.634 33.3493C111.302 33.0359 110.791 32.8792 110.1 32.8792H108.247V36.5295Z" fill="white"/>
<path d="M116.935 32.8654V36.087H120.447V37.124H116.935V40.4425H120.862V41.4795H115.677V31.8284H120.862V32.8654H116.935Z" fill="white"/>
<path d="M126.043 31.8422C127.094 31.8422 128.002 32.0404 128.767 32.4368C129.541 32.8239 130.131 33.3816 130.537 34.1098C130.952 34.838 131.159 35.6953 131.159 36.6816C131.159 37.6679 130.952 38.5251 130.537 39.2534C130.131 39.9723 129.541 40.5254 128.767 40.9126C128.002 41.2905 127.094 41.4795 126.043 41.4795H123.043V31.8422H126.043ZM126.043 40.4425C127.287 40.4425 128.237 40.1152 128.891 39.4608C129.546 38.7971 129.873 37.8707 129.873 36.6816C129.873 35.4833 129.541 34.5476 128.878 33.8747C128.223 33.2018 127.278 32.8654 126.043 32.8654H124.301V40.4425H126.043Z" fill="white"/>
<path d="M141.883 36.5157C142.234 36.571 142.552 36.7138 142.837 36.9443C143.132 37.1747 143.363 37.4605 143.529 37.8015C143.704 38.1426 143.792 38.5067 143.792 38.8939C143.792 39.3824 143.667 39.8249 143.418 40.2212C143.169 40.6084 142.805 40.9172 142.326 41.1476C141.856 41.3688 141.298 41.4795 140.653 41.4795H137.058V31.8422H140.515C141.169 31.8422 141.727 31.9528 142.188 32.1741C142.649 32.3861 142.994 32.6764 143.225 33.0451C143.455 33.4139 143.57 33.8287 143.57 34.2895C143.57 34.8611 143.414 35.3358 143.1 35.7137C142.796 36.0824 142.39 36.3497 141.883 36.5157ZM138.316 36.0041H140.432C141.022 36.0041 141.478 35.8658 141.8 35.5893C142.123 35.3127 142.284 34.9302 142.284 34.4416C142.284 33.9531 142.123 33.5706 141.8 33.294C141.478 33.0175 141.012 32.8792 140.404 32.8792H138.316V36.0041ZM140.542 40.4425C141.169 40.4425 141.658 40.295 142.008 40C142.358 39.705 142.533 39.2948 142.533 38.7694C142.533 38.2348 142.349 37.8154 141.98 37.5112C141.611 37.1978 141.118 37.0411 140.501 37.0411H138.316V40.4425H140.542Z" fill="white"/>
<path d="M152.562 31.8422L149.423 37.843V41.4795H148.165V37.843L145.012 31.8422H146.409L148.787 36.7231L151.165 31.8422H152.562Z" fill="white"/>
<path d="M167.904 31.9113V41.4795H166.645V34.3449L163.465 41.4795H162.58L159.386 34.331V41.4795H158.128V31.9113H159.483L163.023 39.8203L166.562 31.9113H167.904Z" fill="white"/>
<path d="M176.011 39.3363H171.807L171.033 41.4795H169.706L173.19 31.8975H174.642L178.112 41.4795H176.785L176.011 39.3363ZM175.651 38.3131L173.909 33.4461L172.167 38.3131H175.651Z" fill="white"/>
<path d="M187.484 41.4795H186.226L181.166 33.8056V41.4795H179.907V31.8284H181.166L186.226 39.4884V31.8284H187.484V41.4795Z" fill="white"/>
<path d="M191.164 31.8422V41.4795H189.906V31.8422H191.164Z" fill="white"/>
<path d="M199.033 31.8422V32.8654H194.843V36.1147H198.245V37.1379H194.843V41.4795H193.585V31.8422H199.033Z" fill="white"/>
<path d="M202.087 32.8654V36.087H205.599V37.124H202.087V40.4425H206.014V41.4795H200.829V31.8284H206.014V32.8654H202.087Z" fill="white"/>
<path d="M211.25 41.5762C210.614 41.5762 210.043 41.4656 209.536 41.2444C209.038 41.014 208.646 40.7006 208.36 40.3042C208.075 39.8986 207.927 39.4331 207.918 38.9077H209.259C209.305 39.3594 209.489 39.7419 209.812 40.0553C210.144 40.3595 210.623 40.5116 211.25 40.5116C211.849 40.5116 212.319 40.3641 212.66 40.0691C213.011 39.7649 213.186 39.3778 213.186 38.9077C213.186 38.539 213.084 38.2394 212.882 38.0089C212.679 37.7785 212.425 37.6034 212.121 37.4835C211.817 37.3637 211.407 37.2346 210.891 37.0964C210.255 36.9305 209.743 36.7645 209.356 36.5986C208.978 36.4327 208.651 36.1746 208.374 35.8243C208.107 35.4648 207.973 34.9855 207.973 34.3863C207.973 33.8609 208.107 33.3954 208.374 32.9898C208.641 32.5842 209.015 32.2708 209.494 32.0496C209.983 31.8284 210.54 31.7178 211.167 31.7178C212.07 31.7178 212.808 31.9436 213.379 32.3953C213.96 32.847 214.287 33.4461 214.361 34.1928H212.978C212.932 33.824 212.739 33.5014 212.398 33.2249C212.057 32.9391 211.605 32.7963 211.043 32.7963C210.517 32.7963 210.089 32.9345 209.757 33.2111C209.425 33.4784 209.259 33.8563 209.259 34.3449C209.259 34.6951 209.356 34.9809 209.549 35.2021C209.752 35.4233 209.996 35.5939 210.282 35.7137C210.577 35.8243 210.987 35.9534 211.513 36.1009C212.149 36.276 212.66 36.4511 213.048 36.6263C213.435 36.7922 213.767 37.0549 214.043 37.4144C214.32 37.7647 214.458 38.244 214.458 38.8524C214.458 39.3225 214.333 39.7649 214.085 40.1797C213.836 40.5945 213.467 40.931 212.978 41.1891C212.49 41.4472 211.914 41.5762 211.25 41.5762Z" fill="white"/>
<path d="M222.518 31.8422V32.8654H219.891V41.4795H218.632V32.8654H215.991V31.8422H222.518Z" fill="white"/>
<path d="M227.836 36.6539C227.836 35.7137 228.048 34.8703 228.472 34.1236C228.896 33.3678 229.472 32.7778 230.2 32.3538C230.938 31.9298 231.753 31.7178 232.647 31.7178C233.698 31.7178 234.615 31.9713 235.399 32.4782C236.182 32.9852 236.754 33.7042 237.113 34.6352H235.606C235.339 34.0545 234.952 33.6074 234.445 33.294C233.947 32.9806 233.348 32.8239 232.647 32.8239C231.974 32.8239 231.371 32.9806 230.836 33.294C230.301 33.6074 229.882 34.0545 229.578 34.6352C229.274 35.2067 229.122 35.8796 229.122 36.6539C229.122 37.419 229.274 38.0919 229.578 38.6726C229.882 39.2441 230.301 39.6866 230.836 40C231.371 40.3134 231.974 40.4701 232.647 40.4701C233.348 40.4701 233.947 40.318 234.445 40.0138C234.952 39.7004 235.339 39.2534 235.606 38.6726H237.113C236.754 39.5944 236.182 40.3088 235.399 40.8158C234.615 41.3135 233.698 41.5624 232.647 41.5624C231.753 41.5624 230.938 41.355 230.2 40.9402C229.472 40.5162 228.896 39.9309 228.472 39.1842C228.048 38.4376 227.836 37.5941 227.836 36.6539Z" fill="white"/>
<path d="M240.521 40.4563H243.895V41.4795H239.263V31.8422H240.521V40.4563Z" fill="white"/>
<path d="M246.766 31.8422V41.4795H245.508V31.8422H246.766Z" fill="white"/>
<path d="M258.962 31.9113V41.4795H257.704V34.3449L254.524 41.4795H253.639L250.445 34.331V41.4795H249.187V31.9113H250.542L254.082 39.8203L257.621 31.9113H258.962Z" fill="white"/>
<path d="M267.069 39.3363H262.866L262.092 41.4795H260.764L264.249 31.8975H265.701L269.171 41.4795H267.844L267.069 39.3363ZM266.71 38.3131L264.968 33.4461L263.226 38.3131H266.71Z" fill="white"/>
<path d="M276.898 31.8422V32.8654H274.271V41.4795H273.013V32.8654H270.372V31.8422H276.898Z" fill="white"/>
<path d="M279.981 32.8654V36.087H283.493V37.124H279.981V40.4425H283.908V41.4795H278.723V31.8284H283.908V32.8654H279.981Z" fill="white"/>
<path d="M16.388 24.526H0V25.165H16.388V24.526Z" fill="#FEDC65"/>
<path d="M28.3921 0L25.5488 15.7486L28.755 16.3018L31.5586 17.8814L33.6365 20.2992L34.7449 23.2674V26.4237L33.6365 29.3948L31.5586 31.8125L28.755 33.3921L25.5488 33.9453L28.3921 49.6939L31.621 49.1378L28.9619 34.4211L36.6471 47.4117L40.0516 45.4946L33.3246 34.1223L43.6774 42.5983L46.6284 39.1681L37.7441 31.8955L48.695 35.7849L50.4894 30.9743L41.3386 27.7266H51.133V21.9672H41.3386L50.4894 18.7168L48.695 13.909L37.7441 17.7983L46.6284 10.5258L43.6774 7.09557L33.3246 15.5688L40.0516 4.20201L36.6471 2.2822L28.9619 15.2727L31.621 0.556027L28.3921 0Z" fill="#FEDC65"/>
<path d="M16.7688 27.4587L1.36963 32.9281L1.70598 33.8299L17.1052 28.3605L16.7688 27.4587Z" fill="#FEDC65"/>
<path d="M18.1128 30.1127L5.55885 40.3922L6.40069 41.3713L18.9546 31.0918L18.1128 30.1127Z" fill="#FEDC65"/>
<path d="M20.1229 32.1221L11.9289 45.9716L13.6327 46.9314L21.8268 33.082L20.1229 32.1221Z" fill="#FEDC65"/>
<path d="M22.6798 33.4413L19.8312 49.1898L22.4135 49.6346L25.262 33.886L22.6798 33.4413Z" fill="#FEDC65"/>
<path d="M22.4195 0.0573128L19.8371 0.501649L22.6829 16.2507L25.2652 15.8064L22.4195 0.0573128Z" fill="#FEDC65"/>
<path d="M13.6327 2.76081L11.9289 3.72071L20.1229 17.5702L21.8268 16.6103L13.6327 2.76081Z" fill="#FEDC65"/>
<path d="M6.39875 8.32211L5.55689 9.30114L18.1108 19.5806L18.9527 18.6015L6.39875 8.32211Z" fill="#FEDC65"/>
<path d="M1.70598 15.8639L1.36963 16.7657L16.7688 22.235L17.1052 21.3333L1.70598 15.8639Z" fill="#FEDC65"/>
</svg>
