<svg width="214" height="38" viewBox="0 0 214 38" fill="none" xmlns="http://www.w3.org/2000/svg">
<path d="M49.327 9.43565C49.327 8.35218 49.5766 7.38024 50.0759 6.51984C50.5858 5.65944 51.2709 4.99024 52.1313 4.51223C53.0023 4.02361 53.953 3.7793 54.9834 3.7793C56.1625 3.7793 57.2087 4.07141 58.1223 4.65563C59.0464 5.22924 59.7156 6.04715 60.1299 7.10938H57.947C57.6602 6.52515 57.2619 6.08964 56.752 5.80284C56.2421 5.51604 55.6526 5.37264 54.9834 5.37264C54.2504 5.37264 53.5972 5.53728 53.0236 5.86657C52.45 6.19586 51.9985 6.66855 51.6692 7.28464C51.3506 7.90074 51.1912 8.61774 51.1912 9.43565C51.1912 10.2536 51.3506 10.9706 51.6692 11.5867C51.9985 12.2028 52.45 12.6808 53.0236 13.0207C53.5972 13.35 54.2504 13.5146 54.9834 13.5146C55.6526 13.5146 56.2421 13.3712 56.752 13.0844C57.2619 12.7976 57.6602 12.3621 57.947 11.7779H60.1299C59.7156 12.8401 59.0464 13.658 58.1223 14.2316C57.2087 14.8052 56.1625 15.092 54.9834 15.092C53.9424 15.092 52.9917 14.853 52.1313 14.375C51.2709 13.8864 50.5858 13.2119 50.0759 12.3515C49.5766 11.4911 49.327 10.5191 49.327 9.43565Z" fill="white"/>
<path d="M64.0724 13.5305H67.8167V14.9964H62.256V3.9227H64.0724V13.5305Z" fill="white"/>
<path d="M71.1522 3.9227V14.9964H69.3358V3.9227H71.1522Z" fill="white"/>
<path d="M85.2002 3.9227V14.9964H83.3838V7.41211L80.0059 14.9964H78.7472L75.3534 7.41211V14.9964H73.5369V3.9227H75.4968L79.3845 12.6064L83.2563 3.9227H85.2002Z" fill="white"/>
<path d="M94.2637 12.7339H89.6271L88.8304 14.9964H86.9343L90.9017 3.90676H93.0049L96.9724 14.9964H95.0603L94.2637 12.7339ZM93.7538 11.2521L91.9533 6.10557L90.1369 11.2521H93.7538Z" fill="white"/>
<path d="M105.851 3.9227V5.4045H102.904V14.9964H101.087V5.4045H98.1238V3.9227H105.851Z" fill="white"/>
<path d="M109.507 5.38857V8.63898H113.331V10.1208H109.507V13.5146H113.809V14.9964H107.691V3.90676H113.809V5.38857H109.507Z" fill="white"/>
<path d="M123.803 3.9227C124.982 3.9227 126.012 4.15108 126.894 4.60783C127.786 5.05397 128.471 5.70193 128.949 6.55171C129.438 7.39087 129.682 8.37343 129.682 9.49939C129.682 10.6253 129.438 11.6026 128.949 12.4311C128.471 13.2597 127.786 13.897 126.894 14.3431C126.012 14.7787 124.982 14.9964 123.803 14.9964H120.186V3.9227H123.803ZM123.803 13.5146C125.098 13.5146 126.092 13.1641 126.782 12.463C127.473 11.7619 127.818 10.7741 127.818 9.49939C127.818 8.21409 127.473 7.21029 126.782 6.48797C126.092 5.76566 125.098 5.4045 123.803 5.4045H122.002V13.5146H123.803Z" fill="white"/>
<path d="M133.299 3.9227V14.9964H131.482V3.9227H133.299Z" fill="white"/>
<path d="M139.332 15.1079C138.589 15.1079 137.919 14.9805 137.325 14.7255C136.73 14.46 136.262 14.0882 135.922 13.6102C135.582 13.1322 135.413 12.5745 135.413 11.9372H137.356C137.399 12.4152 137.585 12.8082 137.914 13.1163C138.254 13.4243 138.727 13.5783 139.332 13.5783C139.959 13.5783 140.447 13.4296 140.798 13.1322C141.149 12.8242 141.324 12.4311 141.324 11.9531C141.324 11.5813 141.212 11.2786 140.989 11.0449C140.777 10.8112 140.506 10.6307 140.177 10.5032C139.858 10.3757 139.412 10.2376 138.838 10.0889C138.116 9.89772 137.526 9.70652 137.07 9.51532C136.623 9.3135 136.241 9.00545 135.922 8.59118C135.604 8.17691 135.444 7.62456 135.444 6.93411C135.444 6.29677 135.604 5.7391 135.922 5.2611C136.241 4.7831 136.687 4.41663 137.261 4.1617C137.834 3.90676 138.498 3.7793 139.252 3.7793C140.325 3.7793 141.202 4.05016 141.881 4.5919C142.572 5.12301 142.954 5.85595 143.029 6.79071H141.021C140.989 6.38706 140.798 6.04184 140.447 5.75504C140.097 5.46824 139.635 5.32484 139.061 5.32484C138.541 5.32484 138.116 5.45761 137.787 5.72317C137.457 5.98873 137.293 6.37113 137.293 6.87038C137.293 7.21029 137.394 7.49178 137.595 7.71485C137.808 7.92729 138.073 8.09725 138.392 8.22471C138.711 8.35218 139.146 8.49027 139.699 8.63898C140.432 8.84081 141.026 9.04263 141.483 9.24445C141.951 9.44627 142.344 9.75963 142.662 10.1845C142.992 10.5988 143.156 11.1565 143.156 11.8575C143.156 12.4205 143.002 12.9516 142.694 13.4509C142.397 13.9501 141.956 14.3538 141.372 14.6618C140.798 14.9592 140.118 15.1079 139.332 15.1079Z" fill="white"/>
<path d="M144.694 9.43565C144.694 8.35218 144.944 7.38024 145.443 6.51984C145.953 5.65944 146.638 4.99024 147.498 4.51223C148.369 4.02361 149.32 3.7793 150.35 3.7793C151.529 3.7793 152.576 4.07141 153.489 4.65563C154.413 5.22924 155.083 6.04715 155.497 7.10938H153.314C153.027 6.52515 152.629 6.08964 152.119 5.80284C151.609 5.51604 151.02 5.37264 150.35 5.37264C149.617 5.37264 148.964 5.53728 148.391 5.86657C147.817 6.19586 147.365 6.66855 147.036 7.28464C146.718 7.90074 146.558 8.61774 146.558 9.43565C146.558 10.2536 146.718 10.9706 147.036 11.5867C147.365 12.2028 147.817 12.6808 148.391 13.0207C148.964 13.35 149.617 13.5146 150.35 13.5146C151.02 13.5146 151.609 13.3712 152.119 13.0844C152.629 12.7976 153.027 12.3621 153.314 11.7779H155.497C155.083 12.8401 154.413 13.658 153.489 14.2316C152.576 14.8052 151.529 15.092 150.35 15.092C149.309 15.092 148.359 14.853 147.498 14.375C146.638 13.8864 145.953 13.2119 145.443 12.3515C144.944 11.4911 144.694 10.5191 144.694 9.43565Z" fill="white"/>
<path d="M159.439 13.5305H163.184V14.9964H157.623V3.9227H159.439V13.5305Z" fill="white"/>
<path d="M169.754 15.1079C168.723 15.1079 167.773 14.8689 166.902 14.3909C166.041 13.9023 165.356 13.2278 164.846 12.3674C164.347 11.4964 164.097 10.5191 164.097 9.43565C164.097 8.35218 164.347 7.38024 164.846 6.51984C165.356 5.65944 166.041 4.99024 166.902 4.51223C167.773 4.02361 168.723 3.7793 169.754 3.7793C170.795 3.7793 171.745 4.02361 172.606 4.51223C173.477 4.99024 174.162 5.65944 174.661 6.51984C175.16 7.38024 175.41 8.35218 175.41 9.43565C175.41 10.5191 175.16 11.4964 174.661 12.3674C174.162 13.2278 173.477 13.9023 172.606 14.3909C171.745 14.8689 170.795 15.1079 169.754 15.1079ZM169.754 13.5305C170.487 13.5305 171.14 13.3659 171.713 13.0366C172.287 12.6967 172.733 12.2187 173.052 11.6026C173.381 10.9759 173.546 10.2536 173.546 9.43565C173.546 8.61774 173.381 7.90074 173.052 7.28464C172.733 6.66855 172.287 6.19586 171.713 5.86657C171.14 5.53728 170.487 5.37264 169.754 5.37264C169.021 5.37264 168.367 5.53728 167.794 5.86657C167.22 6.19586 166.769 6.66855 166.439 7.28464C166.121 7.90074 165.961 8.61774 165.961 9.43565C165.961 10.2536 166.121 10.9759 166.439 11.6026C166.769 12.2187 167.22 12.6967 167.794 13.0366C168.367 13.3659 169.021 13.5305 169.754 13.5305Z" fill="white"/>
<path d="M180.846 15.1079C180.103 15.1079 179.433 14.9805 178.839 14.7255C178.244 14.46 177.776 14.0882 177.436 13.6102C177.096 13.1322 176.926 12.5745 176.926 11.9372H178.87C178.913 12.4152 179.099 12.8082 179.428 13.1163C179.768 13.4243 180.241 13.5783 180.846 13.5783C181.473 13.5783 181.961 13.4296 182.312 13.1322C182.663 12.8242 182.838 12.4311 182.838 11.9531C182.838 11.5813 182.726 11.2786 182.503 11.0449C182.291 10.8112 182.02 10.6307 181.691 10.5032C181.372 10.3757 180.926 10.2376 180.352 10.0889C179.63 9.89772 179.04 9.70652 178.584 9.51532C178.137 9.3135 177.755 9.00545 177.436 8.59118C177.118 8.17691 176.958 7.62456 176.958 6.93411C176.958 6.29677 177.118 5.7391 177.436 5.2611C177.755 4.7831 178.201 4.41663 178.775 4.1617C179.348 3.90676 180.012 3.7793 180.766 3.7793C181.839 3.7793 182.716 4.05016 183.395 4.5919C184.086 5.12301 184.468 5.85595 184.543 6.79071H182.535C182.503 6.38706 182.312 6.04184 181.961 5.75504C181.611 5.46824 181.149 5.32484 180.575 5.32484C180.055 5.32484 179.63 5.45761 179.301 5.72317C178.971 5.98873 178.807 6.37113 178.807 6.87038C178.807 7.21029 178.908 7.49178 179.109 7.71485C179.322 7.92729 179.587 8.09725 179.906 8.22471C180.225 8.35218 180.66 8.49027 181.213 8.63898C181.946 8.84081 182.54 9.04263 182.997 9.24445C183.464 9.44627 183.858 9.75963 184.176 10.1845C184.505 10.5988 184.67 11.1565 184.67 11.8575C184.67 12.4205 184.516 12.9516 184.208 13.4509C183.911 13.9501 183.47 14.3538 182.886 14.6618C182.312 14.9592 181.632 15.1079 180.846 15.1079Z" fill="white"/>
<path d="M188.614 3.9227V10.9812C188.614 11.8204 188.832 12.4524 189.267 12.8773C189.713 13.3022 190.329 13.5146 191.115 13.5146C191.912 13.5146 192.528 13.3022 192.964 12.8773C193.41 12.4524 193.633 11.8204 193.633 10.9812V3.9227H195.449V10.9493C195.449 11.8522 195.253 12.617 194.86 13.2437C194.467 13.8704 193.941 14.3378 193.282 14.6459C192.624 14.9539 191.896 15.1079 191.099 15.1079C190.303 15.1079 189.575 14.9539 188.917 14.6459C188.269 14.3378 187.753 13.8704 187.371 13.2437C186.989 12.617 186.797 11.8522 186.797 10.9493V3.9227H188.614Z" fill="white"/>
<path d="M203.566 14.9964L201.017 10.5669H199.631V14.9964H197.814V3.9227H201.638C202.488 3.9227 203.205 4.07141 203.789 4.36883C204.384 4.66626 204.825 5.06459 205.112 5.56384C205.409 6.06308 205.558 6.62075 205.558 7.23684C205.558 7.95916 205.345 8.61774 204.921 9.21258C204.506 9.79681 203.864 10.1951 202.993 10.4076L205.733 14.9964H203.566ZM199.631 9.11698H201.638C202.318 9.11698 202.828 8.94703 203.168 8.60712C203.518 8.2672 203.694 7.81045 203.694 7.23684C203.694 6.66324 203.524 6.21711 203.184 5.89844C202.844 5.56915 202.329 5.4045 201.638 5.4045H199.631V9.11698Z" fill="white"/>
<path d="M209.698 5.38857V8.63898H213.522V10.1208H209.698V13.5146H214V14.9964H207.882V3.90676H214V5.38857H209.698Z" fill="white"/>
<path d="M54.3358 25.8469C54.3358 26.4448 54.1296 26.9432 53.7172 27.3418C53.3116 27.7336 52.6896 27.9295 51.8511 27.9295H50.4696V30.9296H49.5314V23.7437H51.8511C52.6621 23.7437 53.2773 23.9396 53.6965 24.3313C54.1227 24.7231 54.3358 25.2283 54.3358 25.8469ZM51.8511 27.1562C52.3735 27.1562 52.7584 27.0428 53.0058 26.816C53.2532 26.5892 53.3769 26.2661 53.3769 25.8469C53.3769 24.9602 52.8683 24.5169 51.8511 24.5169H50.4696V27.1562H51.8511Z" fill="white"/>
<path d="M58.9659 31.0018C58.2992 31.0018 57.6909 30.8471 57.1411 30.5379C56.5912 30.2217 56.1548 29.7852 55.8317 29.2285C55.5156 28.6649 55.3575 28.0326 55.3575 27.3315C55.3575 26.6304 55.5156 26.0015 55.8317 25.4448C56.1548 24.8812 56.5912 24.4447 57.1411 24.1354C57.6909 23.8193 58.2992 23.6612 58.9659 23.6612C59.6395 23.6612 60.2512 23.8193 60.8011 24.1354C61.3509 24.4447 61.7839 24.8778 62.1001 25.4345C62.4163 25.9912 62.5744 26.6236 62.5744 27.3315C62.5744 28.0394 62.4163 28.6718 62.1001 29.2285C61.7839 29.7852 61.3509 30.2217 60.8011 30.5379C60.2512 30.8471 59.6395 31.0018 58.9659 31.0018ZM58.9659 30.1873C59.4677 30.1873 59.9179 30.0705 60.3165 29.8368C60.722 29.6031 61.0382 29.2697 61.265 28.8367C61.4987 28.4037 61.6156 27.902 61.6156 27.3315C61.6156 26.7541 61.4987 26.2524 61.265 25.8263C61.0382 25.3932 60.7255 25.0599 60.3268 24.8262C59.9282 24.5925 59.4745 24.4757 58.9659 24.4757C58.4573 24.4757 58.0037 24.5925 57.605 24.8262C57.2064 25.0599 56.8902 25.3932 56.6565 25.8263C56.4297 26.2524 56.3163 26.7541 56.3163 27.3315C56.3163 27.902 56.4297 28.4037 56.6565 28.8367C56.8902 29.2697 57.2064 29.6031 57.605 29.8368C58.0105 30.0705 58.4642 30.1873 58.9659 30.1873Z" fill="white"/>
<path d="M73.0505 23.7437L70.968 30.9296H69.9163L68.2462 25.1458L66.5141 30.9296L65.4728 30.9399L63.4624 23.7437H64.4624L66.0295 29.8368L67.7616 23.7437H68.8132L70.4628 29.8162L72.0402 23.7437H73.0505Z" fill="white"/>
<path d="M75.2216 24.5066V26.9088H77.8403V27.682H75.2216V30.1564H78.1496V30.9296H74.2835V23.7334H78.1496V24.5066H75.2216Z" fill="white"/>
<path d="M83.5592 30.9296L81.8477 27.9913H80.7137V30.9296H79.7755V23.7437H82.0952C82.6382 23.7437 83.0952 23.8365 83.4664 24.022C83.8444 24.2076 84.1262 24.4585 84.3118 24.7747C84.4974 25.0908 84.5902 25.4517 84.5902 25.8572C84.5902 26.3521 84.4458 26.7885 84.1571 27.1665C83.8753 27.5446 83.4492 27.7954 82.8787 27.9192L84.6829 30.9296H83.5592ZM80.7137 27.2387H82.0952C82.6038 27.2387 82.9853 27.115 83.2396 26.8676C83.4939 26.6132 83.621 26.2765 83.621 25.8572C83.621 25.431 83.4939 25.1011 83.2396 24.8674C82.9921 24.6338 82.6107 24.5169 82.0952 24.5169H80.7137V27.2387Z" fill="white"/>
<path d="M87.1923 24.5066V26.9088H89.811V27.682H87.1923V30.1564H90.1203V30.9296H86.2541V23.7334H90.1203V24.5066H87.1923Z" fill="white"/>
<path d="M93.9834 23.7437C94.7669 23.7437 95.444 23.8914 96.0144 24.187C96.5918 24.4757 97.0317 24.8915 97.3341 25.4345C97.6434 25.9775 97.798 26.6167 97.798 27.3521C97.798 28.0875 97.6434 28.7268 97.3341 29.2697C97.0317 29.8059 96.5918 30.2182 96.0144 30.5069C95.444 30.7887 94.7669 30.9296 93.9834 30.9296H91.7462V23.7437H93.9834ZM93.9834 30.1564C94.9113 30.1564 95.6192 29.9124 96.1072 29.4244C96.5952 28.9295 96.8392 28.2388 96.8392 27.3521C96.8392 26.4586 96.5918 25.761 96.0969 25.2592C95.6089 24.7575 94.9044 24.5066 93.9834 24.5066H92.6843V30.1564H93.9834Z" fill="white"/>
<path d="M105.795 27.2284C106.056 27.2696 106.293 27.3762 106.506 27.548C106.726 27.7198 106.898 27.9329 107.022 28.1872C107.152 28.4415 107.217 28.713 107.217 29.0017C107.217 29.366 107.125 29.6959 106.939 29.9914C106.753 30.2801 106.482 30.5104 106.125 30.6822C105.774 30.8471 105.358 30.9296 104.877 30.9296H102.197V23.7437H104.774C105.262 23.7437 105.678 23.8261 106.021 23.9911C106.365 24.1492 106.623 24.3657 106.795 24.6406C106.967 24.9156 107.052 25.2248 107.052 25.5685C107.052 25.9946 106.936 26.3486 106.702 26.6304C106.475 26.9054 106.173 27.1047 105.795 27.2284ZM103.135 26.8469H104.712C105.152 26.8469 105.492 26.7438 105.733 26.5376C105.973 26.3314 106.094 26.0462 106.094 25.6819C106.094 25.3176 105.973 25.0324 105.733 24.8262C105.492 24.62 105.145 24.5169 104.692 24.5169H103.135V26.8469ZM104.795 30.1564C105.262 30.1564 105.626 30.0464 105.887 29.8265C106.149 29.6065 106.279 29.3007 106.279 28.9089C106.279 28.5103 106.142 28.1975 105.867 27.9707C105.592 27.737 105.224 27.6202 104.764 27.6202H103.135V30.1564H104.795Z" fill="white"/>
<path d="M113.757 23.7437L111.416 28.2181V30.9296H110.478V28.2181L108.128 23.7437H109.169L110.942 27.383L112.715 23.7437H113.757Z" fill="white"/>
<path d="M125.196 23.7952V30.9296H124.258V25.6097L121.887 30.9296H121.227L118.846 25.5994V30.9296H117.907V23.7952H118.918L121.557 29.6924L124.196 23.7952H125.196Z" fill="white"/>
<path d="M131.241 29.3316H128.107L127.53 30.9296H126.54L129.138 23.7849H130.221L132.808 30.9296H131.819L131.241 29.3316ZM130.973 28.5687L129.674 24.9396L128.375 28.5687H130.973Z" fill="white"/>
<path d="M139.797 30.9296H138.859L135.085 25.2077V30.9296H134.147V23.7334H135.085L138.859 29.445V23.7334H139.797V30.9296Z" fill="white"/>
<path d="M142.54 23.7437V30.9296H141.602V23.7437H142.54Z" fill="white"/>
<path d="M148.408 23.7437V24.5066H145.284V26.9294H147.82V27.6923H145.284V30.9296H144.346V23.7437H148.408Z" fill="white"/>
<path d="M150.685 24.5066V26.9088H153.304V27.682H150.685V30.1564H153.613V30.9296H149.747V23.7334H153.613V24.5066H150.685Z" fill="white"/>
<path d="M157.518 31.0018C157.043 31.0018 156.617 30.9193 156.239 30.7544C155.868 30.5825 155.576 30.3488 155.363 30.0533C155.15 29.7509 155.04 29.4038 155.033 29.012H156.033C156.067 29.3488 156.205 29.634 156.445 29.8677C156.693 30.0945 157.05 30.2079 157.518 30.2079C157.964 30.2079 158.315 30.098 158.569 29.878C158.83 29.6512 158.961 29.3625 158.961 29.012C158.961 28.7371 158.885 28.5137 158.734 28.3419C158.583 28.17 158.394 28.0394 158.167 27.9501C157.94 27.8607 157.634 27.7645 157.249 27.6614C156.775 27.5377 156.394 27.414 156.105 27.2903C155.823 27.1665 155.579 26.9741 155.373 26.7129C155.174 26.4448 155.074 26.0874 155.074 25.6407C155.074 25.2489 155.174 24.9018 155.373 24.5994C155.572 24.297 155.851 24.0633 156.208 23.8983C156.572 23.7334 156.988 23.6509 157.456 23.6509C158.129 23.6509 158.679 23.8193 159.105 24.1561C159.538 24.4928 159.782 24.9396 159.837 25.4963H158.806C158.772 25.2214 158.628 24.9808 158.373 24.7747C158.119 24.5616 157.782 24.455 157.363 24.455C156.971 24.455 156.652 24.5581 156.404 24.7643C156.157 24.9637 156.033 25.2455 156.033 25.6097C156.033 25.8709 156.105 26.084 156.249 26.249C156.401 26.4139 156.583 26.5411 156.796 26.6304C157.016 26.7129 157.322 26.8091 157.713 26.9191C158.188 27.0497 158.569 27.1803 158.858 27.3109C159.147 27.4346 159.394 27.6305 159.6 27.8985C159.806 28.1597 159.909 28.5171 159.909 28.9708C159.909 29.3213 159.817 29.6512 159.631 29.9605C159.445 30.2698 159.171 30.5207 158.806 30.7131C158.442 30.9056 158.012 31.0018 157.518 31.0018Z" fill="white"/>
<path d="M165.919 23.7437V24.5066H163.96V30.9296H163.022V24.5066H161.053V23.7437H165.919Z" fill="white"/>
<path d="M169.885 27.3315C169.885 26.6304 170.043 26.0015 170.359 25.4448C170.675 24.8812 171.105 24.4413 171.648 24.1251C172.197 23.809 172.806 23.6509 173.472 23.6509C174.256 23.6509 174.94 23.8399 175.524 24.2179C176.108 24.5959 176.534 25.1321 176.802 25.8263H175.679C175.479 25.3932 175.191 25.0599 174.813 24.8262C174.441 24.5925 173.995 24.4757 173.472 24.4757C172.971 24.4757 172.52 24.5925 172.122 24.8262C171.723 25.0599 171.41 25.3932 171.184 25.8263C170.957 26.2524 170.843 26.7541 170.843 27.3315C170.843 27.902 170.957 28.4037 171.184 28.8367C171.41 29.2629 171.723 29.5928 172.122 29.8265C172.52 30.0602 172.971 30.177 173.472 30.177C173.995 30.177 174.441 30.0636 174.813 29.8368C175.191 29.6031 175.479 29.2697 175.679 28.8367H176.802C176.534 29.5241 176.108 30.0567 175.524 30.4348C174.94 30.8059 174.256 30.9915 173.472 30.9915C172.806 30.9915 172.197 30.8368 171.648 30.5275C171.105 30.2114 170.675 29.7749 170.359 29.2182C170.043 28.6615 169.885 28.0326 169.885 27.3315Z" fill="white"/>
<path d="M179.343 30.1667H181.859V30.9296H178.405V23.7437H179.343V30.1667Z" fill="white"/>
<path d="M184 23.7437V30.9296H183.062V23.7437H184Z" fill="white"/>
<path d="M193.094 23.7952V30.9296H192.156V25.6097L189.785 30.9296H189.125L186.743 25.5994V30.9296H185.805V23.7952H186.815L189.455 29.6924L192.094 23.7952H193.094Z" fill="white"/>
<path d="M199.139 29.3316H196.005L195.427 30.9296H194.438L197.036 23.7849H198.118L200.706 30.9296H199.716L199.139 29.3316ZM198.871 28.5687L197.572 24.9396L196.273 28.5687H198.871Z" fill="white"/>
<path d="M206.467 23.7437V24.5066H204.509V30.9296H203.57V24.5066H201.601V23.7437H206.467Z" fill="white"/>
<path d="M208.767 24.5066V26.9088H211.385V27.682H208.767V30.1564H211.695V30.9296H207.829V23.7334H211.695V24.5066H208.767Z" fill="white"/>
<path d="M12.2196 18.2877H0V18.7642H12.2196V18.2877Z" fill="#FEDC65"/>
<path d="M21.1704 0L19.0503 11.7428L21.441 12.1554L23.5315 13.3332L25.0809 15.136L25.9073 17.3492V19.7027L25.0809 21.918L23.5315 23.7208L21.441 24.8986L19.0503 25.3111L21.1704 37.054L23.578 36.6393L21.5953 25.6659L27.3257 35.3522L29.8643 33.9228L24.8483 25.4431L32.5678 31.7632L34.7682 29.2055L28.1437 23.7827L36.3091 26.6828L37.6472 23.0958L30.8239 20.6742H38.127V16.3797H30.8239L37.6472 13.9561L36.3091 10.3711L28.1437 13.2712L34.7682 7.84851L32.5678 5.29077L24.8483 11.6088L29.8643 3.13321L27.3257 1.70171L21.5953 11.388L23.578 0.414599L21.1704 0Z" fill="#FEDC65"/>
<path d="M12.5036 20.4744L1.02126 24.5526L1.27205 25.2251L12.7544 21.1469L12.5036 20.4744Z" fill="#FEDC65"/>
<path d="M13.5057 22.4534L4.14493 30.1182L4.77264 30.8483L14.1334 23.1834L13.5057 22.4534Z" fill="#FEDC65"/>
<path d="M15.0045 23.9517L8.89472 34.2784L10.1651 34.9942L16.275 24.6674L15.0045 23.9517Z" fill="#FEDC65"/>
<path d="M16.911 24.9353L14.787 36.6781L16.7125 37.0097L18.8365 25.2669L16.911 24.9353Z" fill="#FEDC65"/>
<path d="M16.717 0.042735L14.7914 0.374052L16.9134 12.1173L18.8389 11.7859L16.717 0.042735Z" fill="#FEDC65"/>
<path d="M10.1651 2.05858L8.89472 2.77433L15.0045 13.1011L16.275 12.3854L10.1651 2.05858Z" fill="#FEDC65"/>
<path d="M4.77119 6.20534L4.14347 6.93534L13.5042 14.6001L14.132 13.8701L4.77119 6.20534Z" fill="#FEDC65"/>
<path d="M1.27205 11.8288L1.02126 12.5012L12.5036 16.5794L12.7544 15.9071L1.27205 11.8288Z" fill="#FEDC65"/>
</svg>
