<svg width="131" height="143" viewBox="0 0 131 143" fill="none" xmlns="http://www.w3.org/2000/svg">
<path fill-rule="evenodd" clip-rule="evenodd" d="M109.344 60.4635C109.358 60.1687 109.39 59.8996 109.446 59.6845C110.106 57.2091 111.204 54.9628 112.079 52.5889C114.555 45.8702 119.308 40.3001 125.739 36.9407C126.359 36.6172 127.233 36.8911 127.689 37.5499C128.146 38.2087 128.014 39.0032 127.394 39.3268C121.428 42.4429 117.025 47.6164 114.729 53.8472C113.877 56.1604 112.805 58.3436 112.159 60.7562C112.063 61.1164 112.125 61.7118 112.132 62.2449C112.134 62.826 112.094 63.3586 111.972 63.715C111.771 64.3042 111.371 64.6166 110.893 64.7241C110.553 64.7998 110.133 64.7877 109.617 64.557C109.407 64.4625 109.075 64.2556 108.711 63.8515C108.154 63.2373 107.14 61.7372 105.808 59.7712C103.63 56.5472 100.533 52.0011 97.148 48.2915C95.028 45.9645 92.8105 43.962 90.6359 42.9312C89.9022 42.5847 89.5022 41.7778 89.7391 41.1298C89.9741 40.4842 90.7641 40.24 91.4978 40.5865C94.0215 41.7829 96.6441 44.0564 99.1105 46.7619C102.608 50.601 105.824 55.3002 108.078 58.6336C108.511 59.2742 108.95 59.9074 109.344 60.4635Z" fill="#F56B40"/>
<path fill-rule="evenodd" clip-rule="evenodd" d="M107.149 57.4402C111.992 46.0784 110.052 36.5975 104.35 30.2339C95.7695 20.6574 79.0842 18.3694 65.5707 27.1782C31.7539 49.2219 33.7945 100.427 49.8828 138.259C50.1864 138.977 49.8586 139.688 49.1514 139.855C48.4443 140.022 47.6237 139.574 47.3182 138.859C30.8009 100.017 29.0115 47.5296 63.7309 24.8976C78.561 15.2306 96.9161 18.2178 106.333 28.7275C112.628 35.7564 115.112 46.249 109.763 58.7956C109.492 59.4258 108.687 59.6347 107.969 59.2613C107.247 58.8881 106.878 58.0704 107.149 57.4402Z" fill="#F56B40"/>
</svg>
