<svg width="85" height="102" viewBox="0 0 85 102" fill="none" xmlns="http://www.w3.org/2000/svg">
<path fill-rule="evenodd" clip-rule="evenodd" d="M82.1084 8.35144C70.8946 11.1453 65.985 15.0122 64.3703 19.6326C62.7519 24.2532 64.4269 29.4082 66.1056 34.5631C67.2854 38.1205 68.4891 41.7504 68.7461 45.1026C69.0162 48.6006 68.2632 51.8951 65.4812 54.782C64.813 55.4486 63.7216 56.0487 62.2607 56.4353C60.2798 57.0485 57.5775 57.4537 54.4025 57.647C42.3612 58.5563 23.3697 57.381 11.843 59.3041C9.19269 59.7084 6.94934 60.3252 5.30441 61.1523C3.87348 61.9032 2.91226 62.7929 2.68179 63.9637C2.49362 64.915 2.79338 66.005 3.58329 67.3794C4.93145 69.6939 7.65142 72.4256 12.0483 75.8619C15.8973 78.8687 20.2199 81.3583 24.1552 84.2908C30.3158 88.8681 36.5616 93.6628 41.5301 99.0605C41.8445 99.4206 41.8212 99.9313 41.4792 100.228C41.1374 100.598 40.6041 100.533 40.2897 100.173C35.3915 94.8476 29.2269 90.1245 23.1532 85.6189C19.2088 82.7594 14.8743 80.1978 11.0152 77.1912C6.38834 73.6123 3.55211 70.6634 2.13251 68.204C1.07923 66.4688 0.777453 64.9406 1.02853 63.6236C1.28782 62.3065 2.13532 61.1268 3.50939 60.2308C5.32751 59.0363 8.12626 58.1917 11.5692 57.6296C23.1368 55.7059 42.1967 56.8809 54.2809 55.9709C57.31 55.7798 59.8902 55.3762 61.781 54.8372C62.9022 54.5287 63.7644 54.1509 64.2761 53.5596C66.6809 51.116 67.3001 48.2619 67.0666 45.2011C66.8191 41.9946 65.6412 38.5102 64.5044 35.0252C62.7066 29.5802 61.0469 23.9869 62.7812 19.0728C64.5183 14.1587 69.647 9.70467 81.7034 6.75226C82.1542 6.59961 82.6115 6.88448 82.7229 7.32056C82.8342 7.75665 82.5602 8.27173 82.1084 8.35144Z" fill="#E9CA62"/>
<path fill-rule="evenodd" clip-rule="evenodd" d="M81.4164 5.93692C81.2978 5.86574 80.9757 5.72434 80.7103 5.65535C79.4187 5.23688 77.418 4.82943 76.8307 4.69228C71.631 3.16484 65.8177 1.93838 60.2737 2.02115C59.8089 2.02809 59.427 1.66858 59.4214 1.23091C59.4147 0.720307 59.7865 0.349822 60.2514 0.342883C65.9558 0.257717 71.9388 1.55459 77.2878 3.00685C77.8844 3.21682 79.9151 3.62425 81.2268 4.04242C81.6983 4.18129 82.0888 4.32181 82.3352 4.46404C82.5379 4.60693 82.6777 4.75048 82.7664 4.89507C82.995 5.18349 83.1109 5.61993 83.1029 6.0578C83.0941 6.56864 82.9342 7.15455 82.6567 7.74236C82.1156 8.99072 81.1139 10.4647 80.322 11.6438C79.867 12.3073 79.4793 12.8969 79.3635 13.2634C78.3704 16.4154 79.5299 19.8268 83.1672 22.399C83.5453 22.6852 83.634 23.195 83.3642 23.5638C83.0944 23.9327 82.5678 24.0133 82.19 23.8001C77.8266 20.6551 76.5653 16.5881 77.7573 12.7765C78.0439 11.8238 79.674 9.7569 80.7076 7.91752C81.0024 7.32945 81.2445 6.8147 81.3601 6.37523C81.3934 6.22881 81.417 6.1555 81.4184 6.00957C81.4203 6.00954 81.4219 5.93684 81.4164 5.93692Z" fill="#E9CA62"/>
</svg>
