<svg width="259" height="124" viewBox="0 0 259 124" fill="none" xmlns="http://www.w3.org/2000/svg">
<g opacity="0.5">
<path d="M118.446 2.8928C119.245 2.8928 119.892 2.24523 119.892 1.4464C119.892 0.647572 119.245 0 118.446 0C117.647 0 117 0.647572 117 1.4464C117 2.24523 117.647 2.8928 118.446 2.8928Z" fill="white"/>
<path d="M133.863 2.8928C134.662 2.8928 135.309 2.24523 135.309 1.4464C135.309 0.647572 134.662 0 133.863 0C133.064 0 132.417 0.647572 132.417 1.4464C132.417 2.24523 133.064 2.8928 133.863 2.8928Z" fill="white"/>
<path d="M149.279 2.8928C150.078 2.8928 150.725 2.24523 150.725 1.4464C150.725 0.647572 150.078 0 149.279 0C148.481 0 147.833 0.647572 147.833 1.4464C147.833 2.24523 148.481 2.8928 149.279 2.8928Z" fill="white"/>
<path d="M164.696 2.8928C165.495 2.8928 166.142 2.24523 166.142 1.4464C166.142 0.647572 165.495 0 164.696 0C163.897 0 163.25 0.647572 163.25 1.4464C163.25 2.24523 163.897 2.8928 164.696 2.8928Z" fill="white"/>
<path d="M180.112 2.8928C180.911 2.8928 181.558 2.24523 181.558 1.4464C181.558 0.647572 180.911 0 180.112 0C179.313 0 178.666 0.647572 178.666 1.4464C178.666 2.24523 179.313 2.8928 180.112 2.8928Z" fill="white"/>
<path d="M195.542 2.8928C196.341 2.8928 196.988 2.24523 196.988 1.4464C196.988 0.647572 196.341 0 195.542 0C194.743 0 194.096 0.647572 194.096 1.4464C194.096 2.24523 194.743 2.8928 195.542 2.8928Z" fill="white"/>
<path d="M210.959 2.8928C211.757 2.8928 212.405 2.24523 212.405 1.4464C212.405 0.647572 211.757 0 210.959 0C210.16 0 209.512 0.647572 209.512 1.4464C209.512 2.24523 210.16 2.8928 210.959 2.8928Z" fill="white"/>
<path d="M226.375 2.8928C227.173 2.8928 227.821 2.24523 227.821 1.4464C227.821 0.647572 227.173 0 226.375 0C225.576 0 224.929 0.647572 224.929 1.4464C224.929 2.24523 225.576 2.8928 226.375 2.8928Z" fill="white"/>
<path d="M241.792 2.8928C242.59 2.8928 243.238 2.24523 243.238 1.4464C243.238 0.647572 242.59 0 241.792 0C240.993 0 240.346 0.647572 240.346 1.4464C240.346 2.24523 240.993 2.8928 241.792 2.8928Z" fill="white"/>
<path d="M257.209 2.8928C258.007 2.8928 258.655 2.24523 258.655 1.4464C258.655 0.647572 258.007 0 257.209 0C256.41 0 255.763 0.647572 255.763 1.4464C255.763 2.24523 256.41 2.8928 257.209 2.8928Z" fill="white"/>
<path d="M98.201 21.2053C98.9997 21.2053 99.6471 20.5577 99.6471 19.7589C99.6471 18.9601 98.9997 18.3125 98.201 18.3125C97.4023 18.3125 96.7549 18.9601 96.7549 19.7589C96.7549 20.5577 97.4023 21.2053 98.201 21.2053Z" fill="white"/>
<path d="M113.618 21.2053C114.417 21.2053 115.064 20.5577 115.064 19.7589C115.064 18.9601 114.417 18.3125 113.618 18.3125C112.819 18.3125 112.172 18.9601 112.172 19.7589C112.172 20.5577 112.819 21.2053 113.618 21.2053Z" fill="white"/>
<path d="M129.047 21.2053C129.845 21.2053 130.493 20.5577 130.493 19.7589C130.493 18.9601 129.845 18.3125 129.047 18.3125C128.248 18.3125 127.601 18.9601 127.601 19.7589C127.601 20.5577 128.248 21.2053 129.047 21.2053Z" fill="white"/>
<path d="M144.464 21.2053C145.262 21.2053 145.91 20.5577 145.91 19.7589C145.91 18.9601 145.262 18.3125 144.464 18.3125C143.665 18.3125 143.018 18.9601 143.018 19.7589C143.018 20.5577 143.665 21.2053 144.464 21.2053Z" fill="white"/>
<path d="M159.881 21.2053C160.679 21.2053 161.327 20.5577 161.327 19.7589C161.327 18.9601 160.679 18.3125 159.881 18.3125C159.082 18.3125 158.435 18.9601 158.435 19.7589C158.435 20.5577 159.082 21.2053 159.881 21.2053Z" fill="white"/>
<path d="M175.297 21.2053C176.096 21.2053 176.743 20.5577 176.743 19.7589C176.743 18.9601 176.096 18.3125 175.297 18.3125C174.498 18.3125 173.851 18.9601 173.851 19.7589C173.851 20.5577 174.498 21.2053 175.297 21.2053Z" fill="white"/>
<path d="M190.714 21.2053C191.512 21.2053 192.16 20.5577 192.16 19.7589C192.16 18.9601 191.512 18.3125 190.714 18.3125C189.915 18.3125 189.268 18.9601 189.268 19.7589C189.268 20.5577 189.915 21.2053 190.714 21.2053Z" fill="white"/>
<path d="M206.143 21.2053C206.942 21.2053 207.589 20.5577 207.589 19.7589C207.589 18.9601 206.942 18.3125 206.143 18.3125C205.345 18.3125 204.697 18.9601 204.697 19.7589C204.697 20.5577 205.345 21.2053 206.143 21.2053Z" fill="white"/>
<path d="M221.56 21.2053C222.358 21.2053 223.006 20.5577 223.006 19.7589C223.006 18.9601 222.358 18.3125 221.56 18.3125C220.761 18.3125 220.114 18.9601 220.114 19.7589C220.114 20.5577 220.761 21.2053 221.56 21.2053Z" fill="white"/>
<path d="M236.976 21.2053C237.775 21.2053 238.422 20.5577 238.422 19.7589C238.422 18.9601 237.775 18.3125 236.976 18.3125C236.177 18.3125 235.53 18.9601 235.53 19.7589C235.53 20.5577 236.177 21.2053 236.976 21.2053Z" fill="white"/>
<path d="M78.4461 39.5178C79.2448 39.5178 79.8922 38.8703 79.8922 38.0714C79.8922 37.2726 79.2448 36.625 78.4461 36.625C77.6475 36.625 77 37.2726 77 38.0714C77 38.8703 77.6475 39.5178 78.4461 39.5178Z" fill="white"/>
<path d="M93.8631 39.5178C94.6618 39.5178 95.3092 38.8703 95.3092 38.0714C95.3092 37.2726 94.6618 36.625 93.8631 36.625C93.0644 36.625 92.417 37.2726 92.417 38.0714C92.417 38.8703 93.0644 39.5178 93.8631 39.5178Z" fill="white"/>
<path d="M109.279 39.5178C110.078 39.5178 110.725 38.8703 110.725 38.0714C110.725 37.2726 110.078 36.625 109.279 36.625C108.481 36.625 107.833 37.2726 107.833 38.0714C107.833 38.8703 108.481 39.5178 109.279 39.5178Z" fill="white"/>
<path d="M124.696 39.5178C125.495 39.5178 126.142 38.8703 126.142 38.0714C126.142 37.2726 125.495 36.625 124.696 36.625C123.897 36.625 123.25 37.2726 123.25 38.0714C123.25 38.8703 123.897 39.5178 124.696 39.5178Z" fill="white"/>
<path d="M140.112 39.5178C140.911 39.5178 141.558 38.8703 141.558 38.0714C141.558 37.2726 140.911 36.625 140.112 36.625C139.313 36.625 138.666 37.2726 138.666 38.0714C138.666 38.8703 139.313 39.5178 140.112 39.5178Z" fill="white"/>
<path d="M155.542 39.5178C156.341 39.5178 156.988 38.8703 156.988 38.0714C156.988 37.2726 156.341 36.625 155.542 36.625C154.743 36.625 154.096 37.2726 154.096 38.0714C154.096 38.8703 154.743 39.5178 155.542 39.5178Z" fill="white"/>
<path d="M170.959 39.5178C171.757 39.5178 172.405 38.8703 172.405 38.0714C172.405 37.2726 171.757 36.625 170.959 36.625C170.16 36.625 169.512 37.2726 169.512 38.0714C169.512 38.8703 170.16 39.5178 170.959 39.5178Z" fill="white"/>
<path d="M186.375 39.5178C187.173 39.5178 187.821 38.8703 187.821 38.0714C187.821 37.2726 187.173 36.625 186.375 36.625C185.576 36.625 184.929 37.2726 184.929 38.0714C184.929 38.8703 185.576 39.5178 186.375 39.5178Z" fill="white"/>
<path d="M201.792 39.5178C202.59 39.5178 203.238 38.8703 203.238 38.0714C203.238 37.2726 202.59 36.625 201.792 36.625C200.993 36.625 200.346 37.2726 200.346 38.0714C200.346 38.8703 200.993 39.5178 201.792 39.5178Z" fill="white"/>
<path d="M217.209 39.5178C218.007 39.5178 218.655 38.8703 218.655 38.0714C218.655 37.2726 218.007 36.625 217.209 36.625C216.41 36.625 215.763 37.2726 215.763 38.0714C215.763 38.8703 216.41 39.5178 217.209 39.5178Z" fill="white"/>
<path d="M98.201 57.8303C98.9997 57.8303 99.6471 57.1827 99.6471 56.3839C99.6471 55.5851 98.9997 54.9375 98.201 54.9375C97.4023 54.9375 96.7549 55.5851 96.7549 56.3839C96.7549 57.1827 97.4023 57.8303 98.201 57.8303Z" fill="white"/>
<path d="M113.618 57.8303C114.417 57.8303 115.064 57.1827 115.064 56.3839C115.064 55.5851 114.417 54.9375 113.618 54.9375C112.819 54.9375 112.172 55.5851 112.172 56.3839C112.172 57.1827 112.819 57.8303 113.618 57.8303Z" fill="white"/>
<path d="M129.047 57.8303C129.845 57.8303 130.493 57.1827 130.493 56.3839C130.493 55.5851 129.845 54.9375 129.047 54.9375C128.248 54.9375 127.601 55.5851 127.601 56.3839C127.601 57.1827 128.248 57.8303 129.047 57.8303Z" fill="white"/>
<path d="M144.464 57.8303C145.262 57.8303 145.91 57.1827 145.91 56.3839C145.91 55.5851 145.262 54.9375 144.464 54.9375C143.665 54.9375 143.018 55.5851 143.018 56.3839C143.018 57.1827 143.665 57.8303 144.464 57.8303Z" fill="white"/>
<path d="M159.881 57.8303C160.679 57.8303 161.327 57.1827 161.327 56.3839C161.327 55.5851 160.679 54.9375 159.881 54.9375C159.082 54.9375 158.435 55.5851 158.435 56.3839C158.435 57.1827 159.082 57.8303 159.881 57.8303Z" fill="white"/>
<path d="M175.297 57.8303C176.096 57.8303 176.743 57.1827 176.743 56.3839C176.743 55.5851 176.096 54.9375 175.297 54.9375C174.498 54.9375 173.851 55.5851 173.851 56.3839C173.851 57.1827 174.498 57.8303 175.297 57.8303Z" fill="white"/>
<path d="M190.714 57.8303C191.512 57.8303 192.16 57.1827 192.16 56.3839C192.16 55.5851 191.512 54.9375 190.714 54.9375C189.915 54.9375 189.268 55.5851 189.268 56.3839C189.268 57.1827 189.915 57.8303 190.714 57.8303Z" fill="white"/>
<path d="M206.143 57.8303C206.942 57.8303 207.589 57.1827 207.589 56.3839C207.589 55.5851 206.942 54.9375 206.143 54.9375C205.345 54.9375 204.697 55.5851 204.697 56.3839C204.697 57.1827 205.345 57.8303 206.143 57.8303Z" fill="white"/>
<path d="M221.56 57.8303C222.358 57.8303 223.006 57.1827 223.006 56.3839C223.006 55.5851 222.358 54.9375 221.56 54.9375C220.761 54.9375 220.114 55.5851 220.114 56.3839C220.114 57.1827 220.761 57.8303 221.56 57.8303Z" fill="white"/>
<path d="M236.976 57.8303C237.775 57.8303 238.422 57.1827 238.422 56.3839C238.422 55.5851 237.775 54.9375 236.976 54.9375C236.177 54.9375 235.53 55.5851 235.53 56.3839C235.53 57.1827 236.177 57.8303 236.976 57.8303Z" fill="white"/>
</g>
<path d="M0 115.5C0 120.194 3.80558 124 8.5 124C13.1944 124 17 120.194 17 115.5C17 110.806 13.1944 107 8.5 107C3.80558 107 0 110.806 0 115.5ZM13.4986 115.5C13.4986 118.261 11.2607 120.499 8.5 120.499C5.73932 120.499 3.50135 118.261 3.50135 115.5C3.50135 112.739 5.73932 110.501 8.5 110.501C11.2607 110.501 13.4986 112.739 13.4986 115.5Z" fill="white" fill-opacity="0.3"/>
</svg>
