<svg width="269" height="177" viewBox="0 0 269 177" fill="none" xmlns="http://www.w3.org/2000/svg">
<rect x="16.8036" y="36.5576" width="185.273" height="125.219" stroke="#C6C6C6" stroke-width="2" stroke-linejoin="round" stroke-dasharray="3 3"/>
<rect x="44.2501" width="193.594" height="146.183" fill="#F1F1F1"/>
<rect x="48.9911" y="21.3345" width="184.112" height="121.688" fill="white"/>
<rect x="64.0046" y="37.1387" width="152.505" height="88.5002" rx="8" fill="#F1F1F1"/>
<rect x="220.46" y="9.48193" width="11.8527" height="3.16072" rx="1.58036" fill="#C4C4C4"/>
<rect x="133.541" y="94.0312" width="33.9778" height="3.16072" rx="1.58036" fill="white"/>
<rect x="72.6966" y="52.1519" width="33.9778" height="3.16072" rx="1.58036" fill="white"/>
<rect x="174.63" y="94.0312" width="33.9778" height="3.16072" rx="1.58036" fill="white"/>
<rect x="133.541" y="99.5625" width="33.9778" height="3.16072" rx="1.58036" fill="white"/>
<rect x="72.6966" y="57.6826" width="33.9778" height="3.16072" rx="1.58036" fill="white"/>
<rect x="174.63" y="99.5625" width="33.9778" height="3.16072" rx="1.58036" fill="white"/>
<rect x="133.541" y="105.094" width="18.9643" height="3.16072" rx="1.58036" fill="white"/>
<rect x="72.6966" y="63.2144" width="18.9643" height="3.16072" rx="1.58036" fill="white"/>
<rect x="174.63" y="105.094" width="18.9643" height="3.16072" rx="1.58036" fill="white"/>
<circle cx="50.9665" cy="10.6669" r="1.97545" fill="#C4C4C4"/>
<circle cx="56.4979" cy="10.6669" r="1.97545" fill="#C4C4C4"/>
<circle cx="62.0292" cy="10.6669" r="1.97545" fill="#C4C4C4"/>
<rect y="79.8076" width="120.898" height="97.1922" rx="15" fill="white"/>
<rect x="12.643" y="101.933" width="94.0315" height="14.2232" rx="4" fill="#EEEEEE"/>
<rect x="12.643" y="131.959" width="94.0315" height="14.2232" rx="4" fill="#EEEEEE"/>
<rect x="12.643" y="154.085" width="30.0269" height="14.2232" rx="4" fill="#271E3C"/>
<path d="M13.2699 97.9861C13.1821 97.9861 13.1141 97.9607 13.0658 97.9098C13.0219 97.8544 13 97.7804 13 97.6879V93.3398C13 93.2427 13.0241 93.1711 13.0724 93.1248C13.1207 93.074 13.1887 93.0485 13.2764 93.0485H14.8364C15.3322 93.0485 15.714 93.178 15.9817 93.4369C16.2493 93.6912 16.3832 94.0518 16.3832 94.5187C16.3832 94.981 16.2493 95.3417 15.9817 95.6006C15.714 95.8595 15.3322 95.9889 14.8364 95.9889H13.5397V97.6879C13.5397 97.7804 13.5178 97.8544 13.4739 97.9098C13.43 97.9607 13.362 97.9861 13.2699 97.9861ZM13.5397 95.5104H14.7706C15.126 95.5104 15.3937 95.4272 15.5736 95.2607C15.7579 95.0897 15.85 94.8423 15.85 94.5187C15.85 94.1905 15.7579 93.9431 15.5736 93.7767C15.3937 93.6056 15.126 93.5201 14.7706 93.5201H13.5397V95.5104Z" fill="black"/>
<path d="M17.9392 98C17.7198 98 17.5223 97.9561 17.3468 97.8682C17.1757 97.7758 17.0396 97.6509 16.9387 97.4938C16.8378 97.3366 16.7873 97.1609 16.7873 96.9667C16.7873 96.7171 16.8465 96.5206 16.965 96.3773C17.0879 96.2339 17.2875 96.1322 17.564 96.0721C17.8448 96.012 18.2266 95.982 18.7093 95.982H19.0055V96.3495H18.7159C18.3604 96.3495 18.0796 96.368 17.8734 96.405C17.6715 96.4374 17.5289 96.4951 17.4455 96.5784C17.3665 96.6616 17.327 96.7795 17.327 96.932C17.327 97.1216 17.3885 97.2765 17.5113 97.3967C17.6386 97.5169 17.8097 97.577 18.0247 97.577C18.2003 97.577 18.3538 97.5331 18.4855 97.4452C18.6215 97.3574 18.7268 97.2372 18.8014 97.0846C18.8804 96.932 18.9199 96.7564 18.9199 96.5576V95.767C18.9199 95.4804 18.865 95.2746 18.7553 95.1498C18.6456 95.0203 18.4657 94.9556 18.2156 94.9556C18.062 94.9556 17.9085 94.9764 17.7549 95.018C17.6013 95.0596 17.4389 95.1267 17.2678 95.2191C17.2064 95.2515 17.1537 95.2631 17.1098 95.2538C17.066 95.2399 17.0308 95.2145 17.0045 95.1775C16.9782 95.1405 16.9628 95.0989 16.9584 95.0527C16.9541 95.0018 16.9628 94.9533 16.9848 94.9071C17.0111 94.8608 17.0506 94.8239 17.1032 94.7961C17.2963 94.6944 17.4872 94.6204 17.6759 94.5742C17.8646 94.528 18.0445 94.5049 18.2156 94.5049C18.4921 94.5049 18.7202 94.5534 18.9002 94.6505C19.0801 94.7429 19.2139 94.8863 19.3017 95.0804C19.3894 95.27 19.4333 95.515 19.4333 95.8155V97.6949C19.4333 97.7873 19.4114 97.859 19.3675 97.9098C19.328 97.9607 19.2687 97.9861 19.1898 97.9861C19.1064 97.9861 19.0428 97.9607 18.9989 97.9098C18.955 97.859 18.9331 97.7873 18.9331 97.6949V97.154H18.9923C18.9572 97.3296 18.8892 97.4799 18.7883 97.6047C18.6917 97.7295 18.571 97.8266 18.4262 97.896C18.2814 97.9653 18.1191 98 17.9392 98Z" fill="black"/>
<path d="M21.5019 98C21.3044 98 21.1047 97.9746 20.9029 97.9237C20.7054 97.8729 20.5211 97.785 20.35 97.6602C20.3061 97.6278 20.2754 97.5908 20.2579 97.5492C20.2403 97.503 20.2337 97.4591 20.2381 97.4175C20.2469 97.3712 20.2644 97.3319 20.2908 97.2996C20.3215 97.2672 20.3566 97.2487 20.3961 97.2441C20.44 97.2349 20.4882 97.2441 20.5409 97.2718C20.712 97.3828 20.8766 97.4614 21.0345 97.5076C21.1969 97.5492 21.3571 97.57 21.515 97.57C21.7652 97.57 21.9538 97.5215 22.0811 97.4244C22.2083 97.3273 22.272 97.1956 22.272 97.0291C22.272 96.8997 22.2303 96.798 22.1469 96.724C22.0635 96.6454 21.9319 96.5853 21.752 96.5437L21.153 96.405C20.8766 96.3449 20.6703 96.2409 20.5343 96.0929C20.4027 95.945 20.3368 95.7531 20.3368 95.5173C20.3368 95.3093 20.3873 95.1313 20.4882 94.9834C20.5935 94.8308 20.7405 94.7129 20.9292 94.6297C21.1179 94.5465 21.3373 94.5049 21.5874 94.5049C21.7805 94.5049 21.9626 94.5326 22.1337 94.5881C22.3093 94.6389 22.4672 94.7221 22.6077 94.8377C22.6515 94.8701 22.6801 94.9094 22.6932 94.9556C22.7108 94.9972 22.713 95.0411 22.6998 95.0874C22.691 95.129 22.6713 95.166 22.6406 95.1983C22.6098 95.2261 22.5725 95.2423 22.5287 95.2469C22.4848 95.2515 22.4387 95.2376 22.3904 95.2053C22.2588 95.1128 22.125 95.0458 21.9889 95.0042C21.8529 94.9579 21.7191 94.9348 21.5874 94.9348C21.3417 94.9348 21.1552 94.9857 21.028 95.0874C20.9007 95.1891 20.8371 95.3232 20.8371 95.4896C20.8371 95.619 20.8766 95.7254 20.9556 95.8086C21.0345 95.8918 21.1574 95.9519 21.3242 95.9889L21.9231 96.1207C22.2083 96.1854 22.4212 96.2894 22.5616 96.4327C22.7064 96.5714 22.7788 96.761 22.7788 97.0014C22.7788 97.3065 22.6625 97.5492 22.4299 97.7295C22.1974 97.9098 21.888 98 21.5019 98Z" fill="black"/>
<path d="M24.6708 98C24.4733 98 24.2737 97.9746 24.0718 97.9237C23.8743 97.8729 23.69 97.785 23.5189 97.6602C23.475 97.6278 23.4443 97.5908 23.4268 97.5492C23.4092 97.503 23.4026 97.4591 23.407 97.4175C23.4158 97.3712 23.4333 97.3319 23.4597 97.2996C23.4904 97.2672 23.5255 97.2487 23.565 97.2441C23.6089 97.2349 23.6571 97.2441 23.7098 97.2718C23.8809 97.3828 24.0455 97.4614 24.2034 97.5076C24.3658 97.5492 24.526 97.57 24.6839 97.57C24.9341 97.57 25.1227 97.5215 25.25 97.4244C25.3772 97.3273 25.4409 97.1956 25.4409 97.0291C25.4409 96.8997 25.3992 96.798 25.3158 96.724C25.2324 96.6454 25.1008 96.5853 24.9209 96.5437L24.3219 96.405C24.0455 96.3449 23.8392 96.2409 23.7032 96.0929C23.5716 95.945 23.5057 95.7531 23.5057 95.5173C23.5057 95.3093 23.5562 95.1313 23.6571 94.9834C23.7624 94.8308 23.9094 94.7129 24.0981 94.6297C24.2868 94.5465 24.5062 94.5049 24.7563 94.5049C24.9494 94.5049 25.1315 94.5326 25.3026 94.5881C25.4782 94.6389 25.6361 94.7221 25.7766 94.8377C25.8204 94.8701 25.849 94.9094 25.8621 94.9556C25.8797 94.9972 25.8819 95.0411 25.8687 95.0874C25.8599 95.129 25.8402 95.166 25.8095 95.1983C25.7788 95.2261 25.7415 95.2423 25.6976 95.2469C25.6537 95.2515 25.6076 95.2376 25.5594 95.2053C25.4277 95.1128 25.2939 95.0458 25.1578 95.0042C25.0218 94.9579 24.888 94.9348 24.7563 94.9348C24.5106 94.9348 24.3241 94.9857 24.1969 95.0874C24.0696 95.1891 24.006 95.3232 24.006 95.4896C24.006 95.619 24.0455 95.7254 24.1245 95.8086C24.2034 95.8918 24.3263 95.9519 24.4931 95.9889L25.092 96.1207C25.3772 96.1854 25.5901 96.2894 25.7305 96.4327C25.8753 96.5714 25.9477 96.761 25.9477 97.0014C25.9477 97.3065 25.8314 97.5492 25.5988 97.7295C25.3663 97.9098 25.0569 98 24.6708 98Z" fill="black"/>
<path d="M27.8017 97.9861C27.7271 97.9861 27.6613 97.9653 27.6043 97.9237C27.5472 97.8821 27.5011 97.8151 27.466 97.7226L26.4853 94.914C26.459 94.8354 26.4502 94.7661 26.459 94.706C26.4721 94.6459 26.5007 94.5996 26.5446 94.5673C26.5884 94.5349 26.6433 94.5187 26.7091 94.5187C26.7749 94.5187 26.8276 94.5349 26.8671 94.5673C26.911 94.5996 26.9461 94.6597 26.9724 94.7476L27.8939 97.5215H27.7359L28.6837 94.7476C28.7144 94.6644 28.7517 94.6066 28.7956 94.5742C28.8439 94.5372 28.9053 94.5187 28.9799 94.5187C29.0501 94.5187 29.1094 94.5372 29.1576 94.5742C29.2059 94.6112 29.2432 94.669 29.2695 94.7476L30.1976 97.5215H30.0462L30.9809 94.7337C31.0116 94.6505 31.0489 94.595 31.0928 94.5673C31.1366 94.5349 31.1893 94.5187 31.2507 94.5187C31.3209 94.5187 31.3736 94.5372 31.4087 94.5742C31.4482 94.6112 31.4701 94.6597 31.4745 94.7198C31.4789 94.7799 31.4679 94.8447 31.4416 94.914L30.4609 97.7226C30.4302 97.8104 30.3841 97.8775 30.3227 97.9237C30.2656 97.9653 30.1998 97.9861 30.1252 97.9861C30.0506 97.9861 29.9848 97.9653 29.9277 97.9237C29.8707 97.8775 29.8268 97.8104 29.7961 97.7226L28.8219 94.9071H29.105L28.1374 97.7226C28.1067 97.8104 28.0628 97.8775 28.0058 97.9237C27.9487 97.9653 27.8807 97.9861 27.8017 97.9861Z" fill="black"/>
<path d="M33.5149 98C33.2033 98 32.9334 97.9283 32.7053 97.785C32.4771 97.6417 32.2994 97.4406 32.1721 97.1817C32.0492 96.9182 31.9878 96.6084 31.9878 96.2524C31.9878 95.9843 32.0229 95.7439 32.0931 95.5312C32.1633 95.3139 32.2665 95.129 32.4025 94.9764C32.5385 94.8239 32.6987 94.7083 32.883 94.6297C33.0717 94.5465 33.2823 94.5049 33.5149 94.5049C33.8264 94.5049 34.0963 94.5765 34.3244 94.7198C34.5526 94.8632 34.7281 95.0666 34.851 95.3301C34.9783 95.589 35.0419 95.8964 35.0419 96.2524C35.0419 96.5206 35.0068 96.761 34.9366 96.9736C34.8664 97.1863 34.7633 97.3712 34.6272 97.5284C34.4912 97.681 34.3288 97.7989 34.1402 97.8821C33.9559 97.9607 33.7474 98 33.5149 98ZM33.5149 97.5492C33.7123 97.5492 33.8856 97.4984 34.0348 97.3967C34.184 97.295 34.2981 97.147 34.3771 96.9528C34.4605 96.7587 34.5022 96.5252 34.5022 96.2524C34.5022 95.8317 34.4122 95.5104 34.2323 95.2885C34.0568 95.0666 33.8176 94.9556 33.5149 94.9556C33.313 94.9556 33.1375 95.0065 32.9883 95.1082C32.8435 95.2053 32.7294 95.3509 32.646 95.5451C32.567 95.7346 32.5275 95.9704 32.5275 96.2524C32.5275 96.6685 32.6175 96.9898 32.7974 97.2164C32.9773 97.4383 33.2165 97.5492 33.5149 97.5492Z" fill="black"/>
<path d="M36.1126 97.9861C36.0248 97.9861 35.9568 97.9607 35.9085 97.9098C35.8646 97.859 35.8427 97.7873 35.8427 97.6949V94.8031C35.8427 94.7106 35.8646 94.6412 35.9085 94.595C35.9524 94.5442 36.016 94.5187 36.0994 94.5187C36.1828 94.5187 36.2464 94.5442 36.2903 94.595C36.3385 94.6412 36.3627 94.7106 36.3627 94.8031V95.3648H36.2969C36.3671 95.092 36.5009 94.8816 36.6984 94.7337C36.8958 94.5858 37.1394 94.5072 37.429 94.4979C37.4948 94.4933 37.5474 94.5095 37.5869 94.5465C37.6264 94.5788 37.6484 94.6366 37.6528 94.7198C37.6572 94.7984 37.6396 94.8608 37.6001 94.9071C37.5606 94.9533 37.4992 94.981 37.4158 94.9903L37.3105 95.0042C37.0121 95.0319 36.7817 95.1336 36.6194 95.3093C36.4614 95.4804 36.3824 95.7161 36.3824 96.0166V97.6949C36.3824 97.7873 36.3583 97.859 36.31 97.9098C36.2661 97.9607 36.2003 97.9861 36.1126 97.9861Z" fill="black"/>
<path d="M39.3808 98C39.0956 98 38.8455 97.9283 38.6305 97.785C38.4198 97.6417 38.2553 97.4406 38.1368 97.1817C38.0227 96.9182 37.9657 96.6084 37.9657 96.2524C37.9657 95.8918 38.0227 95.5821 38.1368 95.3232C38.2553 95.0596 38.4198 94.8585 38.6305 94.7198C38.8455 94.5765 39.0956 94.5049 39.3808 94.5049C39.6704 94.5049 39.9183 94.5811 40.1246 94.7337C40.3308 94.8863 40.469 95.092 40.5393 95.3509H40.4669V93.2843C40.4669 93.1919 40.4888 93.1225 40.5327 93.0763C40.5809 93.0254 40.649 93 40.7367 93C40.8201 93 40.8837 93.0254 40.9276 93.0763C40.9759 93.1225 41 93.1919 41 93.2843V97.6949C41 97.7873 40.9781 97.859 40.9342 97.9098C40.8903 97.9607 40.8245 97.9861 40.7367 97.9861C40.6533 97.9861 40.5875 97.9607 40.5393 97.9098C40.4954 97.859 40.4734 97.7873 40.4734 97.6949V97.0361L40.5458 97.1331C40.4756 97.3967 40.3352 97.607 40.1246 97.7642C39.9183 97.9214 39.6704 98 39.3808 98ZM39.4927 97.5492C39.6902 97.5492 39.8635 97.4984 40.0127 97.3967C40.1619 97.295 40.276 97.147 40.355 96.9528C40.4383 96.7587 40.48 96.5252 40.48 96.2524C40.48 95.8317 40.3901 95.5104 40.2102 95.2885C40.0346 95.0666 39.7955 94.9556 39.4927 94.9556C39.2909 94.9556 39.1153 95.0065 38.9661 95.1082C38.8213 95.2053 38.7072 95.3509 38.6239 95.5451C38.5449 95.7346 38.5054 95.9704 38.5054 96.2524C38.5054 96.6685 38.5954 96.9898 38.7753 97.2164C38.9552 97.4383 39.1943 97.5492 39.4927 97.5492Z" fill="black"/>
<path d="M14.804 128C14.4262 128 14.1028 127.919 13.8339 127.757C13.565 127.594 13.3579 127.364 13.2126 127.065C13.0709 126.766 13 126.41 13 125.997C13 125.687 13.04 125.411 13.1199 125.167C13.2035 124.92 13.3216 124.712 13.4742 124.542C13.6304 124.369 13.8212 124.236 14.0465 124.144C14.2717 124.048 14.5243 124 14.804 124C15.0293 124 15.2437 124.033 15.4472 124.1C15.6507 124.162 15.8269 124.256 15.9759 124.382C16.0231 124.419 16.054 124.461 16.0685 124.509C16.0867 124.553 16.0885 124.598 16.074 124.642C16.0631 124.682 16.0413 124.717 16.0086 124.747C15.9795 124.773 15.9432 124.786 15.8996 124.786C15.856 124.786 15.8069 124.767 15.7524 124.73C15.6216 124.623 15.4781 124.544 15.3218 124.492C15.1656 124.441 14.9966 124.415 14.8149 124.415C14.5279 124.415 14.2845 124.478 14.0846 124.603C13.8848 124.725 13.734 124.904 13.6322 125.14C13.5305 125.376 13.4796 125.662 13.4796 125.997C13.4796 126.333 13.5305 126.621 13.6322 126.86C13.734 127.096 13.8848 127.277 14.0846 127.402C14.2845 127.524 14.5279 127.585 14.8149 127.585C14.993 127.585 15.162 127.559 15.3218 127.508C15.4817 127.452 15.6289 127.371 15.7633 127.264C15.8178 127.227 15.8669 127.211 15.9105 127.214C15.9541 127.214 15.9904 127.227 16.0195 127.253C16.0485 127.279 16.0685 127.312 16.0794 127.353C16.094 127.393 16.094 127.436 16.0794 127.48C16.0685 127.524 16.0413 127.563 15.9977 127.596C15.8451 127.729 15.6652 127.83 15.4581 127.9C15.2546 127.967 15.0366 128 14.804 128Z" fill="black"/>
<path d="M17.6583 128C17.4004 128 17.1769 127.943 16.988 127.828C16.799 127.714 16.6519 127.554 16.5465 127.347C16.4447 127.137 16.3939 126.89 16.3939 126.606C16.3939 126.392 16.4229 126.2 16.4811 126.03C16.5392 125.857 16.6246 125.71 16.7372 125.588C16.8499 125.466 16.9825 125.374 17.1351 125.311C17.2914 125.245 17.4658 125.212 17.6583 125.212C17.9163 125.212 18.1398 125.269 18.3287 125.383C18.5177 125.497 18.663 125.66 18.7648 125.87C18.8701 126.077 18.9228 126.322 18.9228 126.606C18.9228 126.82 18.8937 127.012 18.8356 127.181C18.7775 127.351 18.6921 127.498 18.5794 127.624C18.4668 127.746 18.3324 127.84 18.1761 127.906C18.0235 127.969 17.8509 128 17.6583 128ZM17.6583 127.64C17.8219 127.64 17.9654 127.6 18.0889 127.519C18.2125 127.438 18.3069 127.32 18.3723 127.165C18.4414 127.01 18.4759 126.823 18.4759 126.606C18.4759 126.27 18.4014 126.014 18.2524 125.837C18.1071 125.66 17.9091 125.571 17.6583 125.571C17.4912 125.571 17.3459 125.612 17.2223 125.693C17.1024 125.77 17.0079 125.887 16.9389 126.041C16.8735 126.193 16.8408 126.381 16.8408 126.606C16.8408 126.938 16.9153 127.194 17.0643 127.375C17.2132 127.552 17.4113 127.64 17.6583 127.64Z" fill="black"/>
<path d="M19.8039 127.989C19.7313 127.989 19.6768 127.969 19.6404 127.928C19.6041 127.888 19.5859 127.83 19.5859 127.757V125.45C19.5859 125.376 19.6041 125.32 19.6404 125.284C19.6768 125.243 19.7294 125.223 19.7985 125.223C19.8675 125.223 19.9202 125.243 19.9565 125.284C19.9965 125.32 20.0165 125.376 20.0165 125.45V125.925L19.9565 125.859C20.0328 125.645 20.1564 125.485 20.3272 125.378C20.5016 125.267 20.7014 125.212 20.9267 125.212C21.1374 125.212 21.3118 125.25 21.4499 125.328C21.5916 125.405 21.697 125.523 21.766 125.682C21.8351 125.837 21.8696 126.034 21.8696 126.274V127.757C21.8696 127.83 21.8496 127.888 21.8096 127.928C21.7733 127.969 21.7206 127.989 21.6516 127.989C21.5789 127.989 21.5226 127.969 21.4826 127.928C21.4463 127.888 21.4281 127.83 21.4281 127.757V126.302C21.4281 126.051 21.3791 125.868 21.281 125.754C21.1865 125.636 21.0339 125.577 20.8231 125.577C20.5797 125.577 20.3853 125.654 20.24 125.809C20.0982 125.96 20.0274 126.163 20.0274 126.418V127.757C20.0274 127.911 19.9529 127.989 19.8039 127.989Z" fill="black"/>
<path d="M23.0434 127.989C22.9743 127.989 22.9198 127.969 22.8799 127.928C22.8435 127.888 22.8254 127.83 22.8254 127.757V125.61H22.4765C22.4184 125.61 22.3712 125.595 22.3348 125.566C22.3021 125.533 22.2858 125.488 22.2858 125.433C22.2858 125.378 22.3021 125.335 22.3348 125.306C22.3712 125.276 22.4184 125.261 22.4765 125.261H22.9453L22.8254 125.378V125.167C22.8254 124.821 22.9071 124.555 23.0706 124.371C23.2378 124.186 23.483 124.081 23.8064 124.055L23.9699 124.039C24.0244 124.035 24.068 124.044 24.1007 124.066C24.1334 124.085 24.1534 124.111 24.1607 124.144C24.1716 124.177 24.1734 124.212 24.1661 124.249C24.1589 124.286 24.1425 124.317 24.1171 124.343C24.0953 124.369 24.068 124.384 24.0353 124.387L23.8718 124.398C23.6574 124.413 23.503 124.481 23.4085 124.603C23.3141 124.721 23.2668 124.891 23.2668 125.112V125.344L23.2014 125.261H24.6839C24.7529 125.261 24.8056 125.282 24.842 125.322C24.8819 125.363 24.9019 125.422 24.9019 125.499V127.734C24.9019 127.812 24.8837 127.873 24.8474 127.917C24.8111 127.958 24.7566 127.978 24.6839 127.978C24.6112 127.978 24.5549 127.958 24.5149 127.917C24.4786 127.873 24.4604 127.812 24.4604 127.734V125.61H23.2668V127.757C23.2668 127.911 23.1923 127.989 23.0434 127.989ZM24.6894 124.614C24.5985 124.614 24.5277 124.59 24.4768 124.542C24.4296 124.491 24.4059 124.422 24.4059 124.337C24.4059 124.249 24.4296 124.183 24.4768 124.138C24.5277 124.09 24.5985 124.066 24.6894 124.066C24.7802 124.066 24.8492 124.09 24.8965 124.138C24.9473 124.183 24.9728 124.249 24.9728 124.337C24.9728 124.422 24.9473 124.491 24.8965 124.542C24.8492 124.59 24.7802 124.614 24.6894 124.614Z" fill="black"/>
<path d="M25.9516 127.989C25.8789 127.989 25.8226 127.969 25.7827 127.928C25.7463 127.888 25.7281 127.83 25.7281 127.757V125.45C25.7281 125.376 25.7463 125.32 25.7827 125.284C25.819 125.243 25.8717 125.223 25.9407 125.223C26.0097 125.223 26.0624 125.243 26.0988 125.284C26.1387 125.32 26.1587 125.376 26.1587 125.45V125.898H26.1042C26.1624 125.68 26.2732 125.512 26.4367 125.394C26.6002 125.276 26.8019 125.213 27.0417 125.206C27.0962 125.202 27.1398 125.215 27.1725 125.245C27.2052 125.271 27.2233 125.317 27.227 125.383C27.2306 125.446 27.2161 125.496 27.1834 125.533C27.1507 125.569 27.0998 125.592 27.0308 125.599L26.9436 125.61C26.6965 125.632 26.5057 125.713 26.3713 125.853C26.2405 125.99 26.1751 126.178 26.1751 126.418V127.757C26.1751 127.83 26.1551 127.888 26.1151 127.928C26.0788 127.969 26.0243 127.989 25.9516 127.989Z" fill="black"/>
<path d="M27.9104 127.989C27.8378 127.989 27.7833 127.969 27.7469 127.928C27.7106 127.888 27.6924 127.83 27.6924 127.757V125.45C27.6924 125.376 27.7106 125.32 27.7469 125.284C27.7833 125.243 27.836 125.223 27.905 125.223C27.974 125.223 28.0267 125.243 28.063 125.284C28.103 125.32 28.123 125.376 28.123 125.45V125.936L28.063 125.859C28.1321 125.652 28.2429 125.494 28.3955 125.383C28.5518 125.269 28.7371 125.212 28.9514 125.212C29.1767 125.212 29.3584 125.267 29.4965 125.378C29.6382 125.485 29.7327 125.652 29.7799 125.881H29.6981C29.7635 125.675 29.8798 125.512 30.047 125.394C30.2177 125.272 30.4158 125.212 30.641 125.212C30.8409 125.212 31.0044 125.25 31.1316 125.328C31.2624 125.405 31.3605 125.523 31.4259 125.682C31.4913 125.837 31.524 126.034 31.524 126.274V127.757C31.524 127.83 31.504 127.888 31.464 127.928C31.4277 127.969 31.3732 127.989 31.3005 127.989C31.2315 127.989 31.177 127.969 31.137 127.928C31.1007 127.888 31.0825 127.83 31.0825 127.757V126.296C31.0825 126.049 31.0407 125.868 30.9572 125.754C30.8736 125.636 30.7319 125.577 30.532 125.577C30.314 125.577 30.1414 125.654 30.0143 125.809C29.8907 125.96 29.8289 126.167 29.8289 126.429V127.757C29.8289 127.83 29.809 127.888 29.769 127.928C29.7327 127.969 29.6782 127.989 29.6055 127.989C29.5364 127.989 29.4819 127.969 29.442 127.928C29.4056 127.888 29.3875 127.83 29.3875 127.757V126.296C29.3875 126.049 29.3439 125.868 29.2567 125.754C29.1731 125.636 29.0332 125.577 28.837 125.577C28.619 125.577 28.4464 125.654 28.3192 125.809C28.1957 125.96 28.1339 126.167 28.1339 126.429V127.757C28.1339 127.911 28.0594 127.989 27.9104 127.989Z" fill="black"/>
<path d="M34.038 127.989C33.9653 127.989 33.909 127.969 33.869 127.928C33.8327 127.884 33.8145 127.825 33.8145 127.751V124.282C33.8145 124.205 33.8345 124.148 33.8745 124.111C33.9144 124.07 33.9708 124.05 34.0434 124.05H35.3351C35.7457 124.05 36.0619 124.153 36.2835 124.36C36.5051 124.562 36.616 124.85 36.616 125.223C36.616 125.592 36.5051 125.879 36.2835 126.086C36.0619 126.292 35.7457 126.396 35.3351 126.396H34.2614V127.751C34.2614 127.825 34.2433 127.884 34.2069 127.928C34.1706 127.969 34.1143 127.989 34.038 127.989ZM34.2614 126.014H35.2806C35.575 126.014 35.7966 125.947 35.9456 125.815C36.0982 125.678 36.1745 125.481 36.1745 125.223C36.1745 124.961 36.0982 124.763 35.9456 124.631C35.7966 124.494 35.575 124.426 35.2806 124.426H34.2614V126.014Z" fill="black"/>
<path d="M37.9044 128C37.7227 128 37.5592 127.965 37.4139 127.895C37.2722 127.821 37.1595 127.722 37.076 127.596C36.9924 127.471 36.9506 127.331 36.9506 127.176C36.9506 126.976 36.9997 126.82 37.0978 126.705C37.1995 126.591 37.3648 126.51 37.5937 126.462C37.8263 126.414 38.1424 126.39 38.5421 126.39H38.7874V126.683H38.5475C38.2532 126.683 38.0207 126.698 37.8499 126.728C37.6828 126.753 37.5647 126.799 37.4956 126.866C37.4302 126.932 37.3975 127.026 37.3975 127.148C37.3975 127.299 37.4484 127.423 37.5501 127.519C37.6555 127.615 37.7972 127.663 37.9753 127.663C38.1206 127.663 38.2478 127.627 38.3568 127.557C38.4694 127.487 38.5566 127.391 38.6184 127.27C38.6838 127.148 38.7165 127.008 38.7165 126.849V126.219C38.7165 125.99 38.6711 125.826 38.5802 125.726C38.4894 125.623 38.3404 125.571 38.1333 125.571C38.0062 125.571 37.879 125.588 37.7518 125.621C37.6246 125.654 37.4902 125.708 37.3485 125.781C37.2976 125.807 37.254 125.817 37.2177 125.809C37.1813 125.798 37.1523 125.778 37.1305 125.748C37.1087 125.719 37.096 125.686 37.0923 125.649C37.0887 125.608 37.096 125.569 37.1141 125.533C37.1359 125.496 37.1686 125.466 37.2122 125.444C37.3721 125.363 37.5302 125.304 37.6864 125.267C37.8426 125.23 37.9916 125.212 38.1333 125.212C38.3622 125.212 38.5512 125.25 38.7002 125.328C38.8491 125.402 38.96 125.516 39.0326 125.671C39.1053 125.822 39.1416 126.018 39.1416 126.257V127.757C39.1416 127.83 39.1235 127.888 39.0871 127.928C39.0544 127.969 39.0054 127.989 38.94 127.989C38.8709 127.989 38.8182 127.969 38.7819 127.928C38.7456 127.888 38.7274 127.83 38.7274 127.757V127.325H38.7765C38.7474 127.465 38.6911 127.585 38.6075 127.685C38.5276 127.784 38.4276 127.862 38.3077 127.917C38.1878 127.972 38.0534 128 37.9044 128Z" fill="black"/>
<path d="M40.8545 128C40.691 128 40.5257 127.98 40.3585 127.939C40.195 127.899 40.0424 127.828 39.9007 127.729C39.8644 127.703 39.8389 127.674 39.8244 127.64C39.8099 127.604 39.8044 127.568 39.8081 127.535C39.8153 127.498 39.8299 127.467 39.8517 127.441C39.8771 127.415 39.9062 127.401 39.9389 127.397C39.9752 127.39 40.0152 127.397 40.0588 127.419C40.2005 127.508 40.3367 127.57 40.4675 127.607C40.602 127.64 40.7346 127.657 40.8654 127.657C41.0725 127.657 41.2288 127.618 41.3341 127.541C41.4395 127.463 41.4922 127.358 41.4922 127.225C41.4922 127.122 41.4577 127.041 41.3886 126.982C41.3196 126.919 41.2106 126.871 41.0616 126.838L40.5656 126.728C40.3367 126.68 40.166 126.597 40.0533 126.479C39.9443 126.361 39.8898 126.207 39.8898 126.019C39.8898 125.853 39.9316 125.711 40.0152 125.593C40.1024 125.472 40.2241 125.378 40.3803 125.311C40.5366 125.245 40.7183 125.212 40.9254 125.212C41.0852 125.212 41.236 125.234 41.3777 125.278C41.5231 125.319 41.6539 125.385 41.7702 125.477C41.8065 125.503 41.8301 125.534 41.841 125.571C41.8556 125.604 41.8574 125.639 41.8465 125.676C41.8392 125.71 41.8229 125.739 41.7974 125.765C41.772 125.787 41.7411 125.8 41.7048 125.804C41.6684 125.807 41.6303 125.796 41.5903 125.77C41.4813 125.697 41.3705 125.643 41.2578 125.61C41.1452 125.573 41.0344 125.555 40.9254 125.555C40.7219 125.555 40.5675 125.595 40.4621 125.676C40.3567 125.757 40.304 125.864 40.304 125.997C40.304 126.101 40.3367 126.185 40.4021 126.252C40.4675 126.318 40.5693 126.366 40.7074 126.396L41.2033 126.501C41.4395 126.552 41.6157 126.635 41.732 126.75C41.8519 126.86 41.9119 127.012 41.9119 127.203C41.9119 127.447 41.8156 127.64 41.623 127.784C41.4304 127.928 41.1743 128 40.8545 128Z" fill="black"/>
<path d="M43.4785 128C43.315 128 43.1497 127.98 42.9826 127.939C42.819 127.899 42.6664 127.828 42.5247 127.729C42.4884 127.703 42.463 127.674 42.4484 127.64C42.4339 127.604 42.4284 127.568 42.4321 127.535C42.4393 127.498 42.4539 127.467 42.4757 127.441C42.5011 127.415 42.5302 127.401 42.5629 127.397C42.5992 127.39 42.6392 127.397 42.6828 127.419C42.8245 127.508 42.9608 127.57 43.0916 127.607C43.226 127.64 43.3586 127.657 43.4894 127.657C43.6965 127.657 43.8528 127.618 43.9582 127.541C44.0635 127.463 44.1162 127.358 44.1162 127.225C44.1162 127.122 44.0817 127.041 44.0127 126.982C43.9436 126.919 43.8346 126.871 43.6856 126.838L43.1897 126.728C42.9608 126.68 42.79 126.597 42.6773 126.479C42.5683 126.361 42.5138 126.207 42.5138 126.019C42.5138 125.853 42.5556 125.711 42.6392 125.593C42.7264 125.472 42.8481 125.378 43.0044 125.311C43.1606 125.245 43.3423 125.212 43.5494 125.212C43.7093 125.212 43.8601 125.234 44.0018 125.278C44.1471 125.319 44.2779 125.385 44.3942 125.477C44.4305 125.503 44.4541 125.534 44.465 125.571C44.4796 125.604 44.4814 125.639 44.4705 125.676C44.4632 125.71 44.4469 125.739 44.4214 125.765C44.396 125.787 44.3651 125.8 44.3288 125.804C44.2924 125.807 44.2543 125.796 44.2143 125.77C44.1053 125.697 43.9945 125.643 43.8819 125.61C43.7692 125.573 43.6584 125.555 43.5494 125.555C43.3459 125.555 43.1915 125.595 43.0861 125.676C42.9807 125.757 42.9281 125.864 42.9281 125.997C42.9281 126.101 42.9608 126.185 43.0262 126.252C43.0916 126.318 43.1933 126.366 43.3314 126.396L43.8274 126.501C44.0635 126.552 44.2398 126.635 44.356 126.75C44.4759 126.86 44.5359 127.012 44.5359 127.203C44.5359 127.447 44.4396 127.64 44.247 127.784C44.0545 127.928 43.7983 128 43.4785 128Z" fill="black"/>
<path d="M46.0711 127.989C46.0094 127.989 45.9549 127.972 45.9076 127.939C45.8604 127.906 45.8222 127.852 45.7932 127.779L44.9811 125.538C44.9593 125.475 44.952 125.42 44.9593 125.372C44.9702 125.324 44.9938 125.287 45.0301 125.261C45.0665 125.236 45.1119 125.223 45.1664 125.223C45.2209 125.223 45.2645 125.236 45.2972 125.261C45.3335 125.287 45.3626 125.335 45.3844 125.405L46.1474 127.618H46.0166L46.8015 125.405C46.8269 125.339 46.8578 125.293 46.8941 125.267C46.9341 125.237 46.985 125.223 47.0467 125.223C47.1049 125.223 47.1539 125.237 47.1939 125.267C47.2339 125.296 47.2647 125.343 47.2865 125.405L48.055 127.618H47.9297L48.7036 125.394C48.7291 125.328 48.7599 125.284 48.7963 125.261C48.8326 125.236 48.8762 125.223 48.9271 125.223C48.9852 125.223 49.0288 125.237 49.0579 125.267C49.0906 125.296 49.1088 125.335 49.1124 125.383C49.116 125.431 49.1069 125.483 49.0851 125.538L48.2731 127.779C48.2476 127.849 48.2095 127.902 48.1586 127.939C48.1114 127.972 48.0569 127.989 47.9951 127.989C47.9333 127.989 47.8788 127.972 47.8316 127.939C47.7843 127.902 47.748 127.849 47.7226 127.779L46.9159 125.533H47.1503L46.3491 127.779C46.3237 127.849 46.2873 127.902 46.2401 127.939C46.1929 127.972 46.1365 127.989 46.0711 127.989Z" fill="black"/>
<path d="M50.8019 128C50.5439 128 50.3205 127.943 50.1315 127.828C49.9426 127.714 49.7954 127.554 49.69 127.347C49.5883 127.137 49.5374 126.89 49.5374 126.606C49.5374 126.392 49.5665 126.2 49.6246 126.03C49.6828 125.857 49.7682 125.71 49.8808 125.588C49.9934 125.466 50.1261 125.374 50.2787 125.311C50.4349 125.245 50.6093 125.212 50.8019 125.212C51.0599 125.212 51.2833 125.269 51.4723 125.383C51.6612 125.497 51.8066 125.66 51.9083 125.87C52.0137 126.077 52.0664 126.322 52.0664 126.606C52.0664 126.82 52.0373 127.012 51.9792 127.181C51.921 127.351 51.8356 127.498 51.723 127.624C51.6104 127.746 51.4759 127.84 51.3197 127.906C51.1671 127.969 50.9945 128 50.8019 128ZM50.8019 127.64C50.9654 127.64 51.1089 127.6 51.2325 127.519C51.356 127.438 51.4505 127.32 51.5159 127.165C51.5849 127.01 51.6194 126.823 51.6194 126.606C51.6194 126.27 51.545 126.014 51.396 125.837C51.2506 125.66 51.0526 125.571 50.8019 125.571C50.6348 125.571 50.4894 125.612 50.3659 125.693C50.246 125.77 50.1515 125.887 50.0825 126.041C50.0171 126.193 49.9844 126.381 49.9844 126.606C49.9844 126.938 50.0588 127.194 50.2078 127.375C50.3568 127.552 50.5548 127.64 50.8019 127.64Z" fill="black"/>
<path d="M52.9529 127.989C52.8803 127.989 52.8239 127.969 52.784 127.928C52.7476 127.888 52.7295 127.83 52.7295 127.757V125.45C52.7295 125.376 52.7476 125.32 52.784 125.284C52.8203 125.243 52.873 125.223 52.942 125.223C53.0111 125.223 53.0638 125.243 53.1001 125.284C53.1401 125.32 53.1601 125.376 53.1601 125.45V125.898H53.1055C53.1637 125.68 53.2745 125.512 53.438 125.394C53.6015 125.276 53.8032 125.213 54.043 125.206C54.0975 125.202 54.1411 125.215 54.1738 125.245C54.2065 125.271 54.2247 125.317 54.2283 125.383C54.2319 125.446 54.2174 125.496 54.1847 125.533C54.152 125.569 54.1011 125.592 54.0321 125.599L53.9449 125.61C53.6978 125.632 53.5071 125.713 53.3726 125.853C53.2418 125.99 53.1764 126.178 53.1764 126.418V127.757C53.1764 127.83 53.1564 127.888 53.1165 127.928C53.0801 127.969 53.0256 127.989 52.9529 127.989Z" fill="black"/>
<path d="M55.6592 128C55.423 128 55.2159 127.943 55.0379 127.828C54.8635 127.714 54.7272 127.554 54.6291 127.347C54.5346 127.137 54.4874 126.89 54.4874 126.606C54.4874 126.318 54.5346 126.071 54.6291 125.864C54.7272 125.654 54.8635 125.494 55.0379 125.383C55.2159 125.269 55.423 125.212 55.6592 125.212C55.899 125.212 56.1043 125.272 56.2751 125.394C56.4459 125.516 56.5603 125.68 56.6185 125.887H56.5585V124.238C56.5585 124.164 56.5767 124.109 56.613 124.072C56.653 124.031 56.7093 124.011 56.782 124.011C56.851 124.011 56.9037 124.031 56.94 124.072C56.98 124.109 57 124.164 57 124.238V127.757C57 127.83 56.9818 127.888 56.9455 127.928C56.9092 127.969 56.8547 127.989 56.782 127.989C56.7129 127.989 56.6584 127.969 56.6185 127.928C56.5821 127.888 56.564 127.83 56.564 127.757V127.231L56.6239 127.308C56.5658 127.519 56.4495 127.686 56.2751 127.812C56.1043 127.937 55.899 128 55.6592 128ZM55.7519 127.64C55.9154 127.64 56.0589 127.6 56.1825 127.519C56.306 127.438 56.4005 127.32 56.4659 127.165C56.5349 127.01 56.5694 126.823 56.5694 126.606C56.5694 126.27 56.4949 126.014 56.346 125.837C56.2006 125.66 56.0026 125.571 55.7519 125.571C55.5847 125.571 55.4394 125.612 55.3159 125.693C55.1959 125.77 55.1015 125.887 55.0324 126.041C54.967 126.193 54.9343 126.381 54.9343 126.606C54.9343 126.938 55.0088 127.194 55.1578 127.375C55.3068 127.552 55.5048 127.64 55.7519 127.64Z" fill="black"/>
<path d="M20.6506 110.517C20.5899 110.485 20.5549 110.438 20.5456 110.377C20.5409 110.317 20.5596 110.251 20.6016 110.181L21.0916 109.411L21.1686 109.523L20.2516 109.558C20.1676 109.558 20.0999 109.542 20.0486 109.509C20.0019 109.472 19.9786 109.418 19.9786 109.348C19.9786 109.283 20.0019 109.234 20.0486 109.201C20.0999 109.164 20.1676 109.148 20.2516 109.152L21.1686 109.187L21.0916 109.292L20.6086 108.515C20.5619 108.445 20.5432 108.38 20.5526 108.319C20.5619 108.259 20.5946 108.212 20.6506 108.179C20.7066 108.147 20.7626 108.144 20.8186 108.172C20.8792 108.2 20.9282 108.252 20.9656 108.326L21.3646 109.096H21.2946L21.6936 108.326C21.7356 108.252 21.7846 108.2 21.8406 108.172C21.9012 108.144 21.9596 108.147 22.0156 108.179C22.0716 108.217 22.1019 108.266 22.1066 108.326C22.1159 108.387 22.0972 108.452 22.0506 108.522L21.5676 109.292L21.4906 109.187L22.4076 109.152C22.4916 109.148 22.5569 109.164 22.6036 109.201C22.6549 109.234 22.6806 109.283 22.6806 109.348C22.6806 109.418 22.6549 109.472 22.6036 109.509C22.5569 109.542 22.4916 109.558 22.4076 109.558L21.4906 109.523L21.5676 109.411L22.0506 110.181C22.0972 110.251 22.1159 110.317 22.1066 110.377C22.1019 110.433 22.0716 110.478 22.0156 110.51C21.9549 110.548 21.8942 110.552 21.8336 110.524C21.7776 110.496 21.7309 110.447 21.6936 110.377L21.2946 109.607H21.3646L20.9586 110.377C20.9212 110.452 20.8746 110.503 20.8186 110.531C20.7626 110.559 20.7066 110.555 20.6506 110.517ZM26.1119 110.517C26.0513 110.485 26.0163 110.438 26.0069 110.377C26.0023 110.317 26.0209 110.251 26.0629 110.181L26.5529 109.411L26.6299 109.523L25.7129 109.558C25.6289 109.558 25.5613 109.542 25.5099 109.509C25.4633 109.472 25.4399 109.418 25.4399 109.348C25.4399 109.283 25.4633 109.234 25.5099 109.201C25.5613 109.164 25.6289 109.148 25.7129 109.152L26.6299 109.187L26.5529 109.292L26.0699 108.515C26.0233 108.445 26.0046 108.38 26.0139 108.319C26.0233 108.259 26.0559 108.212 26.1119 108.179C26.1679 108.147 26.2239 108.144 26.2799 108.172C26.3406 108.2 26.3896 108.252 26.4269 108.326L26.8259 109.096H26.7559L27.1549 108.326C27.1969 108.252 27.2459 108.2 27.3019 108.172C27.3626 108.144 27.4209 108.147 27.4769 108.179C27.5329 108.217 27.5633 108.266 27.5679 108.326C27.5773 108.387 27.5586 108.452 27.5119 108.522L27.0289 109.292L26.9519 109.187L27.8689 109.152C27.9529 109.148 28.0183 109.164 28.0649 109.201C28.1163 109.234 28.1419 109.283 28.1419 109.348C28.1419 109.418 28.1163 109.472 28.0649 109.509C28.0183 109.542 27.9529 109.558 27.8689 109.558L26.9519 109.523L27.0289 109.411L27.5119 110.181C27.5586 110.251 27.5773 110.317 27.5679 110.377C27.5633 110.433 27.5329 110.478 27.4769 110.51C27.4163 110.548 27.3556 110.552 27.2949 110.524C27.2389 110.496 27.1923 110.447 27.1549 110.377L26.7559 109.607H26.8259L26.4199 110.377C26.3826 110.452 26.3359 110.503 26.2799 110.531C26.2239 110.559 26.1679 110.555 26.1119 110.517ZM31.5733 110.517C31.5126 110.485 31.4776 110.438 31.4683 110.377C31.4636 110.317 31.4823 110.251 31.5243 110.181L32.0143 109.411L32.0913 109.523L31.1743 109.558C31.0903 109.558 31.0226 109.542 30.9713 109.509C30.9246 109.472 30.9013 109.418 30.9013 109.348C30.9013 109.283 30.9246 109.234 30.9713 109.201C31.0226 109.164 31.0903 109.148 31.1743 109.152L32.0913 109.187L32.0143 109.292L31.5313 108.515C31.4846 108.445 31.466 108.38 31.4753 108.319C31.4846 108.259 31.5173 108.212 31.5733 108.179C31.6293 108.147 31.6853 108.144 31.7413 108.172C31.802 108.2 31.851 108.252 31.8883 108.326L32.2873 109.096H32.2173L32.6163 108.326C32.6583 108.252 32.7073 108.2 32.7633 108.172C32.824 108.144 32.8823 108.147 32.9383 108.179C32.9943 108.217 33.0246 108.266 33.0293 108.326C33.0386 108.387 33.02 108.452 32.9733 108.522L32.4903 109.292L32.4133 109.187L33.3303 109.152C33.4143 109.148 33.4796 109.164 33.5263 109.201C33.5776 109.234 33.6033 109.283 33.6033 109.348C33.6033 109.418 33.5776 109.472 33.5263 109.509C33.4796 109.542 33.4143 109.558 33.3303 109.558L32.4133 109.523L32.4903 109.411L32.9733 110.181C33.02 110.251 33.0386 110.317 33.0293 110.377C33.0246 110.433 32.9943 110.478 32.9383 110.51C32.8776 110.548 32.817 110.552 32.7563 110.524C32.7003 110.496 32.6536 110.447 32.6163 110.377L32.2173 109.607H32.2873L31.8813 110.377C31.844 110.452 31.7973 110.503 31.7413 110.531C31.6853 110.559 31.6293 110.555 31.5733 110.517ZM37.0347 110.517C36.974 110.485 36.939 110.438 36.9297 110.377C36.925 110.317 36.9437 110.251 36.9857 110.181L37.4757 109.411L37.5527 109.523L36.6357 109.558C36.5517 109.558 36.484 109.542 36.4327 109.509C36.386 109.472 36.3627 109.418 36.3627 109.348C36.3627 109.283 36.386 109.234 36.4327 109.201C36.484 109.164 36.5517 109.148 36.6357 109.152L37.5527 109.187L37.4757 109.292L36.9927 108.515C36.946 108.445 36.9273 108.38 36.9367 108.319C36.946 108.259 36.9787 108.212 37.0347 108.179C37.0907 108.147 37.1467 108.144 37.2027 108.172C37.2633 108.2 37.3123 108.252 37.3497 108.326L37.7487 109.096H37.6787L38.0777 108.326C38.1197 108.252 38.1687 108.2 38.2247 108.172C38.2853 108.144 38.3437 108.147 38.3997 108.179C38.4557 108.217 38.486 108.266 38.4907 108.326C38.5 108.387 38.4813 108.452 38.4347 108.522L37.9517 109.292L37.8747 109.187L38.7917 109.152C38.8757 109.148 38.941 109.164 38.9877 109.201C39.039 109.234 39.0647 109.283 39.0647 109.348C39.0647 109.418 39.039 109.472 38.9877 109.509C38.941 109.542 38.8757 109.558 38.7917 109.558L37.8747 109.523L37.9517 109.411L38.4347 110.181C38.4813 110.251 38.5 110.317 38.4907 110.377C38.486 110.433 38.4557 110.478 38.3997 110.51C38.339 110.548 38.2783 110.552 38.2177 110.524C38.1617 110.496 38.115 110.447 38.0777 110.377L37.6787 109.607H37.7487L37.3427 110.377C37.3053 110.452 37.2587 110.503 37.2027 110.531C37.1467 110.559 37.0907 110.555 37.0347 110.517ZM42.496 110.517C42.4354 110.485 42.4004 110.438 42.391 110.377C42.3864 110.317 42.405 110.251 42.447 110.181L42.937 109.411L43.014 109.523L42.097 109.558C42.013 109.558 41.9454 109.542 41.894 109.509C41.8474 109.472 41.824 109.418 41.824 109.348C41.824 109.283 41.8474 109.234 41.894 109.201C41.9454 109.164 42.013 109.148 42.097 109.152L43.014 109.187L42.937 109.292L42.454 108.515C42.4074 108.445 42.3887 108.38 42.398 108.319C42.4074 108.259 42.44 108.212 42.496 108.179C42.552 108.147 42.608 108.144 42.664 108.172C42.7247 108.2 42.7737 108.252 42.811 108.326L43.21 109.096H43.14L43.539 108.326C43.581 108.252 43.63 108.2 43.686 108.172C43.7467 108.144 43.805 108.147 43.861 108.179C43.917 108.217 43.9474 108.266 43.952 108.326C43.9614 108.387 43.9427 108.452 43.896 108.522L43.413 109.292L43.336 109.187L44.253 109.152C44.337 109.148 44.4024 109.164 44.449 109.201C44.5004 109.234 44.526 109.283 44.526 109.348C44.526 109.418 44.5004 109.472 44.449 109.509C44.4024 109.542 44.337 109.558 44.253 109.558L43.336 109.523L43.413 109.411L43.896 110.181C43.9427 110.251 43.9614 110.317 43.952 110.377C43.9474 110.433 43.917 110.478 43.861 110.51C43.8004 110.548 43.7397 110.552 43.679 110.524C43.623 110.496 43.5764 110.447 43.539 110.377L43.14 109.607H43.21L42.804 110.377C42.7667 110.452 42.72 110.503 42.664 110.531C42.608 110.559 42.552 110.555 42.496 110.517ZM47.9574 110.517C47.8967 110.485 47.8617 110.438 47.8524 110.377C47.8477 110.317 47.8664 110.251 47.9084 110.181L48.3984 109.411L48.4754 109.523L47.5584 109.558C47.4744 109.558 47.4067 109.542 47.3554 109.509C47.3087 109.472 47.2854 109.418 47.2854 109.348C47.2854 109.283 47.3087 109.234 47.3554 109.201C47.4067 109.164 47.4744 109.148 47.5584 109.152L48.4754 109.187L48.3984 109.292L47.9154 108.515C47.8687 108.445 47.8501 108.38 47.8594 108.319C47.8687 108.259 47.9014 108.212 47.9574 108.179C48.0134 108.147 48.0694 108.144 48.1254 108.172C48.1861 108.2 48.2351 108.252 48.2724 108.326L48.6714 109.096H48.6014L49.0004 108.326C49.0424 108.252 49.0914 108.2 49.1474 108.172C49.2081 108.144 49.2664 108.147 49.3224 108.179C49.3784 108.217 49.4087 108.266 49.4134 108.326C49.4227 108.387 49.4041 108.452 49.3574 108.522L48.8744 109.292L48.7974 109.187L49.7144 109.152C49.7984 109.148 49.8637 109.164 49.9104 109.201C49.9617 109.234 49.9874 109.283 49.9874 109.348C49.9874 109.418 49.9617 109.472 49.9104 109.509C49.8637 109.542 49.7984 109.558 49.7144 109.558L48.7974 109.523L48.8744 109.411L49.3574 110.181C49.4041 110.251 49.4227 110.317 49.4134 110.377C49.4087 110.433 49.3784 110.478 49.3224 110.51C49.2617 110.548 49.2011 110.552 49.1404 110.524C49.0844 110.496 49.0377 110.447 49.0004 110.377L48.6014 109.607H48.6714L48.2654 110.377C48.2281 110.452 48.1814 110.503 48.1254 110.531C48.0694 110.559 48.0134 110.555 47.9574 110.517ZM53.4188 110.517C53.3581 110.485 53.3231 110.438 53.3138 110.377C53.3091 110.317 53.3278 110.251 53.3698 110.181L53.8598 109.411L53.9368 109.523L53.0198 109.558C52.9358 109.558 52.8681 109.542 52.8168 109.509C52.7701 109.472 52.7468 109.418 52.7468 109.348C52.7468 109.283 52.7701 109.234 52.8168 109.201C52.8681 109.164 52.9358 109.148 53.0198 109.152L53.9368 109.187L53.8598 109.292L53.3768 108.515C53.3301 108.445 53.3114 108.38 53.3208 108.319C53.3301 108.259 53.3628 108.212 53.4188 108.179C53.4748 108.147 53.5308 108.144 53.5868 108.172C53.6474 108.2 53.6964 108.252 53.7338 108.326L54.1328 109.096H54.0628L54.4618 108.326C54.5038 108.252 54.5528 108.2 54.6088 108.172C54.6694 108.144 54.7278 108.147 54.7838 108.179C54.8398 108.217 54.8701 108.266 54.8748 108.326C54.8841 108.387 54.8654 108.452 54.8188 108.522L54.3358 109.292L54.2588 109.187L55.1758 109.152C55.2598 109.148 55.3251 109.164 55.3718 109.201C55.4231 109.234 55.4488 109.283 55.4488 109.348C55.4488 109.418 55.4231 109.472 55.3718 109.509C55.3251 109.542 55.2598 109.558 55.1758 109.558L54.2588 109.523L54.3358 109.411L54.8188 110.181C54.8654 110.251 54.8841 110.317 54.8748 110.377C54.8701 110.433 54.8398 110.478 54.7838 110.51C54.7231 110.548 54.6624 110.552 54.6018 110.524C54.5458 110.496 54.4991 110.447 54.4618 110.377L54.0628 109.607H54.1328L53.7268 110.377C53.6894 110.452 53.6428 110.503 53.5868 110.531C53.5308 110.559 53.4748 110.555 53.4188 110.517ZM58.8801 110.517C58.8195 110.485 58.7845 110.438 58.7751 110.377C58.7705 110.317 58.7891 110.251 58.8311 110.181L59.3211 109.411L59.3981 109.523L58.4811 109.558C58.3971 109.558 58.3295 109.542 58.2781 109.509C58.2315 109.472 58.2081 109.418 58.2081 109.348C58.2081 109.283 58.2315 109.234 58.2781 109.201C58.3295 109.164 58.3971 109.148 58.4811 109.152L59.3981 109.187L59.3211 109.292L58.8381 108.515C58.7915 108.445 58.7728 108.38 58.7821 108.319C58.7915 108.259 58.8241 108.212 58.8801 108.179C58.9361 108.147 58.9921 108.144 59.0481 108.172C59.1088 108.2 59.1578 108.252 59.1951 108.326L59.5941 109.096H59.5241L59.9231 108.326C59.9651 108.252 60.0141 108.2 60.0701 108.172C60.1308 108.144 60.1891 108.147 60.2451 108.179C60.3011 108.217 60.3315 108.266 60.3361 108.326C60.3455 108.387 60.3268 108.452 60.2801 108.522L59.7971 109.292L59.7201 109.187L60.6371 109.152C60.7211 109.148 60.7865 109.164 60.8331 109.201C60.8845 109.234 60.9101 109.283 60.9101 109.348C60.9101 109.418 60.8845 109.472 60.8331 109.509C60.7865 109.542 60.7211 109.558 60.6371 109.558L59.7201 109.523L59.7971 109.411L60.2801 110.181C60.3268 110.251 60.3455 110.317 60.3361 110.377C60.3315 110.433 60.3011 110.478 60.2451 110.51C60.1845 110.548 60.1238 110.552 60.0631 110.524C60.0071 110.496 59.9605 110.447 59.9231 110.377L59.5241 109.607H59.5941L59.1881 110.377C59.1508 110.452 59.1041 110.503 59.0481 110.531C58.9921 110.559 58.9361 110.555 58.8801 110.517ZM64.3415 110.517C64.2808 110.485 64.2458 110.438 64.2365 110.377C64.2318 110.317 64.2505 110.251 64.2925 110.181L64.7825 109.411L64.8595 109.523L63.9425 109.558C63.8585 109.558 63.7908 109.542 63.7395 109.509C63.6928 109.472 63.6695 109.418 63.6695 109.348C63.6695 109.283 63.6928 109.234 63.7395 109.201C63.7908 109.164 63.8585 109.148 63.9425 109.152L64.8595 109.187L64.7825 109.292L64.2995 108.515C64.2528 108.445 64.2342 108.38 64.2435 108.319C64.2528 108.259 64.2855 108.212 64.3415 108.179C64.3975 108.147 64.4535 108.144 64.5095 108.172C64.5702 108.2 64.6192 108.252 64.6565 108.326L65.0555 109.096H64.9855L65.3845 108.326C65.4265 108.252 65.4755 108.2 65.5315 108.172C65.5922 108.144 65.6505 108.147 65.7065 108.179C65.7625 108.217 65.7928 108.266 65.7975 108.326C65.8068 108.387 65.7882 108.452 65.7415 108.522L65.2585 109.292L65.1815 109.187L66.0985 109.152C66.1825 109.148 66.2478 109.164 66.2945 109.201C66.3458 109.234 66.3715 109.283 66.3715 109.348C66.3715 109.418 66.3458 109.472 66.2945 109.509C66.2478 109.542 66.1825 109.558 66.0985 109.558L65.1815 109.523L65.2585 109.411L65.7415 110.181C65.7882 110.251 65.8068 110.317 65.7975 110.377C65.7928 110.433 65.7625 110.478 65.7065 110.51C65.6458 110.548 65.5852 110.552 65.5245 110.524C65.4685 110.496 65.4218 110.447 65.3845 110.377L64.9855 109.607H65.0555L64.6495 110.377C64.6122 110.452 64.5655 110.503 64.5095 110.531C64.4535 110.559 64.3975 110.555 64.3415 110.517ZM69.8029 110.517C69.7422 110.485 69.7072 110.438 69.6979 110.377C69.6932 110.317 69.7119 110.251 69.7539 110.181L70.2439 109.411L70.3209 109.523L69.4039 109.558C69.3199 109.558 69.2522 109.542 69.2009 109.509C69.1542 109.472 69.1309 109.418 69.1309 109.348C69.1309 109.283 69.1542 109.234 69.2009 109.201C69.2522 109.164 69.3199 109.148 69.4039 109.152L70.3209 109.187L70.2439 109.292L69.7609 108.515C69.7142 108.445 69.6955 108.38 69.7049 108.319C69.7142 108.259 69.7469 108.212 69.8029 108.179C69.8589 108.147 69.9149 108.144 69.9709 108.172C70.0315 108.2 70.0805 108.252 70.1179 108.326L70.5169 109.096H70.4469L70.8459 108.326C70.8879 108.252 70.9369 108.2 70.9929 108.172C71.0536 108.144 71.1119 108.147 71.1679 108.179C71.2239 108.217 71.2542 108.266 71.2589 108.326C71.2682 108.387 71.2496 108.452 71.2029 108.522L70.7199 109.292L70.6429 109.187L71.5599 109.152C71.6439 109.148 71.7092 109.164 71.7559 109.201C71.8072 109.234 71.8329 109.283 71.8329 109.348C71.8329 109.418 71.8072 109.472 71.7559 109.509C71.7092 109.542 71.6439 109.558 71.5599 109.558L70.6429 109.523L70.7199 109.411L71.2029 110.181C71.2496 110.251 71.2682 110.317 71.2589 110.377C71.2542 110.433 71.2239 110.478 71.1679 110.51C71.1072 110.548 71.0465 110.552 70.9859 110.524C70.9299 110.496 70.8832 110.447 70.8459 110.377L70.4469 109.607H70.5169L70.1109 110.377C70.0735 110.452 70.0269 110.503 69.9709 110.531C69.9149 110.559 69.8589 110.555 69.8029 110.517Z" fill="#FEDC65"/>
<path d="M20.6506 140.545C20.5899 140.512 20.5549 140.465 20.5456 140.405C20.5409 140.344 20.5596 140.279 20.6016 140.209L21.0916 139.439L21.1686 139.551L20.2516 139.586C20.1676 139.586 20.0999 139.569 20.0486 139.537C20.0019 139.499 19.9786 139.446 19.9786 139.376C19.9786 139.31 20.0019 139.261 20.0486 139.229C20.0999 139.191 20.1676 139.175 20.2516 139.18L21.1686 139.215L21.0916 139.32L20.6086 138.543C20.5619 138.473 20.5432 138.407 20.5526 138.347C20.5619 138.286 20.5946 138.239 20.6506 138.207C20.7066 138.174 20.7626 138.172 20.8186 138.2C20.8792 138.228 20.9282 138.279 20.9656 138.354L21.3646 139.124H21.2946L21.6936 138.354C21.7356 138.279 21.7846 138.228 21.8406 138.2C21.9012 138.172 21.9596 138.174 22.0156 138.207C22.0716 138.244 22.1019 138.293 22.1066 138.354C22.1159 138.414 22.0972 138.48 22.0506 138.55L21.5676 139.32L21.4906 139.215L22.4076 139.18C22.4916 139.175 22.5569 139.191 22.6036 139.229C22.6549 139.261 22.6806 139.31 22.6806 139.376C22.6806 139.446 22.6549 139.499 22.6036 139.537C22.5569 139.569 22.4916 139.586 22.4076 139.586L21.4906 139.551L21.5676 139.439L22.0506 140.209C22.0972 140.279 22.1159 140.344 22.1066 140.405C22.1019 140.461 22.0716 140.505 22.0156 140.538C21.9549 140.575 21.8942 140.58 21.8336 140.552C21.7776 140.524 21.7309 140.475 21.6936 140.405L21.2946 139.635H21.3646L20.9586 140.405C20.9212 140.479 20.8746 140.531 20.8186 140.559C20.7626 140.587 20.7066 140.582 20.6506 140.545ZM26.1119 140.545C26.0513 140.512 26.0163 140.465 26.0069 140.405C26.0023 140.344 26.0209 140.279 26.0629 140.209L26.5529 139.439L26.6299 139.551L25.7129 139.586C25.6289 139.586 25.5613 139.569 25.5099 139.537C25.4633 139.499 25.4399 139.446 25.4399 139.376C25.4399 139.31 25.4633 139.261 25.5099 139.229C25.5613 139.191 25.6289 139.175 25.7129 139.18L26.6299 139.215L26.5529 139.32L26.0699 138.543C26.0233 138.473 26.0046 138.407 26.0139 138.347C26.0233 138.286 26.0559 138.239 26.1119 138.207C26.1679 138.174 26.2239 138.172 26.2799 138.2C26.3406 138.228 26.3896 138.279 26.4269 138.354L26.8259 139.124H26.7559L27.1549 138.354C27.1969 138.279 27.2459 138.228 27.3019 138.2C27.3626 138.172 27.4209 138.174 27.4769 138.207C27.5329 138.244 27.5633 138.293 27.5679 138.354C27.5773 138.414 27.5586 138.48 27.5119 138.55L27.0289 139.32L26.9519 139.215L27.8689 139.18C27.9529 139.175 28.0183 139.191 28.0649 139.229C28.1163 139.261 28.1419 139.31 28.1419 139.376C28.1419 139.446 28.1163 139.499 28.0649 139.537C28.0183 139.569 27.9529 139.586 27.8689 139.586L26.9519 139.551L27.0289 139.439L27.5119 140.209C27.5586 140.279 27.5773 140.344 27.5679 140.405C27.5633 140.461 27.5329 140.505 27.4769 140.538C27.4163 140.575 27.3556 140.58 27.2949 140.552C27.2389 140.524 27.1923 140.475 27.1549 140.405L26.7559 139.635H26.8259L26.4199 140.405C26.3826 140.479 26.3359 140.531 26.2799 140.559C26.2239 140.587 26.1679 140.582 26.1119 140.545ZM31.5733 140.545C31.5126 140.512 31.4776 140.465 31.4683 140.405C31.4636 140.344 31.4823 140.279 31.5243 140.209L32.0143 139.439L32.0913 139.551L31.1743 139.586C31.0903 139.586 31.0226 139.569 30.9713 139.537C30.9246 139.499 30.9013 139.446 30.9013 139.376C30.9013 139.31 30.9246 139.261 30.9713 139.229C31.0226 139.191 31.0903 139.175 31.1743 139.18L32.0913 139.215L32.0143 139.32L31.5313 138.543C31.4846 138.473 31.466 138.407 31.4753 138.347C31.4846 138.286 31.5173 138.239 31.5733 138.207C31.6293 138.174 31.6853 138.172 31.7413 138.2C31.802 138.228 31.851 138.279 31.8883 138.354L32.2873 139.124H32.2173L32.6163 138.354C32.6583 138.279 32.7073 138.228 32.7633 138.2C32.824 138.172 32.8823 138.174 32.9383 138.207C32.9943 138.244 33.0246 138.293 33.0293 138.354C33.0386 138.414 33.02 138.48 32.9733 138.55L32.4903 139.32L32.4133 139.215L33.3303 139.18C33.4143 139.175 33.4796 139.191 33.5263 139.229C33.5776 139.261 33.6033 139.31 33.6033 139.376C33.6033 139.446 33.5776 139.499 33.5263 139.537C33.4796 139.569 33.4143 139.586 33.3303 139.586L32.4133 139.551L32.4903 139.439L32.9733 140.209C33.02 140.279 33.0386 140.344 33.0293 140.405C33.0246 140.461 32.9943 140.505 32.9383 140.538C32.8776 140.575 32.817 140.58 32.7563 140.552C32.7003 140.524 32.6536 140.475 32.6163 140.405L32.2173 139.635H32.2873L31.8813 140.405C31.844 140.479 31.7973 140.531 31.7413 140.559C31.6853 140.587 31.6293 140.582 31.5733 140.545ZM37.0347 140.545C36.974 140.512 36.939 140.465 36.9297 140.405C36.925 140.344 36.9437 140.279 36.9857 140.209L37.4757 139.439L37.5527 139.551L36.6357 139.586C36.5517 139.586 36.484 139.569 36.4327 139.537C36.386 139.499 36.3627 139.446 36.3627 139.376C36.3627 139.31 36.386 139.261 36.4327 139.229C36.484 139.191 36.5517 139.175 36.6357 139.18L37.5527 139.215L37.4757 139.32L36.9927 138.543C36.946 138.473 36.9273 138.407 36.9367 138.347C36.946 138.286 36.9787 138.239 37.0347 138.207C37.0907 138.174 37.1467 138.172 37.2027 138.2C37.2633 138.228 37.3123 138.279 37.3497 138.354L37.7487 139.124H37.6787L38.0777 138.354C38.1197 138.279 38.1687 138.228 38.2247 138.2C38.2853 138.172 38.3437 138.174 38.3997 138.207C38.4557 138.244 38.486 138.293 38.4907 138.354C38.5 138.414 38.4813 138.48 38.4347 138.55L37.9517 139.32L37.8747 139.215L38.7917 139.18C38.8757 139.175 38.941 139.191 38.9877 139.229C39.039 139.261 39.0647 139.31 39.0647 139.376C39.0647 139.446 39.039 139.499 38.9877 139.537C38.941 139.569 38.8757 139.586 38.7917 139.586L37.8747 139.551L37.9517 139.439L38.4347 140.209C38.4813 140.279 38.5 140.344 38.4907 140.405C38.486 140.461 38.4557 140.505 38.3997 140.538C38.339 140.575 38.2783 140.58 38.2177 140.552C38.1617 140.524 38.115 140.475 38.0777 140.405L37.6787 139.635H37.7487L37.3427 140.405C37.3053 140.479 37.2587 140.531 37.2027 140.559C37.1467 140.587 37.0907 140.582 37.0347 140.545ZM42.496 140.545C42.4354 140.512 42.4004 140.465 42.391 140.405C42.3864 140.344 42.405 140.279 42.447 140.209L42.937 139.439L43.014 139.551L42.097 139.586C42.013 139.586 41.9454 139.569 41.894 139.537C41.8474 139.499 41.824 139.446 41.824 139.376C41.824 139.31 41.8474 139.261 41.894 139.229C41.9454 139.191 42.013 139.175 42.097 139.18L43.014 139.215L42.937 139.32L42.454 138.543C42.4074 138.473 42.3887 138.407 42.398 138.347C42.4074 138.286 42.44 138.239 42.496 138.207C42.552 138.174 42.608 138.172 42.664 138.2C42.7247 138.228 42.7737 138.279 42.811 138.354L43.21 139.124H43.14L43.539 138.354C43.581 138.279 43.63 138.228 43.686 138.2C43.7467 138.172 43.805 138.174 43.861 138.207C43.917 138.244 43.9474 138.293 43.952 138.354C43.9614 138.414 43.9427 138.48 43.896 138.55L43.413 139.32L43.336 139.215L44.253 139.18C44.337 139.175 44.4024 139.191 44.449 139.229C44.5004 139.261 44.526 139.31 44.526 139.376C44.526 139.446 44.5004 139.499 44.449 139.537C44.4024 139.569 44.337 139.586 44.253 139.586L43.336 139.551L43.413 139.439L43.896 140.209C43.9427 140.279 43.9614 140.344 43.952 140.405C43.9474 140.461 43.917 140.505 43.861 140.538C43.8004 140.575 43.7397 140.58 43.679 140.552C43.623 140.524 43.5764 140.475 43.539 140.405L43.14 139.635H43.21L42.804 140.405C42.7667 140.479 42.72 140.531 42.664 140.559C42.608 140.587 42.552 140.582 42.496 140.545ZM47.9574 140.545C47.8967 140.512 47.8617 140.465 47.8524 140.405C47.8477 140.344 47.8664 140.279 47.9084 140.209L48.3984 139.439L48.4754 139.551L47.5584 139.586C47.4744 139.586 47.4067 139.569 47.3554 139.537C47.3087 139.499 47.2854 139.446 47.2854 139.376C47.2854 139.31 47.3087 139.261 47.3554 139.229C47.4067 139.191 47.4744 139.175 47.5584 139.18L48.4754 139.215L48.3984 139.32L47.9154 138.543C47.8687 138.473 47.8501 138.407 47.8594 138.347C47.8687 138.286 47.9014 138.239 47.9574 138.207C48.0134 138.174 48.0694 138.172 48.1254 138.2C48.1861 138.228 48.2351 138.279 48.2724 138.354L48.6714 139.124H48.6014L49.0004 138.354C49.0424 138.279 49.0914 138.228 49.1474 138.2C49.2081 138.172 49.2664 138.174 49.3224 138.207C49.3784 138.244 49.4087 138.293 49.4134 138.354C49.4227 138.414 49.4041 138.48 49.3574 138.55L48.8744 139.32L48.7974 139.215L49.7144 139.18C49.7984 139.175 49.8637 139.191 49.9104 139.229C49.9617 139.261 49.9874 139.31 49.9874 139.376C49.9874 139.446 49.9617 139.499 49.9104 139.537C49.8637 139.569 49.7984 139.586 49.7144 139.586L48.7974 139.551L48.8744 139.439L49.3574 140.209C49.4041 140.279 49.4227 140.344 49.4134 140.405C49.4087 140.461 49.3784 140.505 49.3224 140.538C49.2617 140.575 49.2011 140.58 49.1404 140.552C49.0844 140.524 49.0377 140.475 49.0004 140.405L48.6014 139.635H48.6714L48.2654 140.405C48.2281 140.479 48.1814 140.531 48.1254 140.559C48.0694 140.587 48.0134 140.582 47.9574 140.545ZM53.4188 140.545C53.3581 140.512 53.3231 140.465 53.3138 140.405C53.3091 140.344 53.3278 140.279 53.3698 140.209L53.8598 139.439L53.9368 139.551L53.0198 139.586C52.9358 139.586 52.8681 139.569 52.8168 139.537C52.7701 139.499 52.7468 139.446 52.7468 139.376C52.7468 139.31 52.7701 139.261 52.8168 139.229C52.8681 139.191 52.9358 139.175 53.0198 139.18L53.9368 139.215L53.8598 139.32L53.3768 138.543C53.3301 138.473 53.3114 138.407 53.3208 138.347C53.3301 138.286 53.3628 138.239 53.4188 138.207C53.4748 138.174 53.5308 138.172 53.5868 138.2C53.6474 138.228 53.6964 138.279 53.7338 138.354L54.1328 139.124H54.0628L54.4618 138.354C54.5038 138.279 54.5528 138.228 54.6088 138.2C54.6694 138.172 54.7278 138.174 54.7838 138.207C54.8398 138.244 54.8701 138.293 54.8748 138.354C54.8841 138.414 54.8654 138.48 54.8188 138.55L54.3358 139.32L54.2588 139.215L55.1758 139.18C55.2598 139.175 55.3251 139.191 55.3718 139.229C55.4231 139.261 55.4488 139.31 55.4488 139.376C55.4488 139.446 55.4231 139.499 55.3718 139.537C55.3251 139.569 55.2598 139.586 55.1758 139.586L54.2588 139.551L54.3358 139.439L54.8188 140.209C54.8654 140.279 54.8841 140.344 54.8748 140.405C54.8701 140.461 54.8398 140.505 54.7838 140.538C54.7231 140.575 54.6624 140.58 54.6018 140.552C54.5458 140.524 54.4991 140.475 54.4618 140.405L54.0628 139.635H54.1328L53.7268 140.405C53.6894 140.479 53.6428 140.531 53.5868 140.559C53.5308 140.587 53.4748 140.582 53.4188 140.545ZM58.8801 140.545C58.8195 140.512 58.7845 140.465 58.7751 140.405C58.7705 140.344 58.7891 140.279 58.8311 140.209L59.3211 139.439L59.3981 139.551L58.4811 139.586C58.3971 139.586 58.3295 139.569 58.2781 139.537C58.2315 139.499 58.2081 139.446 58.2081 139.376C58.2081 139.31 58.2315 139.261 58.2781 139.229C58.3295 139.191 58.3971 139.175 58.4811 139.18L59.3981 139.215L59.3211 139.32L58.8381 138.543C58.7915 138.473 58.7728 138.407 58.7821 138.347C58.7915 138.286 58.8241 138.239 58.8801 138.207C58.9361 138.174 58.9921 138.172 59.0481 138.2C59.1088 138.228 59.1578 138.279 59.1951 138.354L59.5941 139.124H59.5241L59.9231 138.354C59.9651 138.279 60.0141 138.228 60.0701 138.2C60.1308 138.172 60.1891 138.174 60.2451 138.207C60.3011 138.244 60.3315 138.293 60.3361 138.354C60.3455 138.414 60.3268 138.48 60.2801 138.55L59.7971 139.32L59.7201 139.215L60.6371 139.18C60.7211 139.175 60.7865 139.191 60.8331 139.229C60.8845 139.261 60.9101 139.31 60.9101 139.376C60.9101 139.446 60.8845 139.499 60.8331 139.537C60.7865 139.569 60.7211 139.586 60.6371 139.586L59.7201 139.551L59.7971 139.439L60.2801 140.209C60.3268 140.279 60.3455 140.344 60.3361 140.405C60.3315 140.461 60.3011 140.505 60.2451 140.538C60.1845 140.575 60.1238 140.58 60.0631 140.552C60.0071 140.524 59.9605 140.475 59.9231 140.405L59.5241 139.635H59.5941L59.1881 140.405C59.1508 140.479 59.1041 140.531 59.0481 140.559C58.9921 140.587 58.9361 140.582 58.8801 140.545ZM64.3415 140.545C64.2808 140.512 64.2458 140.465 64.2365 140.405C64.2318 140.344 64.2505 140.279 64.2925 140.209L64.7825 139.439L64.8595 139.551L63.9425 139.586C63.8585 139.586 63.7908 139.569 63.7395 139.537C63.6928 139.499 63.6695 139.446 63.6695 139.376C63.6695 139.31 63.6928 139.261 63.7395 139.229C63.7908 139.191 63.8585 139.175 63.9425 139.18L64.8595 139.215L64.7825 139.32L64.2995 138.543C64.2528 138.473 64.2342 138.407 64.2435 138.347C64.2528 138.286 64.2855 138.239 64.3415 138.207C64.3975 138.174 64.4535 138.172 64.5095 138.2C64.5702 138.228 64.6192 138.279 64.6565 138.354L65.0555 139.124H64.9855L65.3845 138.354C65.4265 138.279 65.4755 138.228 65.5315 138.2C65.5922 138.172 65.6505 138.174 65.7065 138.207C65.7625 138.244 65.7928 138.293 65.7975 138.354C65.8068 138.414 65.7882 138.48 65.7415 138.55L65.2585 139.32L65.1815 139.215L66.0985 139.18C66.1825 139.175 66.2478 139.191 66.2945 139.229C66.3458 139.261 66.3715 139.31 66.3715 139.376C66.3715 139.446 66.3458 139.499 66.2945 139.537C66.2478 139.569 66.1825 139.586 66.0985 139.586L65.1815 139.551L65.2585 139.439L65.7415 140.209C65.7882 140.279 65.8068 140.344 65.7975 140.405C65.7928 140.461 65.7625 140.505 65.7065 140.538C65.6458 140.575 65.5852 140.58 65.5245 140.552C65.4685 140.524 65.4218 140.475 65.3845 140.405L64.9855 139.635H65.0555L64.6495 140.405C64.6122 140.479 64.5655 140.531 64.5095 140.559C64.4535 140.587 64.3975 140.582 64.3415 140.545ZM69.8029 140.545C69.7422 140.512 69.7072 140.465 69.6979 140.405C69.6932 140.344 69.7119 140.279 69.7539 140.209L70.2439 139.439L70.3209 139.551L69.4039 139.586C69.3199 139.586 69.2522 139.569 69.2009 139.537C69.1542 139.499 69.1309 139.446 69.1309 139.376C69.1309 139.31 69.1542 139.261 69.2009 139.229C69.2522 139.191 69.3199 139.175 69.4039 139.18L70.3209 139.215L70.2439 139.32L69.7609 138.543C69.7142 138.473 69.6955 138.407 69.7049 138.347C69.7142 138.286 69.7469 138.239 69.8029 138.207C69.8589 138.174 69.9149 138.172 69.9709 138.2C70.0315 138.228 70.0805 138.279 70.1179 138.354L70.5169 139.124H70.4469L70.8459 138.354C70.8879 138.279 70.9369 138.228 70.9929 138.2C71.0536 138.172 71.1119 138.174 71.1679 138.207C71.2239 138.244 71.2542 138.293 71.2589 138.354C71.2682 138.414 71.2496 138.48 71.2029 138.55L70.7199 139.32L70.6429 139.215L71.5599 139.18C71.6439 139.175 71.7092 139.191 71.7559 139.229C71.8072 139.261 71.8329 139.31 71.8329 139.376C71.8329 139.446 71.8072 139.499 71.7559 139.537C71.7092 139.569 71.6439 139.586 71.5599 139.586L70.6429 139.551L70.7199 139.439L71.2029 140.209C71.2496 140.279 71.2682 140.344 71.2589 140.405C71.2542 140.461 71.2239 140.505 71.1679 140.538C71.1072 140.575 71.0465 140.58 70.9859 140.552C70.9299 140.524 70.8832 140.475 70.8459 140.405L70.4469 139.635H70.5169L70.1109 140.405C70.0735 140.479 70.0269 140.531 69.9709 140.559C69.9149 140.587 69.8589 140.582 69.8029 140.545Z" fill="#FEDC65"/>
<g filter="url(#filter0_d_4_944)">
<rect x="118.245" y="42.8354" width="137.397" height="24.2466" rx="5" fill="#271E3C"/>
</g>
<rect x="159.53" y="53.1079" width="11.8527" height="3.16072" rx="1.58036" fill="white"/>
<rect x="174.543" y="53.1079" width="11.0625" height="3.16072" rx="1.58036" fill="white"/>
<rect x="125.519" y="50.1099" width="9.48216" height="9.48216" rx="4.74108" fill="#FEDC65"/>
<rect x="188.766" y="53.1079" width="11.8527" height="3.16072" rx="1.58036" fill="white"/>
<rect x="203.78" y="53.1079" width="11.8527" height="3.16072" rx="1.58036" fill="white"/>
<rect x="218.793" y="53.1079" width="11.8527" height="3.16072" rx="1.58036" fill="white"/>
<rect x="244.079" y="53.8979" width="3.16072" height="1.58036" rx="0.79018" fill="white"/>
<defs>
<filter id="filter0_d_4_944" x="117.245" y="42.8354" width="151.397" height="38.2466" filterUnits="userSpaceOnUse" color-interpolation-filters="sRGB">
<feFlood flood-opacity="0" result="BackgroundImageFix"/>
<feColorMatrix in="SourceAlpha" type="matrix" values="0 0 0 0 0 0 0 0 0 0 0 0 0 0 0 0 0 0 127 0" result="hardAlpha"/>
<feOffset dx="6" dy="7"/>
<feGaussianBlur stdDeviation="3.5"/>
<feComposite in2="hardAlpha" operator="out"/>
<feColorMatrix type="matrix" values="0 0 0 0 0.500272 0 0 0 0 0.500272 0 0 0 0 0.500272 0 0 0 0.25 0"/>
<feBlend mode="normal" in2="BackgroundImageFix" result="effect1_dropShadow_4_944"/>
<feBlend mode="normal" in="SourceGraphic" in2="effect1_dropShadow_4_944" result="shape"/>
</filter>
</defs>
</svg>
